<?xml version="1.0" standalone="no"?>
<!DOCTYPE svg PUBLIC "-//W3C//DTD SVG 1.1//EN" "http://www.w3.org/Graphics/SVG/1.1/DTD/svg11.dtd" >
<svg xmlns="http://www.w3.org/2000/svg" xmlns:xlink="http://www.w3.org/1999/xlink" version="1.1">
<metadata></metadata>
<defs>
<font id="proxima_nova_ltlight" horiz-adv-x="1250" >
<font-face units-per-em="2048" ascent="1618" descent="-430" />
<missing-glyph horiz-adv-x="567" />
<glyph unicode="ffj" horiz-adv-x="1627" d="M910 0h-115v958h-174v100h174v97q0 155 77.5 241.5t210.5 86.5q88 0 142 -32l-35 -90q-42 24 -96 24q-60 0 -101.5 -27t-62 -78.5t-20.5 -124.5v-97h215v-100h-215v-958zM1396 1225q-35 0 -61 26t-26 61.5t26 60.5t61 25q37 0 62 -24.5t25 -60.5t-25.5 -62t-61.5 -26z M1166 -429q-70 0 -119 19t-98 61l50 90q68 -72 156 -72q82 0 133 48.5t51 146.5v1194h114v-1194q0 -72 -19 -127.5t-56 -92t-90 -55t-122 -18.5zM328 0h-113v958h-175v100h175v97q0 154 76.5 241t210.5 87q60 0 106.5 -16t94.5 -58l-55 -79q-58 55 -135 55q-60 0 -101.5 -27 t-62.5 -78.5t-21 -124.5v-97h216v-100h-216v-958z" />
<glyph unicode="fj" horiz-adv-x="1046" d="M328 0h-113v958h-175v100h175v97q0 155 77 241.5t210 86.5q88 0 142 -32l-35 -90q-42 24 -96 24q-60 0 -101.5 -27t-62.5 -78.5t-21 -124.5v-97h216v-100h-216v-958zM815 1225q-22 0 -42.5 12t-32.5 32t-12 43.5t12 43.5t32.5 31t42.5 11q37 0 62.5 -24.5t25.5 -60.5 t-26 -62t-62 -26zM585 -429q-47 0 -85 9t-68.5 26t-63.5 45l50 90q68 -72 157 -72q53 0 93 19.5t65.5 64.5t25.5 111v1194h113v-1194q0 -144 -74.5 -218.5t-212.5 -74.5z" />
<glyph unicode="ff" horiz-adv-x="1160" d="M328 0h-113v958h-175v100h175v97q0 154 76.5 241t210.5 87q60 0 106.5 -16t94.5 -58l-55 -79q-58 55 -135 55q-60 0 -101.5 -27t-62.5 -78.5t-21 -124.5v-97h216v-100h-216v-958zM910 0h-115v958h-174v100h174v97q0 154 77 241t211 87q60 0 106.5 -16t94.5 -58l-55 -79 q-58 55 -135 55q-60 0 -101.5 -27t-62 -78.5t-20.5 -124.5v-97h215v-100h-215v-958z" />
<glyph unicode="fi" horiz-adv-x="1046" d="M328 0h-113v958h-175v100h175v97q0 155 77 241.5t210 86.5q88 0 142 -32l-35 -90q-42 24 -96 24q-60 0 -101.5 -27t-62.5 -78.5t-21 -124.5v-97h216v-100h-216v-958zM815 1225q-22 0 -42.5 12t-32.5 32t-12 43.5t12 43.5t32.5 31t42.5 11q37 0 62.5 -24.5t25.5 -60.5 t-26 -62t-62 -26zM872 0h-113v1058h113v-1058z" />
<glyph unicode="fl" horiz-adv-x="1046" d="M328 0h-113v958h-175v100h175v97q0 155 77 241.5t210 86.5q88 0 142 -32l-35 -90q-42 24 -96 24q-60 0 -101.5 -27t-62.5 -78.5t-21 -124.5v-97h216v-100h-216v-958zM872 0h-113v1462h113v-1462z" />
<glyph unicode="ffi" horiz-adv-x="1627" d="M910 0h-115v958h-174v100h174v97q0 155 77.5 241.5t210.5 86.5q88 0 142 -32l-35 -90q-42 24 -96 24q-60 0 -101.5 -27t-62 -78.5t-20.5 -124.5v-97h215v-100h-215v-958zM1396 1225q-35 0 -61 26t-26 61.5t26 60.5t61 25q37 0 62 -24.5t25 -60.5t-25.5 -62t-61.5 -26z M1453 0h-114v1058h114v-1058zM328 0h-113v958h-175v100h175v97q0 154 76.5 241t210.5 87q60 0 106.5 -16t94.5 -58l-55 -79q-58 55 -135 55q-60 0 -101.5 -27t-62.5 -78.5t-21 -124.5v-97h216v-100h-216v-958z" />
<glyph unicode="ffl" horiz-adv-x="1627" d="M910 0h-115v958h-174v100h174v97q0 155 77.5 241.5t210.5 86.5q88 0 142 -32l-35 -90q-42 24 -96 24q-60 0 -101.5 -27t-62 -78.5t-20.5 -124.5v-97h215v-100h-215v-958zM1453 0h-114v1462h114v-1462zM328 0h-113v958h-175v100h175v97q0 154 76.5 241t210.5 87 q60 0 106.5 -16t94.5 -58l-55 -79q-58 55 -135 55q-60 0 -101.5 -27t-62.5 -78.5t-21 -124.5v-97h216v-100h-216v-958z" />
<glyph unicode="fb" horiz-adv-x="1829" d="M328 0h-113v958h-175v100h175v97q0 155 77 241.5t210 86.5q88 0 142 -32l-35 -90q-42 24 -96 24q-60 0 -101.5 -27t-62.5 -78.5t-21 -124.5v-97h216v-100h-216v-958zM872 265q48 -78 145.5 -133t203.5 -55q115 0 200 59.5t127.5 161t42.5 231t-42.5 231.5t-127.5 162 t-200 60q-71 0 -141.5 -27.5t-123.5 -71t-84 -94.5v-524zM872 0h-113v1462h113v-575q65 92 161.5 145t206.5 53q105 0 193 -40t150 -112.5t96.5 -176t34.5 -227.5q0 -126 -34.5 -230t-97 -175.5t-150.5 -111t-192 -39.5q-113 0 -211 55t-157 141v-169z" />
<glyph unicode="fh" horiz-adv-x="1763" d="M328 0h-113v958h-175v100h175v97q0 155 77 241.5t210 86.5q88 0 142 -32l-35 -90q-42 24 -96 24q-60 0 -101.5 -27t-62.5 -78.5t-21 -124.5v-97h216v-100h-216v-958zM1587 0h-115v721q0 50 -8 90t-24 68.5t-38 48.5t-51.5 32t-62 17t-71.5 5q-99 0 -195.5 -53 t-149.5 -129v-800h-113v1462h113v-563q20 23 44.5 45.5t54 43.5t63.5 38.5t69 30.5t74 20.5t76 7.5q165 0 249.5 -82.5t84.5 -257.5v-745z" />
<glyph unicode="fk" horiz-adv-x="1686" d="M328 0h-113v958h-175v100h175v97q0 155 77 241.5t210 86.5q88 0 142 -32l-35 -90q-42 24 -96 24q-60 0 -101.5 -27t-62.5 -78.5t-21 -124.5v-97h216v-100h-216v-958zM1646 0h-153l-424 504l-197 -186v-318h-113v1462h113v-1008l625 604h151l-493 -477z" />
<glyph unicode="&#xd;" horiz-adv-x="0" />
<glyph unicode=" "  horiz-adv-x="567" />
<glyph unicode="&#x09;" horiz-adv-x="567" />
<glyph unicode="&#xa0;" horiz-adv-x="567" />
<glyph unicode="!" horiz-adv-x="479" d="M285 381h-90l-28 1081h147zM239 -19q-40 0 -67.5 28.5t-27.5 67.5q0 38 28 66t67 28t68.5 -28t29.5 -66q0 -39 -29.5 -67.5t-68.5 -28.5z" />
<glyph unicode="&#x22;" horiz-adv-x="694" d="M239 935h-66q-46 441 -46 470q0 22 10.5 39.5t28.5 28t41 10.5q16 0 30.5 -6t24.5 -16.5t16.5 -25t6.5 -30.5q0 -13 -11.5 -130.5t-23.5 -228.5zM521 935h-65q-46 441 -46 470q0 33 23 55.5t56 22.5t55.5 -22.5t22.5 -55.5q0 -13 -11.5 -130.5t-22.5 -228.5z" />
<glyph unicode="#" horiz-adv-x="1267" d="M623 0h-106l140 408h-258l-138 -408h-104l136 408h-241l29 90h245l157 466h-249l27 90h252l133 408h103l-134 -408h257l134 408h105l-138 -408h244l-25 -90h-247l-159 -466h253l-27 -90h-253zM684 498l157 466h-256l-156 -466h255z" />
<glyph unicode="$" horiz-adv-x="1279" d="M598 -219v194q-161 8 -286 69t-207 163l81 94q73 -86 177.5 -144t234.5 -67v613q-45 13 -74.5 22t-71.5 23.5t-69.5 27t-62 32t-57 39t-46 46.5t-36.5 56.5t-21.5 66.5t-8.5 80q0 111 60 198t161 135.5t226 53.5v200h101v-200q263 -21 428 -203l-84 -92 q-131 156 -344 179v-552q56 -15 97 -28.5t92 -34.5t87 -43.5t73 -55t59.5 -70t37 -87.5t14.5 -109q0 -46 -10.5 -91t-32 -90.5t-58 -84t-86 -69.5t-119.5 -51t-154 -26v-194h-101zM1028 379q0 51 -18 93.5t-46 72t-73.5 55t-88.5 41.5t-103 34v-585q73 5 131.5 26t94.5 50 t60 66.5t33.5 73.5t9.5 73zM282 1102q0 -32 9 -60t23.5 -49.5t38.5 -41t49 -34t59 -28.5t65 -24t72 -22v527q-90 -5 -162 -40t-113 -95t-41 -133z" />
<glyph unicode="%" horiz-adv-x="1577" d="M416 767q-150 0 -245.5 101t-95.5 254q0 156 95.5 258.5t245.5 102.5q100 0 179 -47t122.5 -129t43.5 -185q0 -100 -43.5 -181t-122.5 -127.5t-179 -46.5zM379 0h-99l934 1462h101zM1161 -27q-150 0 -247 102t-97 256q0 155 97 258t247 103q99 0 178 -47t122.5 -129.5 t43.5 -184.5q0 -154 -97 -256t-247 -102zM416 851q106 0 174.5 79.5t68.5 191.5q0 117 -68 196.5t-175 79.5q-105 0 -173 -79.5t-68 -196.5q0 -112 68.5 -191.5t172.5 -79.5zM1161 59q106 0 174 79t68 193q0 115 -68 195.5t-174 80.5t-174.5 -80.5t-68.5 -195.5 q0 -114 68.5 -193t174.5 -79z" />
<glyph unicode="&#x26;" horiz-adv-x="1399" d="M1319 0h-171q-84 73 -186 175q-179 -202 -429 -202q-91 0 -170.5 26t-140 74.5t-95.5 125.5t-35 173q0 68 18 127t46.5 102.5t73.5 84.5t88 69.5t100 59.5q-119 187 -119 335q0 95 46.5 171.5t126 119t174.5 42.5q138 0 222.5 -73t84.5 -203q0 -45 -11.5 -85.5 t-27.5 -71.5t-48 -63.5t-56 -53.5t-70 -49.5t-73 -43t-79 -42.5q-9 -5 -13 -7q62 -88 188 -230q116 -133 195 -214q106 159 167 354l104 -44q-30 -77 -51.5 -128t-60.5 -126.5t-80 -134.5q106 -109 282 -268zM541 75q191 0 346 178q-155 158 -218 234q-6 7 -31.5 37 t-35 41.5t-31.5 38t-35 43.5t-30.5 40.5t-32.5 44.5q-58 -34 -100 -66.5t-79 -75t-56 -96t-19 -115.5q0 -73 26.5 -131.5t71.5 -95.5t102.5 -57t121.5 -20zM421 1148q0 -117 100 -278q32 17 49.5 26.5t47 26t46 27.5t41 27.5t38.5 30t31.5 31.5t27.5 35.5t19.5 38t13.5 43 t4 47.5q0 87 -53.5 135.5t-137.5 48.5q-95 0 -161 -67.5t-66 -171.5z" />
<glyph unicode="'" horiz-adv-x="408" d="M239 935h-66q-46 441 -46 470q0 22 10.5 39.5t28.5 28t41 10.5q16 0 30.5 -6t24.5 -16.5t16.5 -25t6.5 -30.5q0 -13 -11.5 -130.5t-23.5 -228.5z" />
<glyph unicode="(" horiz-adv-x="496" d="M460 -385l-67 -52q-95 143 -160 299.5t-98.5 326t-33.5 344.5q0 262 74.5 507.5t217.5 460.5l67 -48q-57 -116 -95.5 -211.5t-71.5 -209t-49 -237t-16 -262.5q0 -138 16 -261.5t49 -237t72 -209t95 -210.5z" />
<glyph unicode=")" horiz-adv-x="496" d="M105 -437l-68 52q57 113 96.5 210t72 210t48.5 236.5t16 261.5q0 139 -16 262.5t-48.5 236.5t-71.5 209.5t-97 211.5l68 48q95 -143 160 -298.5t99.5 -325t34.5 -344.5q0 -262 -75.5 -507.5t-218.5 -462.5z" />
<glyph unicode="*" horiz-adv-x="734" d="M408 874h-82l11 257l-214 -140l-42 72l228 116l-228 116l42 72l214 -140l-11 256h82l-13 -256l216 140l40 -72l-226 -116l226 -116l-40 -72l-216 140z" />
<glyph unicode="+" horiz-adv-x="1086" d="M1023 692h-429v-475h-99v475h-432v92h432v463h99v-463h429v-92z" />
<glyph unicode="," horiz-adv-x="479" d="M349 31q0 -89 -45.5 -170.5t-113.5 -130.5l-63 55q53 36 88.5 93.5t39.5 108.5q-16 -2 -23 -2q-39 0 -64.5 26t-25.5 66q0 38 28 66t66 28q47 0 80 -37.5t33 -102.5z" />
<glyph unicode="-" horiz-adv-x="656" d="M592 477h-527v106h527v-106z" />
<glyph unicode="." horiz-adv-x="479" d="M238.5 -21q-39.5 0 -68 29.5t-28.5 68.5q0 25 13 46.5t35.5 34.5t48.5 13q39 0 68.5 -28t29.5 -66q0 -39 -29.5 -68.5t-69 -29.5z" />
<glyph unicode="/" horiz-adv-x="617" d="M98 -44h-98l519 1549h99z" />
<glyph unicode="0" horiz-adv-x="1332" d="M669 -27q-83 0 -154.5 24t-126 65.5t-98.5 99.5t-74 124.5t-50 142t-29.5 150.5t-9.5 151t9.5 151t29.5 150.5t50 141.5t74 123.5t98.5 98.5t126 64.5t154.5 23.5q81 0 152 -23.5t125 -64.5t98 -98.5t74 -123.5t50.5 -141t29.5 -150.5t9 -151.5q0 -67 -7 -132.5t-22 -132 t-38.5 -127.5t-55 -116.5t-74 -100.5t-93 -78t-114 -51.5t-134.5 -18.5zM669 88q63 0 118 20t95.5 54.5t73.5 83.5t55 105t36.5 120.5t20.5 128t6 130.5q0 78 -9 152.5t-27.5 147.5t-51 133.5t-76 107t-105.5 73t-136 26.5q-65 0 -120.5 -20t-96.5 -54.5t-74 -83t-55 -104 t-36.5 -119.5t-21 -128t-6.5 -131q0 -78 9 -152.5t28 -147.5t52 -134t77 -108.5t106.5 -73.5t137.5 -26z" />
<glyph unicode="1" horiz-adv-x="674" d="M493 0h-125v1290l-234 -249l-77 81l322 340h114v-1462z" />
<glyph unicode="2" horiz-adv-x="1274" d="M1087 0h-964v103q95 76 160.5 130t144.5 121t132.5 116t113 108t98 105.5t76.5 99.5t59 99t33.5 94.5t12.5 94.5q0 51 -13 95t-37 76t-55.5 57t-69 40t-77 23t-80.5 8q-67 0 -128.5 -14t-111.5 -40t-91 -60.5t-71 -76.5l-85 79q51 70 125 120.5t166.5 77.5t195.5 27 q66 0 130 -14.5t124 -47.5t105.5 -80t73 -116.5t27.5 -153.5q0 -53 -13 -107t-34 -104t-57.5 -105t-74 -103t-93 -105.5t-105.5 -104.5t-120.5 -107.5t-128 -108.5t-137.5 -113h769v-113z" />
<glyph unicode="3" horiz-adv-x="1191" d="M567 -27q-170 0 -299.5 69t-196.5 175l84 74q64 -92 170 -147.5t240 -55.5q112 0 195 37.5t128 108t45 165.5q0 77 -30 135t-84 92.5t-123.5 51t-154.5 16.5q-114 0 -135 -2v119q21 -2 135 -2q75 0 140 16.5t117.5 49t83 87.5t30.5 125q0 88 -49 153.5t-127.5 97.5 t-174.5 32q-122 0 -215.5 -46.5t-176.5 -140.5l-79 80q82 100 203.5 160t273.5 60q96 0 181 -26t150 -73.5t103 -121.5t38 -164q0 -64 -21 -119t-53.5 -92t-75 -65t-83 -43.5t-81.5 -22.5q41 -4 84.5 -19t89 -45t81 -70.5t58 -100t22.5 -128.5q0 -72 -21 -136t-63 -116 t-100.5 -89.5t-137.5 -58t-171 -20.5z" />
<glyph unicode="4" horiz-adv-x="1184" d="M895 0h-126v399h-692v111l648 952h170v-949h214v-114h-214v-399zM769 513v823l-562 -823h562z" />
<glyph unicode="5" horiz-adv-x="1274" d="M655 -27q-174 0 -293 62.5t-199 177.5l82 82q48 -68 106.5 -113t134.5 -69.5t169 -24.5q103 0 187.5 46.5t131.5 127t47 179.5q0 163 -101.5 259.5t-262.5 96.5q-200 0 -354 -142l-94 39v768h843v-114h-719v-572q28 27 64 51t80 43t97 30.5t108 11.5q93 0 176 -31 t148.5 -88t103.5 -147t38 -201q0 -106 -39 -196t-106.5 -149.5t-157 -93t-190.5 -33.5z" />
<glyph unicode="6" horiz-adv-x="1279" d="M664 -27q-115 0 -207 41.5t-152.5 111.5t-101.5 168t-58.5 206t-17.5 230q0 96 14 186t41.5 175.5t73 156t106 123.5t143.5 82.5t181 29.5q134 0 228.5 -48.5t166.5 -137.5l-75 -92q-59 80 -133.5 122.5t-186.5 42.5q-66 0 -123 -19.5t-100.5 -53.5t-78.5 -82t-59 -104 t-40 -120t-23 -129.5t-7 -133.5q0 -47 2 -69q24 40 65.5 81t96 78.5t125 61t140.5 23.5q100 0 184.5 -29t149 -85t101 -145t36.5 -203q0 -60 -15 -117.5t-43 -109.5t-71 -96t-96 -76.5t-121.5 -50.5t-144.5 -18zM659 88q72 0 134 21.5t104.5 56.5t72.5 81t44 94.5t14 97.5 q0 87 -27.5 155t-77 110.5t-116 64.5t-146.5 22q-118 0 -226 -69t-172 -181q5 -52 17 -102.5t32.5 -103t52.5 -96t73 -78t98 -54t123 -19.5z" />
<glyph unicode="7" horiz-adv-x="1099" d="M406 0h-138l613 1348h-808v114h957v-88z" />
<glyph unicode="8" d="M627 -27q-141 0 -254 48t-178.5 138t-65.5 207q0 73 30.5 138.5t82.5 113.5t115.5 82.5t135.5 53.5q-68 18 -126.5 47.5t-108 72t-77.5 102.5t-28 130q0 55 14 103t39.5 85.5t60 68.5t76 53t89 37.5t96.5 22.5t99 7q70 0 137 -14t128 -44.5t107 -73.5t73.5 -106 t27.5 -139q0 -70 -28 -130t-77 -102.5t-107.5 -72t-126.5 -47.5q72 -19 135.5 -53.5t114.5 -82.5t81 -113t30 -139q0 -87 -38 -161t-104 -124.5t-157.5 -79t-195.5 -28.5zM627 807q24 4 48 10t59.5 18.5t66.5 27.5t63.5 38t55.5 50t38 64t15 79q0 85 -47 148.5t-125 95.5 t-174 32q-72 0 -135 -19t-110.5 -53.5t-74.5 -87t-27 -116.5q0 -42 15 -79.5t38.5 -64t56 -49.5t63.5 -38t67 -27.5t60 -18.5t47 -10zM627 88q97 0 180.5 34t136.5 100.5t53 151.5q0 47 -16 88.5t-42 72t-60 57t-69 44.5t-71 31t-63.5 20t-48.5 10q-25 -3 -59 -12.5t-77 -26 t-83 -43.5t-74.5 -60t-55.5 -80t-21 -101q0 -51 19.5 -97t54.5 -80.5t81.5 -59t101.5 -37t113 -12.5z" />
<glyph unicode="9" horiz-adv-x="1279" d="M594 -25q-135 0 -229 49t-164 139l73 90q59 -79 133.5 -121t186.5 -42q78 0 143.5 26t111.5 72.5t81 107t55 133.5t30 148t10 155v68q-20 -31 -50 -64t-72 -66t-89 -58.5t-104 -41.5t-114 -16q-100 0 -185 29.5t-149 86t-100.5 146t-36.5 203.5q0 90 33.5 173.5t94.5 149 t155 105t207 39.5q83 0 154 -21.5t125.5 -59.5t98 -93t73 -119.5t49.5 -141t28.5 -156t8.5 -165.5q0 -96 -13.5 -186.5t-41 -175.5t-73.5 -156t-106 -124t-143 -83t-181 -30zM618 669q60 0 118.5 18t110 51t95 79t74.5 101q-5 63 -20.5 124t-47 121.5t-75 106t-108.5 74 t-144 28.5q-61 0 -114 -15t-92.5 -41t-71 -60.5t-51 -74t-29.5 -80t-10 -80.5q0 -70 18 -128t50.5 -99.5t78 -69.5t100.5 -41.5t118 -13.5z" />
<glyph unicode=":" horiz-adv-x="479" d="M239 883q-26 0 -48.5 13t-35.5 34.5t-13 46.5q0 39 28.5 68t68 29t69 -29t29.5 -68q0 -38 -29.5 -66t-68.5 -28zM238.5 -21q-39.5 0 -68 29.5t-28.5 68.5q0 25 13 46.5t35.5 34.5t48.5 13q39 0 68.5 -28t29.5 -66q0 -39 -29.5 -68.5t-69 -29.5z" />
<glyph unicode=";" horiz-adv-x="479" d="M239 883q-26 0 -48.5 13t-35.5 34.5t-13 46.5q0 39 28.5 68t68 29t69 -29t29.5 -68q0 -38 -29.5 -66t-68.5 -28zM349 31q0 -87 -45.5 -168.5t-113.5 -130.5l-63 55q53 36 88.5 93.5t39.5 108.5q-16 -2 -23 -2q-39 0 -64.5 26.5t-25.5 65.5q0 38 28 66t66 28q47 0 80 -38 t33 -104z" />
<glyph unicode="&#x3c;" horiz-adv-x="1086" d="M1023 197l-960 495v82l960 497v-108l-845 -431l845 -427v-108z" />
<glyph unicode="=" horiz-adv-x="1086" d="M1023 901h-960v92h960v-92zM1023 473h-960v90h960v-90z" />
<glyph unicode="&#x3e;" horiz-adv-x="1086" d="M1023 692l-960 -495v108l847 427l-847 431v108l960 -497v-82z" />
<glyph unicode="?" horiz-adv-x="1016" d="M469 385q-90 75 -90 174q0 58 23.5 107t61 85t83.5 68.5t91.5 65t83.5 66.5t61.5 81t23.5 101q0 101 -78 169t-216 68q-134 0 -224 -50.5t-162 -146.5l-79 80q52 71 119 121t157 79.5t195 29.5q96 0 176 -27t133 -73t81.5 -107t28.5 -130q0 -68 -24.5 -126t-64 -98.5 t-87 -77t-95.5 -68.5t-87.5 -64t-64 -73t-24.5 -87q0 -26 17.5 -57.5t47.5 -53.5zM489 -21q-39 0 -67.5 29.5t-28.5 68.5q0 25 13 46.5t35 34.5t48 13q39 0 67.5 -28t28.5 -66q0 -39 -28.5 -68.5t-67.5 -29.5z" />
<glyph unicode="@" horiz-adv-x="1715" d="M771 -153q-147 0 -276 53.5t-220.5 145t-144.5 219t-53 270.5q0 117 33 229t91 206.5t140 174.5t177.5 135.5t206 86.5t222.5 31q151 0 281 -55t219 -150t139.5 -225t50.5 -276q0 -119 -30 -217.5t-80.5 -160t-113.5 -95t-131 -33.5q-87 0 -139 55t-54 131l-2 13 q-40 -55 -94.5 -99t-124.5 -72t-140 -28q-152 0 -243.5 96t-91.5 255q0 92 29 178t80 153.5t117 119t142.5 79t154.5 27.5q104 0 177.5 -51t107.5 -129l28 142h107l-129 -617q-4 -26 -4 -42q0 -37 15 -65t40 -42t55 -14q19 0 41 6t46.5 20.5t48 36t45 55.5t37.5 75.5 t25.5 99.5t9.5 125q0 135 -45.5 252t-127 201t-198.5 132.5t-254 48.5q-90 0 -178.5 -22t-166 -63t-147.5 -96.5t-124.5 -125t-95 -147t-61.5 -164t-21 -173.5q0 -131 47.5 -246t131 -198t201.5 -131t253 -48q217 0 410 126l37 -55q-213 -138 -456 -138zM749 276 q59 0 115 19.5t101 53.5t80 70.5t64 78.5l70 324q-11 31 -30.5 61t-49.5 58t-74.5 45.5t-95.5 17.5q-86 0 -165 -39.5t-135 -103.5t-89.5 -147.5t-33.5 -169.5q0 -78 28 -138t83.5 -95t131.5 -35z" />
<glyph unicode="A" horiz-adv-x="1417" d="M1385 0h-145l-144 360h-774l-144 -360h-145l598 1462h155zM1054 473l-346 855l-344 -855h690z" />
<glyph unicode="B" horiz-adv-x="1344" d="M795 0h-613v1462h600q185 0 294.5 -100.5t109.5 -272.5q0 -66 -21.5 -125.5t-58 -101.5t-82 -69.5t-95.5 -38.5q117 -18 201 -124t84 -235q0 -183 -112 -289t-307 -106zM767 807q137 0 212 75.5t75 193.5q0 57 -18.5 106t-54 86t-90.5 58.5t-124 21.5h-460v-541h460z M776 113q143 0 225 78t82 212q0 57 -20 108.5t-57 92t-97 64.5t-133 24h-469v-579h469z" />
<glyph unicode="C" horiz-adv-x="1472" d="M868 -27q-154 0 -290.5 55.5t-235.5 153.5t-157 240.5t-58 307.5t58 307t157 240t235.5 153.5t290.5 55.5q324 0 533 -259l-106 -68q-71 97 -184.5 155t-242.5 58q-128 0 -240.5 -47.5t-193.5 -130.5t-128 -203.5t-47 -260.5q0 -139 47 -259t128 -204t193.5 -131.5 t240.5 -47.5q129 0 242.5 57.5t184.5 155.5l106 -67q-211 -261 -533 -261z" />
<glyph unicode="D" horiz-adv-x="1516" d="M648 0h-466v1462h466q134 0 251 -37.5t205.5 -105t152.5 -158.5t97 -201t33 -230q0 -152 -52.5 -285.5t-146.5 -232t-233.5 -155.5t-306.5 -57zM648 113q141 0 257 48.5t192 132t117.5 195.5t41.5 240.5t-41 241t-117 196.5t-192 132.5t-258 48.5h-341v-1235h341z" />
<glyph unicode="E" horiz-adv-x="1235" d="M1109 0h-927v1462h927v-114h-802v-541h787v-115h-787v-579h802v-113z" />
<glyph unicode="F" horiz-adv-x="1187" d="M307 0h-125v1462h927v-114h-802v-541h787v-115h-787v-692z" />
<glyph unicode="G" horiz-adv-x="1557" d="M868 -29q-153 0 -289 55.5t-235.5 154t-158 241t-58.5 308t58.5 308t158.5 240.5t235.5 153t288.5 55q331 0 550 -250l-94 -68q-79 94 -199 149t-257 55q-128 0 -240.5 -47.5t-193.5 -130.5t-128 -203.5t-47 -260.5q0 -139 47 -259.5t128 -204.5t193.5 -132t240.5 -48 q69 0 136.5 15.5t121.5 42.5t96 56.5t75 62.5v350h-552v112h677v-510q-66 -74 -149.5 -127.5t-188 -85t-216.5 -31.5z" />
<glyph unicode="H" horiz-adv-x="1539" d="M1361 0h-127v694h-927v-694h-125v1462h125v-653h927v653h127v-1462z" />
<glyph unicode="I" horiz-adv-x="487" d="M307 0h-125v1462h125v-1462z" />
<glyph unicode="J" horiz-adv-x="1029" d="M406 -27q-120 0 -212 43.5t-163 136.5l76 94q122 -159 292 -159q148 0 235 92.5t87 242.5v1039h128v-1039q0 -112 -35 -199t-96 -141t-140.5 -82t-171.5 -28z" />
<glyph unicode="K" horiz-adv-x="1284" d="M1232 0h-161l-602 688l-162 -178v-510h-125v1462h125v-801l705 801h161l-623 -697z" />
<glyph unicode="L" horiz-adv-x="1104" d="M1014 0h-832v1462h125v-1349h707v-113z" />
<glyph unicode="M" horiz-adv-x="1730" d="M1549 0h-127v1290l-533 -1290h-48l-534 1290v-1290h-125v1462h186l498 -1205l495 1205h188v-1462z" />
<glyph unicode="N" horiz-adv-x="1531" d="M1350 0h-123l-920 1256v-1256h-125v1462h127l916 -1238v1238h125v-1462z" />
<glyph unicode="O" horiz-adv-x="1673" d="M837 -27q-158 0 -291.5 58.5t-225 160t-142.5 240.5t-51 298t51 298t142.5 240.5t225 159.5t291.5 58q157 0 290.5 -58t225 -159.5t143 -240.5t51.5 -298t-51.5 -298.5t-143 -240.5t-225 -159.5t-290.5 -58.5zM837 88q129 0 238 48.5t183.5 134t116 204t41.5 255.5 q0 138 -41.5 257t-116 203.5t-183.5 133t-238 48.5q-131 0 -240 -48t-183 -133.5t-114.5 -203.5t-40.5 -257q0 -110 25.5 -208t75.5 -177t119.5 -137t161 -89t196.5 -31z" />
<glyph unicode="P" d="M307 0h-125v1462h548q102 0 186.5 -34.5t139.5 -93t85 -136t30 -164t-30.5 -164t-85.5 -136t-139.5 -93t-185.5 -34.5h-423v-607zM717 721q144 0 233 87.5t89 226t-89 226t-233 87.5h-410v-627h410z" />
<glyph unicode="Q" horiz-adv-x="1673" d="M837 -27q-158 0 -291.5 58.5t-225 160t-142.5 240.5t-51 298t51 298t142.5 240.5t225 159.5t291.5 58q157 0 290.5 -58t225 -159.5t143 -240.5t51.5 -298q0 -164 -54.5 -305.5t-153.5 -244.5l154 -161l-86 -78l-156 160q-174 -128 -414 -128zM837 88q188 0 331 100 l-225 235l87 81l226 -236q51 58 86.5 129.5t54.5 156t19 176.5q0 138 -41.5 257t-116 203.5t-183.5 133t-238 48.5q-131 0 -240 -48t-183 -133.5t-114.5 -203.5t-40.5 -257q0 -110 25.5 -208t75.5 -177t119.5 -137t161 -89t196.5 -31z" />
<glyph unicode="R" horiz-adv-x="1301" d="M1190 0h-151l-410 605h-322v-605h-125v1462h546q126 0 226.5 -50.5t159.5 -148.5t59 -228q0 -97 -33 -176.5t-89 -131.5t-128.5 -81.5t-155.5 -32.5zM717 719q144 0 234 88.5t90 227.5q0 138 -90 225.5t-234 87.5h-410v-629h410z" />
<glyph unicode="S" horiz-adv-x="1272" d="M636 -27q-174 0 -311 63t-224 171l81 94q80 -93 195.5 -153t260.5 -60q86 0 154.5 18.5t111 47.5t70 68.5t38.5 78t11 78.5q0 43 -13 79.5t-30.5 63t-53 51t-63 40t-79 33.5t-81.5 27t-90 26q-65 18 -98.5 28t-92 31.5t-90 40t-72.5 49t-62 64.5t-36 81t-15 103 q0 87 37.5 161t102.5 124t153 77.5t187 27.5q315 0 495 -206l-83 -92q-77 93 -184 138.5t-234 45.5q-147 0 -245 -76.5t-98 -193.5q0 -35 12 -66t27.5 -53t48 -43.5t57.5 -34.5t72.5 -29.5t75.5 -25t84 -24.5q68 -19 103.5 -29.5t97.5 -33.5t96.5 -43.5t79 -54.5t67 -72 t39.5 -90.5t17 -115.5q0 -59 -16 -115t-54 -111.5t-95.5 -96t-148.5 -66t-205 -25.5z" />
<glyph unicode="T" horiz-adv-x="1235" d="M682 0h-128v1348h-477v114h1082v-114h-477v-1348z" />
<glyph unicode="U" horiz-adv-x="1502" d="M751 -27q-184 0 -313 72.5t-192.5 203.5t-63.5 312v901h127v-899q0 -148 50.5 -254.5t150 -163.5t241.5 -57q143 0 243 57t150 163.5t50 254.5v899h127v-901q0 -276 -146 -432t-424 -156z" />
<glyph unicode="V" horiz-adv-x="1417" d="M786 0h-155l-598 1462h145l530 -1322l532 1322h145z" />
<glyph unicode="W" horiz-adv-x="1899" d="M1442 0h-140l-351 1256l-351 -1256h-140l-418 1462h140l353 -1287l360 1287h113l357 -1287l353 1287h141z" />
<glyph unicode="X" horiz-adv-x="1412" d="M1372 0h-155l-512 659l-508 -659h-157l589 749l-556 713h159l473 -621l476 621h158l-555 -711z" />
<glyph unicode="Y" horiz-adv-x="1353" d="M740 0h-127v625l-580 837h151l493 -719l494 719h150l-581 -837v-625z" />
<glyph unicode="Z" horiz-adv-x="1272" d="M1163 0h-1054v109l882 1239h-882v114h1039v-107l-880 -1242h895v-113z" />
<glyph unicode="[" horiz-adv-x="498" d="M462 -416h-381v1902h381v-95h-284v-1713h284v-94z" />
<glyph unicode="\" horiz-adv-x="617" d="M519 -44l-519 1549h98l520 -1549h-99z" />
<glyph unicode="]" horiz-adv-x="498" d="M418 -416h-381v94h285v1713h-285v95h381v-1902z" />
<glyph unicode="^" horiz-adv-x="937" d="M897 730h-106l-322 642l-322 -642h-105l381 732h92z" />
<glyph unicode="_" horiz-adv-x="1235" d="M1242 -182h-1248v94h1248v-94z" />
<glyph unicode="`" horiz-adv-x="472" d="M473 1219h-96l-377 315h136z" />
<glyph unicode="a" horiz-adv-x="1141" d="M964 0h-113v125q-140 -152 -360 -152q-69 0 -134.5 24t-118.5 67t-85 111.5t-32 150.5q0 84 31.5 152t84.5 110.5t118.5 65.5t135.5 23q224 0 360 -151v214q0 114 -81.5 179t-204.5 65q-99 0 -179 -37t-152 -119l-63 79q84 91 181.5 134.5t226.5 43.5q82 0 151 -20.5 t122 -61t82.5 -106.5t29.5 -152v-745zM531 63q97 0 180.5 37.5t139.5 108.5v232q-56 71 -139.5 108.5t-180.5 37.5q-130 0 -210 -74t-80 -189q0 -113 80 -187t210 -74z" />
<glyph unicode="b" d="M291 265q48 -78 145.5 -133t203.5 -55q115 0 200 59.5t127.5 161t42.5 231t-42.5 231.5t-127.5 162t-200 60q-106 0 -203.5 -57t-145.5 -136v-524zM291 0h-113v1462h113v-575q65 92 161.5 145t206.5 53q140 0 247.5 -69t167 -195.5t59.5 -291.5q0 -168 -60 -294.5 t-167 -194t-247 -67.5q-113 0 -211 55t-157 141v-169z" />
<glyph unicode="c" horiz-adv-x="1081" d="M631 -27q-114 0 -211 44t-163 119t-103 177t-37 217.5t37 217t103 176.5t163 118t211 43q130 0 217.5 -46t157.5 -134l-79 -70q-109 147 -289 147q-121 0 -212.5 -60t-139 -162t-47.5 -229.5t47.5 -230t139 -163t212.5 -60.5q179 0 289 149l79 -71q-70 -89 -157.5 -135.5 t-217.5 -46.5z" />
<glyph unicode="d" d="M1074 0h-116v169q-39 -56 -93.5 -99.5t-126.5 -70t-148 -26.5q-140 0 -247 67.5t-166.5 194t-59.5 294.5q0 124 34.5 228t96.5 176t149.5 112t192.5 40q111 0 206.5 -52.5t161.5 -145.5v575h116v-1462zM609 77q107 0 204 54.5t145 133.5v524q-48 80 -145 136.5t-204 56.5 q-114 0 -199 -60t-128 -162t-43 -231.5t43 -231t127.5 -161t199.5 -59.5z" />
<glyph unicode="e" horiz-adv-x="1242" d="M646 -27q-153 0 -273.5 71t-188 198.5t-67.5 288.5q0 113 38.5 215.5t106 177t162.5 118t203 43.5q118 0 213.5 -45t157.5 -122t95.5 -178.5t33.5 -216.5v-30h-886q3 -69 23 -132t56 -115.5t84.5 -91t113 -60t137.5 -21.5q101 0 190.5 37.5t156.5 108.5l58 -75 q-164 -171 -414 -171zM1010 583q-1 56 -15 111.5t-45 108.5t-75 93.5t-108.5 65.5t-141.5 25q-61 0 -114.5 -17.5t-94 -47t-73.5 -68.5t-54.5 -84.5t-33.5 -92.5t-14 -94h769z" />
<glyph unicode="f" horiz-adv-x="579" d="M328 0h-113v958h-175v100h175v97q0 154 76.5 241t210.5 87q60 0 106.5 -16t94.5 -58l-55 -79q-58 55 -135 55q-60 0 -101.5 -27t-62.5 -78.5t-21 -124.5v-97h216v-100h-216v-958z" />
<glyph unicode="g" horiz-adv-x="1248" d="M596 -429q-139 0 -232.5 33.5t-183.5 125.5l65 88q68 -81 149.5 -115t201.5 -34q75 0 138.5 19.5t114.5 59t80 106t29 155.5v166q-60 -85 -158 -140.5t-210 -55.5q-140 0 -247 66.5t-166.5 192.5t-59.5 293q0 165 59.5 291t166.5 194.5t247 68.5q111 0 206.5 -52.5 t161.5 -145.5v171h116v-1047q0 -95 -25 -170.5t-68.5 -125t-104.5 -82.5t-130.5 -47.5t-149.5 -14.5zM609 81q106 0 203.5 56.5t145.5 136.5v515q-48 80 -145.5 136.5t-203.5 56.5q-115 0 -199.5 -59.5t-127.5 -161t-43 -230.5t43 -230.5t127.5 -160.5t199.5 -59z" />
<glyph unicode="h" horiz-adv-x="1182" d="M1006 0h-114v721q0 75 -18 126.5t-53 80.5t-80 41.5t-105 12.5q-99 0 -195.5 -53t-149.5 -129v-800h-113v1462h113v-563q63 75 168.5 130.5t213.5 55.5q165 0 249 -82.5t84 -257.5v-745z" />
<glyph unicode="i" horiz-adv-x="468" d="M234 1225q-35 0 -61 26t-26 62q0 23 12 43t32.5 31t42.5 11q37 0 62.5 -24.5t25.5 -60.5t-26 -62t-62 -26zM291 0h-113v1058h113v-1058z" />
<glyph unicode="j" horiz-adv-x="468" d="M234 1225q-35 0 -61 26t-26 62q0 23 12 43t32.5 31t42.5 11q37 0 62.5 -24.5t25.5 -60.5t-26 -62t-62 -26zM4 -429q-70 0 -119 19t-98 61l50 90q68 -72 157 -72q53 0 93 19.5t65.5 64.5t25.5 111v1194h113v-1194q0 -144 -74.5 -218.5t-212.5 -74.5z" />
<glyph unicode="k" horiz-adv-x="1106" d="M1065 0h-153l-423 504l-198 -186v-318h-113v1462h113v-1008l625 604h151l-492 -477z" />
<glyph unicode="l" horiz-adv-x="468" d="M291 0h-113v1462h113v-1462z" />
<glyph unicode="m" horiz-adv-x="1728" d="M1552 0h-115v740q0 116 -52 179t-160 63q-83 0 -170.5 -53t-132.5 -127v-802h-115v740q0 242 -213 242q-81 0 -167.5 -53.5t-135.5 -128.5v-800h-113v1058h113v-159q18 27 51.5 57.5t78 60t101.5 49t111 19.5q116 0 186 -57.5t93 -142.5q30 51 83 95.5t124.5 74.5 t143.5 30q289 0 289 -322v-763z" />
<glyph unicode="n" horiz-adv-x="1182" d="M1006 0h-114v717q0 74 -18 126.5t-53 82.5t-80 43t-105 13q-99 0 -195.5 -53t-149.5 -129v-800h-113v1058h113v-159q63 75 168.5 130.5t213.5 55.5q333 0 333 -345v-740z" />
<glyph unicode="o" d="M625 -27q-114 0 -210 44t-161 119t-101 177t-36 217.5t36 217t101 176.5t161 118t210 43q92 0 173 -28t142 -78.5t105.5 -119t67 -152.5t22.5 -176.5t-22.5 -176.5t-67 -153t-105.5 -120t-142 -79.5t-173 -28.5zM625 77q90 0 165 37.5t122.5 101t73.5 144.5t26 171 q0 88 -26 169t-73.5 144t-122.5 100.5t-165 37.5q-60 0 -113.5 -17t-95.5 -47.5t-76 -73t-56 -92.5t-33.5 -106.5t-11.5 -114.5q0 -71 16 -138t49 -124t78.5 -100t108 -67.5t134.5 -24.5z" />
<glyph unicode="p" horiz-adv-x="1242" d="M659 -27q-110 0 -206.5 53t-161.5 145v-574h-113v1461h113v-166q59 85 157 139t211 54q213 0 343.5 -150.5t130.5 -403.5q0 -167 -59.5 -293.5t-167 -195.5t-247.5 -69zM640 77q87 0 157.5 35t116.5 96t71 143.5t25 179.5q0 129 -42.5 230.5t-127.5 161t-200 59.5 q-106 0 -203.5 -55t-145.5 -134v-523q48 -80 145.5 -136.5t203.5 -56.5z" />
<glyph unicode="q" horiz-adv-x="1242" d="M602 77q106 0 203.5 56.5t145.5 136.5v523q-48 79 -145 134t-204 55q-115 0 -200 -59.5t-127.5 -161t-42.5 -231t42.5 -231.5t127.5 -162t200 -60zM581 -27q-139 0 -246 68.5t-166.5 195.5t-59.5 294q0 252 130 403t342 151q115 0 213 -54t157 -139v166h114v-1461h-114 v574q-65 -92 -162 -145t-208 -53z" />
<glyph unicode="r" horiz-adv-x="694" d="M291 0h-113v1058h113v-182q72 95 162.5 150t194.5 55v-125q-19 4 -56 4q-52 0 -114 -28t-112.5 -71.5t-74.5 -89.5v-771z" />
<glyph unicode="s" horiz-adv-x="1005" d="M493 -27q-130 0 -230 40.5t-177 126.5l67 86q53 -68 144.5 -111.5t197.5 -43.5q131 0 207 59.5t76 154.5q0 39 -18 70t-41 50.5t-70.5 38t-78.5 27.5t-93 24q-51 13 -77 20.5t-72 22.5t-71 29t-57.5 36.5t-49.5 48t-29 61.5t-12 78q0 126 102 210t276 84q238 0 379 -156 l-64 -80q-46 64 -129 102t-186 38q-121 0 -193.5 -55t-72.5 -139q0 -34 17 -61.5t38 -45t65 -34.5t73.5 -25t87.5 -22q41 -11 62 -16.5t60 -17t60.5 -20.5t53.5 -25t50.5 -31.5t40.5 -38t33 -47.5t19 -57.5t8 -68.5q0 -43 -11 -82.5t-32.5 -74.5t-55 -63.5t-76.5 -48.5 t-99.5 -31.5t-121.5 -11.5z" />
<glyph unicode="t" horiz-adv-x="602" d="M408 -27q-104 0 -156.5 60t-52.5 170v755h-174v100h174v290h117v-290h215v-100h-215v-737q0 -43 11.5 -75t36 -50.5t61.5 -18.5q36 0 67.5 14.5t51.5 35.5l43 -87q-34 -33 -75.5 -50t-103.5 -17z" />
<glyph unicode="u" horiz-adv-x="1182" d="M1006 0h-114v155q-71 -78 -172 -130t-210 -52q-166 0 -249 82.5t-83 258.5v744h113v-719q0 -75 18 -127.5t53.5 -81t80 -41t105.5 -12.5q98 0 193.5 51t150.5 125v805h114v-1058z" />
<glyph unicode="v" horiz-adv-x="1053" d="M592 0h-130l-447 1058h127l387 -924l381 924h129z" />
<glyph unicode="w" horiz-adv-x="1575" d="M1194 0h-109l-296 905l-298 -905h-110l-344 1058h123l281 -898l297 898h99l298 -898l281 898h123z" />
<glyph unicode="x" horiz-adv-x="1048" d="M1012 0h-136l-350 467l-353 -467h-136l419 544l-395 514h136l329 -435l327 435h136l-395 -514z" />
<glyph unicode="y" horiz-adv-x="1053" d="M107 -414l20 105q40 -17 92 -17q56 0 93 28t67 101l83 188l-447 1067h127l387 -924l381 924h129l-548 -1290q-83 -197 -272 -197q-61 0 -112 15z" />
<glyph unicode="z" horiz-adv-x="1027" d="M905 0h-782v94l626 864h-626v100h774v-92l-634 -865h642v-101z" />
<glyph unicode="{" horiz-adv-x="544" d="M508 -416h-136q-46 0 -90 19t-78.5 53.5t-55.5 86t-21 110.5v482q0 65 -29.5 110.5t-84.5 45.5v88q55 0 84.5 45t29.5 110v480q0 60 21 112t55.5 86.5t78.5 54t90 19.5h136v-95h-136q-60 0 -103 -50t-43 -127v-486q0 -150 -101 -193q101 -43 101 -194v-485q0 -76 43 -127 t103 -51h136v-94z" />
<glyph unicode="|" horiz-adv-x="454" d="M276 -44h-94v1549h94v-1549z" />
<glyph unicode="}" horiz-adv-x="544" d="M37 -416v94h136q61 0 104 51t43 127v485q0 151 101 194q-101 43 -101 193v486q0 77 -43 127t-104 50h-136v95h136q47 0 91 -19.5t78 -54t55 -86.5t21 -112v-480q0 -65 30 -110t85 -45v-88q-37 0 -63.5 -22.5t-39 -57t-12.5 -76.5v-482q0 -59 -21 -110.5t-55 -86 t-78 -53.5t-91 -19h-136z" />
<glyph unicode="~" horiz-adv-x="1092" d="M941 1462l94 -11q-6 -61 -14 -112.5t-20.5 -105t-28 -96t-38 -80.5t-50 -63.5t-64 -40.5t-80.5 -15q-48 0 -86 18.5t-61.5 49t-44 69t-33 78.5t-29 78.5t-32.5 69t-42 48.5t-59 18q-84 0 -131 -110.5t-67 -321.5l-96 14q7 71 17 130.5t26 119t38.5 104.5t52.5 81 t70.5 54.5t89.5 18.5q48 0 86.5 -18.5t62 -49t44 -69t33.5 -79t29 -79.5t32 -69.5t42 -49t58 -18.5q84 0 131.5 111t69.5 326z" />
<glyph unicode="&#xa1;" horiz-adv-x="479" d="M167 -403l28 1080h90l31 -1080h-149zM144 984q0 38 28 66.5t67 28.5t68.5 -28.5t29.5 -66.5q0 -25 -13.5 -47.5t-36.5 -36t-48.5 -13.5t-47.5 13.5t-34.5 36t-12.5 47.5z" />
<glyph unicode="&#xa2;" horiz-adv-x="1081" d="M563 -219v198q-134 16 -236.5 93t-156 196.5t-53.5 262.5q0 142 53.5 260.5t156 195.5t236.5 94v157h98v-153q80 -4 145 -28.5t110.5 -61t89.5 -90.5l-79 -70q-104 137 -266 147v-905q161 7 266 149l79 -71q-66 -83 -147 -129.5t-198 -52.5v-192h-98zM239 531 q0 -174 87 -297.5t237 -150.5v892q-151 -28 -237.5 -149.5t-86.5 -294.5z" />
<glyph unicode="&#xa3;" horiz-adv-x="1106" d="M40 585v92h274q-11 12 -39.5 42.5t-42 46t-36.5 45t-35.5 53.5t-26 56.5t-19.5 67.5t-6 75q0 83 36.5 160t98.5 134.5t151 91.5t188 34q135 0 245.5 -63.5t166.5 -172.5l-100 -64q-33 77 -116 134t-187 57q-95 0 -173.5 -36t-127 -108.5t-48.5 -169.5q0 -52 12.5 -98 t37.5 -85t48 -68t57.5 -68t53.5 -64h330v-92h-276q23 -62 23 -116q0 -43 -9.5 -81.5t-25.5 -69.5t-39.5 -59.5t-48 -50.5t-55.5 -45q56 19 118 19q39 0 77 -10t67.5 -24t59 -28.5t64 -24t70.5 -9.5q70 0 131 28t87 61l60 -102q-49 -47 -121 -75.5t-162 -28.5 q-54 0 -98.5 10.5t-74.5 26t-59.5 30.5t-70 26t-89.5 11q-91 0 -259 -88l-48 105q101 43 171.5 101.5t105 124t34.5 136.5q0 61 -35 133h-339z" />
<glyph unicode="&#xa4;" horiz-adv-x="1288" d="M642 211q-195 0 -331 115l-171 -171l-75 73l174 173q-103 142 -103 329q0 192 105 328l-178 180l75 73l176 -176q131 112 328 112q196 0 331 -112l173 174l75 -73l-176 -176q105 -139 105 -330q0 -192 -105 -329l176 -173l-75 -73l-171 169q-134 -113 -333 -113zM642 318 q92 0 167 34t122.5 91.5t73 131t25.5 155.5q0 81 -25.5 154t-73 130.5t-122.5 91.5t-167 34q-90 0 -164.5 -34t-122.5 -91.5t-74 -131t-26 -153.5q0 -82 26 -155.5t74 -131t122.5 -91.5t164.5 -34z" />
<glyph unicode="&#xa5;" horiz-adv-x="1353" d="M740 0h-127v276h-565v90h565v259h-565v92h502l-517 745h151l493 -719l494 719h150l-516 -745h504v-92h-569v-259h569v-90h-569v-276z" />
<glyph unicode="&#xa6;" horiz-adv-x="454" d="M276 -44h-94v692h94v-692zM276 813h-94v692h94v-692z" />
<glyph unicode="&#xa7;" horiz-adv-x="1010" d="M889 682q0 -193 -210 -281q104 -38 157 -100.5t53 -164.5q0 -147 -108.5 -230.5t-287.5 -83.5q-76 0 -140 13.5t-112.5 38.5t-83.5 52.5t-71 64.5l67 80q54 -68 140 -113.5t200 -45.5q126 0 205.5 59.5t79.5 160.5q0 40 -18.5 72t-41.5 52t-71 39t-79 28t-93 25 q-51 14 -77.5 21t-72 22.5t-70 29.5t-57 36.5t-49 48t-28.5 61t-12 77.5q0 57 21.5 105t59 82.5t85 58t104.5 37.5q-132 39 -201 100.5t-69 166.5q0 58 25 110t71.5 92t119.5 63.5t162 23.5q131 0 225 -44t151 -113l-61 -73q-54 69 -137.5 105t-175.5 36q-117 0 -192.5 -56 t-75.5 -146q0 -35 17 -63.5t38.5 -45.5t65.5 -34t73.5 -25t88.5 -22q52 -13 79.5 -20t75.5 -23t74 -30.5t60.5 -39t52 -52.5t30.5 -68t13 -87zM776 673q0 40 -17 73.5t-41.5 55t-64.5 40t-72 28.5t-79 22q-64 -16 -112.5 -36.5t-80.5 -42.5t-51.5 -48.5t-28 -54t-8.5 -59.5 q0 -22 6 -41t14.5 -34t26 -29t31.5 -24t40 -20.5t43.5 -17t50.5 -15.5t51.5 -14t55.5 -14q21 -5 32 -8q101 43 152.5 100t51.5 139z" />
<glyph unicode="&#xa8;" horiz-adv-x="573" d="M592 1317q0 -33 -24.5 -57t-57.5 -24q-21 0 -40 11t-30 30t-11 40q0 33 24 57t57 24t57.5 -24t24.5 -57zM144 1317q0 -33 -24 -57t-57 -24t-56.5 24t-23.5 57t23.5 57t56.5 24t57 -24t24 -57z" />
<glyph unicode="&#xa9;" horiz-adv-x="1704" d="M1608 732q0 -154 -59.5 -293.5t-160.5 -241t-241 -162t-294 -60.5q-153 0 -293.5 60.5t-241.5 162t-161.5 241.5t-60.5 293q0 154 60.5 294t161.5 241.5t241 161t294 59.5t294 -59.5t241 -161t160.5 -241.5t59.5 -294zM1547 732q0 113 -35 219t-99.5 191.5t-149.5 149.5 t-191 99t-219 35q-141 0 -269.5 -55t-222 -148t-149 -221.5t-55.5 -269.5q0 -112 35.5 -218t100 -191.5t150.5 -150t191.5 -100t218.5 -35.5q141 0 269.5 55.5t221.5 149t148 222t55 268.5zM1125 456l48 -48q-125 -145 -318 -145q-75 0 -144.5 23.5t-125.5 66.5t-98 101 t-65 130.5t-23 151.5q0 99 36 186t97 148t145 97t178 36q196 0 318 -143l-51 -48q-42 57 -115.5 91t-151.5 34q-60 0 -117 -18t-105 -53.5t-84.5 -84t-57 -112.5t-20.5 -135q0 -86 31.5 -162.5t84.5 -129.5t123 -83.5t145 -30.5q79 0 153 35t117 93z" />
<glyph unicode="&#xaa;" horiz-adv-x="821" d="M679 715h-92v80q-91 -98 -240 -98q-63 0 -118.5 26t-91.5 79.5t-36 124.5t36 123.5t91 77t119 24.5q148 0 240 -96v134q0 48 -26.5 83.5t-68 52.5t-91.5 17q-62 0 -119.5 -26t-99.5 -79l-48 61q38 41 79.5 67.5t91 40t107.5 13.5q57 0 104 -13t84.5 -40t58 -72t20.5 -105 v-475zM381 763q62 0 117 24t89 68v142q-33 43 -88.5 66.5t-117.5 23.5q-82 0 -134 -45.5t-52 -114.5q0 -73 52 -118.5t134 -45.5z" />
<glyph unicode="&#xab;" horiz-adv-x="880" d="M815 138h-125l-351 395l351 387h125l-351 -387zM541 138h-125l-351 395l351 387h125l-351 -387z" />
<glyph unicode="&#xac;" horiz-adv-x="1092" d="M1023 993v-520h-94v428h-866v92h960z" />
<glyph unicode="&#xad;" horiz-adv-x="656" d="M592 477h-527v106h527v-106z" />
<glyph unicode="&#xae;" horiz-adv-x="1081" d="M1006 1019q0 -95 -36.5 -181t-98.5 -148t-148 -99t-182 -37q-75 0 -146 23.5t-128 66.5t-100 100t-66.5 128t-23.5 147q0 95 36.5 181t99 148t148.5 98.5t180 36.5q96 0 182 -36.5t148 -98.5t98.5 -148t36.5 -181zM947 1019q0 111 -54.5 204t-147.5 147t-203.5 54 t-203.5 -54t-147.5 -147t-54.5 -204q0 -82 32 -157t86.5 -129.5t129.5 -87t157 -32.5q110 0 203.5 55t148 148.5t54.5 202.5zM754 751h-83l-138 211h-102v-211h-65v533h217q69 0 116.5 -44.5t47.5 -117.5q0 -41 -16.5 -74t-40 -50t-44.5 -25.5t-35 -8.5zM679 1122 q0 43 -30 72t-66 29h-152v-198h152q36 0 66 29t30 68z" />
<glyph unicode="&#xaf;" horiz-adv-x="795" d="M795 1265h-795v80h795v-80z" />
<glyph unicode="&#xb0;" horiz-adv-x="617" d="M563 1227q0 -105 -74.5 -178.5t-181.5 -73.5q-105 0 -178.5 73.5t-73.5 178.5q0 106 73.5 181t178.5 75q106 0 181 -75t75 -181zM477 1227q0 71 -50.5 121t-119.5 50q-45 0 -83.5 -22.5t-61 -62t-22.5 -86.5q0 -45 22.5 -83.5t61 -61t83.5 -22.5q69 0 119.5 49.5 t50.5 117.5z" />
<glyph unicode="&#xb1;" horiz-adv-x="1086" d="M1023 708h-429v-478h-99v478h-432v89h432v466h99v-466h429v-89zM1023 0h-960v90h960v-90z" />
<glyph unicode="&#xb2;" horiz-adv-x="841" d="M730 922h-617v77q105 75 177.5 131t141 116.5t109 109.5t64.5 100.5t24 99.5q0 45 -17.5 79.5t-47 54.5t-65 29.5t-74.5 9.5q-54 0 -103 -15.5t-85 -41t-59 -57.5l-59 62q50 64 132 100t176 36q44 0 85.5 -9t80.5 -28.5t68.5 -48.5t46.5 -72t17 -95q0 -56 -24 -113.5 t-63.5 -109t-102.5 -110.5t-126 -109t-150 -112h471v-84z" />
<glyph unicode="&#xb3;" horiz-adv-x="841" d="M732 1159q0 -112 -85 -182t-231 -70q-108 0 -191 40t-124 103l56 61q42 -56 109.5 -88t147.5 -32q102 0 160.5 45t58.5 125q0 45 -18.5 79t-52.5 53.5t-76 29t-93 9.5q-71 0 -84 -2v86q15 -3 84 -3q65 0 114.5 15.5t81.5 51.5t32 91q0 74 -61 116t-150 42 q-76 0 -134 -26.5t-109 -83.5l-56 60q51 60 129 97t176 37q131 0 216 -62.5t85 -170.5q0 -47 -19 -86t-49 -62.5t-62.5 -37.5t-65.5 -18q26 -2 53.5 -11t56 -27t51 -42t36.5 -60t14 -77z" />
<glyph unicode="&#xb4;" horiz-adv-x="472" d="M473 1534l-377 -315h-96l337 315h136z" />
<glyph unicode="&#xb5;" horiz-adv-x="1213" d="M291 96v-499h-113v1461h113v-719q0 -138 68 -202t191 -64q96 0 191 52.5t151 127.5v805h114v-841q0 -65 27 -102.5t80 -37.5q27 0 44 4l9 -100q-30 -8 -68 -8q-178 0 -203 190q-65 -82 -160 -136t-194 -54q-183 0 -250 123z" />
<glyph unicode="&#xb6;" horiz-adv-x="983" d="M807 -219h-84v1599h-204v-1599h-82v927q-103 0 -190 50.5t-137.5 137t-50.5 189.5t50.5 189.5t137.5 137t190 50.5h370v-1681z" />
<glyph unicode="&#xb7;" horiz-adv-x="479" d="M337 537q0 -39 -29.5 -67.5t-69 -28.5t-68 28.5t-28.5 67.5q0 38 28.5 66t68 28t69 -28t29.5 -66z" />
<glyph unicode="&#xb8;" horiz-adv-x="433" d="M213 -414q-64 0 -122.5 18t-90.5 45l35 71q76 -61 176 -61q60 0 101 26t41 72q0 41 -22.5 63.5t-67.5 22.5q-55 0 -88 -38l-62 35l69 185h83l-56 -150q33 27 80 27q65 0 105 -40t40 -105q0 -50 -29.5 -89.5t-80 -60.5t-111.5 -21z" />
<glyph unicode="&#xb9;" horiz-adv-x="468" d="M337 922h-101v748l-140 -152l-59 65l212 216h88v-877z" />
<glyph unicode="&#xba;" horiz-adv-x="887" d="M443 697q-102 0 -182 48.5t-122.5 131t-42.5 181.5q0 101 43 183t122.5 130.5t181.5 48.5q104 0 184 -48.5t122 -130.5t42 -183q0 -100 -42 -181.5t-122 -130.5t-184 -49zM443 778q116 0 183.5 80.5t67.5 199.5t-67 198.5t-184 79.5q-114 0 -181 -79.5t-67 -198.5 t67 -199.5t181 -80.5z" />
<glyph unicode="&#xbb;" horiz-adv-x="880" d="M541 533l-351 -395h-125l351 395l-351 387h125zM815 533l-351 -395h-125l351 395l-351 387h125z" />
<glyph unicode="&#xbc;" horiz-adv-x="1625" d="M337 585h-101v747l-140 -151l-59 63l212 218h88v-877zM1537 234h-132v-234h-96v234h-431v77l393 565h134v-560h132v-82zM1309 316v470l-330 -470h330zM1244 1462l-935 -1462h-98l933 1462h100z" />
<glyph unicode="&#xbd;" horiz-adv-x="1710" d="M337 585h-101v747l-140 -151l-59 63l212 218h88v-877zM1600 0h-616v77q64 46 114 83t100.5 77t88.5 73.5t73.5 69t60 67t42.5 63.5t27 62.5t9 60.5q0 46 -17.5 80.5t-47 54t-65 29.5t-74.5 10q-80 0 -145.5 -32.5t-101.5 -82.5l-59 62q49 65 131.5 100t176.5 35 q44 0 85.5 -8.5t80.5 -28t68 -48t46.5 -71.5t17.5 -95q0 -40 -12.5 -81t-33.5 -79t-55 -79t-71.5 -78t-87.5 -79t-97.5 -78.5t-108.5 -80.5h471v-83zM1244 1462l-935 -1462h-98l933 1462h100z" />
<glyph unicode="&#xbe;" horiz-adv-x="1882" d="M1792 234h-131v-234h-97v234h-429v77l392 565h134v-560h131v-82zM1564 316v470l-328 -470h328zM1501 1462l-936 -1462h-98l934 1462h100zM732 822q0 -112 -85.5 -182.5t-230.5 -70.5q-108 0 -191 40.5t-124 103.5l56 61q42 -56 109.5 -88.5t147.5 -32.5q68 0 117.5 20 t75.5 59t26 92q0 45 -18.5 79t-52.5 53.5t-76 29t-93 9.5q-71 0 -84 -2v86q15 -3 84 -3q65 0 114.5 15.5t81.5 51.5t32 91q0 74 -61 115.5t-150 41.5q-77 0 -134.5 -26t-108.5 -83l-56 59q51 60 129 96.5t176 36.5q131 0 216 -62.5t85 -169.5q0 -38 -12.5 -71t-33 -55 t-46.5 -39t-52 -26t-52 -12q33 -3 68 -17t68 -39.5t54 -67.5t21 -93z" />
<glyph unicode="&#xbf;" horiz-adv-x="860" d="M548 667q92 -74 92 -174q0 -51 -18.5 -95.5t-48.5 -77t-68.5 -64t-79 -57t-79 -56t-68.5 -61.5t-48.5 -73t-18.5 -90q0 -101 78 -169t217 -68q133 0 222.5 50t160.5 147l79 -80q-79 -109 -197 -169.5t-273 -60.5q-97 0 -176.5 27t-132 73t-81.5 107t-29 130q0 68 25 126 t64 99t87 77t95.5 68.5t87 64.5t64 73t24.5 88q0 26 -17 56.5t-49 52.5zM528.5 1079q39.5 0 69 -29t29.5 -68q0 -38 -29.5 -66.5t-68.5 -28.5q-26 0 -48.5 13t-36 35.5t-13.5 46.5q0 39 29 68t68.5 29z" />
<glyph unicode="&#xc0;" horiz-adv-x="1417" d="M1385 0h-145l-144 360h-774l-144 -360h-145l598 1462h155zM1054 473l-346 855l-344 -855h690zM828 1585h-96l-377 315h136z" />
<glyph unicode="&#xc1;" horiz-adv-x="1417" d="M1385 0h-145l-144 360h-774l-144 -360h-145l598 1462h155zM1054 473l-346 855l-344 -855h690zM1065 1900l-377 -315h-96l337 315h136z" />
<glyph unicode="&#xc2;" horiz-adv-x="1417" d="M987 1585h-88l-189 247l-187 -247h-84l212 315h118zM1385 0h-145l-144 360h-774l-144 -360h-145l598 1462h155zM1054 473l-346 855l-344 -855h690z" />
<glyph unicode="&#xc3;" horiz-adv-x="1417" d="M1385 0h-145l-144 360h-774l-144 -360h-145l598 1462h155zM1054 473l-346 855l-344 -855h690zM843 1580q-33 0 -60.5 12.5t-46 32.5t-34 44t-29.5 48t-28.5 44t-34 32.5t-43.5 12.5q-52 0 -85 -53.5t-33 -159.5h-77q0 128 54.5 210.5t150.5 82.5q33 0 60 -12t45 -32 t33.5 -43.5t29.5 -47.5t28.5 -44t34 -32t43.5 -12q51 0 83 52.5t32 158.5h79q0 -129 -53 -211.5t-149 -82.5z" />
<glyph unicode="&#xc4;" horiz-adv-x="1417" d="M1014 1683q0 -33 -24 -57t-57 -24t-56.5 24t-23.5 57t23.5 57t56.5 24t57 -24t24 -57zM567 1683q0 -33 -23.5 -57t-56.5 -24t-57 24t-24 57t24 57t57 24q21 0 39.5 -11t29.5 -29.5t11 -40.5zM1385 0h-145l-144 360h-774l-144 -360h-145l598 1462h155zM1054 473l-346 855 l-344 -855h690z" />
<glyph unicode="&#xc5;" horiz-adv-x="1417" d="M1385 0h-145l-144 360h-774l-144 -360h-145l598 1462h155zM1054 473l-346 855l-344 -855h690zM713 1514q-88 0 -149.5 61.5t-61.5 149.5q0 85 62 147.5t149 62.5q84 0 144.5 -62.5t60.5 -147.5q0 -88 -60 -149.5t-145 -61.5zM713 1585q57 0 97.5 41t40.5 99t-40.5 99 t-97.5 41q-58 0 -99.5 -41t-41.5 -99t41.5 -99t99.5 -41z" />
<glyph unicode="&#xc6;" horiz-adv-x="2057" d="M1926 0h-927v360h-600l-224 -360h-144l922 1462h973v-114h-799v-541h784v-115h-784v-579h799v-113zM999 473v855l-537 -855h537z" />
<glyph unicode="&#xc7;" horiz-adv-x="1472" d="M855 -406q-64 0 -122 18.5t-91 46.5l35 69q76 -61 176 -61q60 0 101 26.5t41 72.5q0 40 -22.5 62.5t-67.5 22.5q-55 0 -88 -37l-61 35l46 126q-142 12 -266.5 72t-214.5 157.5t-142 233t-52 292.5q0 165 58 307t157 240t235.5 153.5t290.5 55.5q324 0 533 -259l-106 -68 q-71 97 -184.5 155t-242.5 58q-128 0 -240.5 -47.5t-193.5 -130.5t-128 -203.5t-47 -260.5q0 -139 47 -259t128 -204t193.5 -131.5t240.5 -47.5q129 0 242.5 57.5t184.5 155.5l106 -67q-207 -255 -518 -261l-32 -90q33 27 80 27q65 0 105 -39.5t40 -104.5q0 -51 -29.5 -90 t-80 -60.5t-111.5 -21.5z" />
<glyph unicode="&#xc8;" horiz-adv-x="1235" d="M1109 0h-927v1462h927v-114h-802v-541h787v-115h-787v-579h802v-113zM765 1585h-96l-378 315h136z" />
<glyph unicode="&#xc9;" horiz-adv-x="1235" d="M999 1900l-376 -315h-97l337 315h136zM1109 0h-927v1462h927v-114h-802v-541h787v-115h-787v-579h802v-113z" />
<glyph unicode="&#xca;" horiz-adv-x="1235" d="M916 1585h-88l-188 247l-186 -247h-86l213 315h118zM1109 0h-927v1462h927v-114h-802v-541h787v-115h-787v-579h802v-113z" />
<glyph unicode="&#xcb;" horiz-adv-x="1235" d="M947 1683q0 -33 -24 -57t-57 -24t-57.5 24t-24.5 57t24.5 57t57.5 24t57 -24t24 -57zM500 1683q0 -33 -24.5 -57t-57.5 -24t-57 24t-24 57t24 57t57 24t57.5 -24t24.5 -57zM1109 0h-927v1462h927v-114h-802v-541h787v-115h-787v-579h802v-113z" />
<glyph unicode="&#xcc;" horiz-adv-x="487" d="M307 0h-125v1462h125v-1462zM364 1585h-96l-377 315h136z" />
<glyph unicode="&#xcd;" horiz-adv-x="487" d="M307 0h-125v1462h125v-1462zM600 1900l-376 -315h-97l337 315h136z" />
<glyph unicode="&#xce;" horiz-adv-x="487" d="M521 1585h-87l-189 247l-186 -247h-86l213 315h119zM307 0h-125v1462h125v-1462z" />
<glyph unicode="&#xcf;" horiz-adv-x="487" d="M550 1683q0 -33 -24 -57t-57 -24t-57.5 24t-24.5 57t24.5 57t57.5 24t57 -24t24 -57zM103 1683q0 -33 -24.5 -57t-57 -24t-56.5 24t-24 57t24 57t56.5 24t57 -24t24.5 -57zM307 0h-125v1462h125v-1462z" />
<glyph unicode="&#xd0;" horiz-adv-x="1579" d="M715 0h-468v677h-222v97h222v688h468q95 0 183 -19.5t161.5 -55.5t136 -87t110 -114t80.5 -135.5t50 -154t17 -166.5q0 -152 -52 -285.5t-146 -232t-234 -155.5t-306 -57zM715 113q113 0 210.5 31.5t169.5 87.5t123.5 133t77 169.5t25.5 195.5q0 128 -40.5 240.5 t-116.5 196.5t-192 132.5t-257 48.5h-343v-574h393v-97h-393v-564h343z" />
<glyph unicode="&#xd1;" horiz-adv-x="1531" d="M899 1580q-39 0 -70 17t-49.5 42t-37 54.5t-33 54.5t-37 41.5t-49.5 16.5q-53 0 -86 -53.5t-33 -159.5h-77q0 128 54.5 210.5t149.5 82.5q38 0 68.5 -16.5t49 -41t37 -53.5t33 -54t37 -41.5t49.5 -16.5q52 0 84 52.5t32 158.5h79q0 -129 -53 -211.5t-148 -82.5zM1350 0 h-123l-920 1256v-1256h-125v1462h127l916 -1238v1238h125v-1462z" />
<glyph unicode="&#xd2;" horiz-adv-x="1673" d="M958 1585h-97l-376 315h136zM837 -27q-158 0 -291.5 58.5t-225 160t-142.5 240.5t-51 298t51 298t142.5 240.5t225 159.5t291.5 58q157 0 290.5 -58t225 -159.5t143 -240.5t51.5 -298t-51.5 -298.5t-143 -240.5t-225 -159.5t-290.5 -58.5zM837 88q129 0 238 48.5 t183.5 134t116 204t41.5 255.5q0 138 -41.5 257t-116 203.5t-183.5 133t-238 48.5q-131 0 -240 -48t-183 -133.5t-114.5 -203.5t-40.5 -257q0 -110 25.5 -208t75.5 -177t119.5 -137t161 -89t196.5 -31z" />
<glyph unicode="&#xd3;" horiz-adv-x="1673" d="M1192 1900l-377 -315h-96l337 315h136zM837 -27q-158 0 -291.5 58.5t-225 160t-142.5 240.5t-51 298t51 298t142.5 240.5t225 159.5t291.5 58q157 0 290.5 -58t225 -159.5t143 -240.5t51.5 -298t-51.5 -298.5t-143 -240.5t-225 -159.5t-290.5 -58.5zM837 88 q129 0 238 48.5t183.5 134t116 204t41.5 255.5q0 138 -41.5 257t-116 203.5t-183.5 133t-238 48.5q-131 0 -240 -48t-183 -133.5t-114.5 -203.5t-40.5 -257q0 -110 25.5 -208t75.5 -177t119.5 -137t161 -89t196.5 -31z" />
<glyph unicode="&#xd4;" horiz-adv-x="1673" d="M1115 1585h-87l-189 247l-186 -247h-86l213 315h119zM837 -27q-158 0 -291.5 58.5t-225 160t-142.5 240.5t-51 298t51 298t142.5 240.5t225 159.5t291.5 58q157 0 290.5 -58t225 -159.5t143 -240.5t51.5 -298t-51.5 -298.5t-143 -240.5t-225 -159.5t-290.5 -58.5zM837 88 q129 0 238 48.5t183.5 134t116 204t41.5 255.5q0 138 -41.5 257t-116 203.5t-183.5 133t-238 48.5q-131 0 -240 -48t-183 -133.5t-114.5 -203.5t-40.5 -257q0 -110 25.5 -208t75.5 -177t119.5 -137t161 -89t196.5 -31z" />
<glyph unicode="&#xd5;" horiz-adv-x="1673" d="M837 -27q-158 0 -291.5 58.5t-225 160t-142.5 240.5t-51 298t51 298t142.5 240.5t225 159.5t291.5 58q157 0 290.5 -58t225 -159.5t143 -240.5t51.5 -298t-51.5 -298.5t-143 -240.5t-225 -159.5t-290.5 -58.5zM837 88q129 0 238 48.5t183.5 134t116 204t41.5 255.5 q0 138 -41.5 257t-116 203.5t-183.5 133t-238 48.5q-131 0 -240 -48t-183 -133.5t-114.5 -203.5t-40.5 -257q0 -110 25.5 -208t75.5 -177t119.5 -137t161 -89t196.5 -31zM973 1580q-39 0 -70 17t-49.5 42t-37 54.5t-33 54.5t-37 41.5t-49.5 16.5q-53 0 -85.5 -53.5 t-32.5 -159.5h-77q0 84 23 149.5t69.5 104.5t110.5 39q38 0 68.5 -16.5t49 -41t37 -53.5t33 -54t37 -41.5t49.5 -16.5q34 0 59.5 21.5t41.5 70t16 119.5h79q0 -129 -53.5 -211.5t-148.5 -82.5z" />
<glyph unicode="&#xd6;" horiz-adv-x="1673" d="M1140 1683q0 -33 -24.5 -57t-57.5 -24t-57 24t-24 57q0 22 11 40.5t30 29.5t40 11q33 0 57.5 -24t24.5 -57zM692 1683q0 -33 -24 -57t-57 -24t-56.5 24t-23.5 57t23.5 57t56.5 24t57 -24t24 -57zM837 -27q-158 0 -291.5 58.5t-225 160t-142.5 240.5t-51 298t51 298 t142.5 240.5t225 159.5t291.5 58q157 0 290.5 -58t225 -159.5t143 -240.5t51.5 -298t-51.5 -298.5t-143 -240.5t-225 -159.5t-290.5 -58.5zM837 88q129 0 238 48.5t183.5 134t116 204t41.5 255.5q0 138 -41.5 257t-116 203.5t-183.5 133t-238 48.5q-131 0 -240 -48 t-183 -133.5t-114.5 -203.5t-40.5 -257q0 -110 25.5 -208t75.5 -177t119.5 -137t161 -89t196.5 -31z" />
<glyph unicode="&#xd7;" horiz-adv-x="1086" d="M876 335l-332 334l-331 -334l-66 64l333 333l-333 333l66 64l331 -334l332 334l65 -64l-334 -333l334 -333z" />
<glyph unicode="&#xd8;" horiz-adv-x="1673" d="M837 -27q-201 0 -368 98l-44 -71h-111l79 123q-85 68 -144.5 161.5t-90.5 206.5t-31 239q0 159 51 298t142.5 240.5t225 159.5t291.5 58q193 0 359 -95l44 71h115l-80 -123q130 -103 201 -261.5t71 -347.5q0 -159 -51.5 -298.5t-143 -240.5t-225 -159.5t-290.5 -58.5z M837 88q129 0 238 48.5t183.5 134t116 204t41.5 255.5q0 159 -53 289.5t-151 216.5l-679 -1067q133 -81 304 -81zM259 730q0 -157 51.5 -286.5t147.5 -217.5l675 1067q-131 79 -296 79q-131 0 -240 -48t-183 -133.5t-114.5 -203.5t-40.5 -257z" />
<glyph unicode="&#xd9;" horiz-adv-x="1502" d="M751 -27q-184 0 -313 72.5t-192.5 203.5t-63.5 312v901h127v-899q0 -148 50.5 -254.5t150 -163.5t241.5 -57q143 0 243 57t150 163.5t50 254.5v899h127v-901q0 -276 -146 -432t-424 -156zM872 1585h-96l-377 315h136z" />
<glyph unicode="&#xda;" horiz-adv-x="1502" d="M1106 1900l-376 -315h-97l337 315h136zM751 -27q-184 0 -313 72.5t-192.5 203.5t-63.5 312v901h127v-899q0 -148 50.5 -254.5t150 -163.5t241.5 -57q143 0 243 57t150 163.5t50 254.5v899h127v-901q0 -276 -146 -432t-424 -156z" />
<glyph unicode="&#xdb;" horiz-adv-x="1502" d="M1033 1585h-88l-189 247l-187 -247h-84l212 315h118zM751 -27q-184 0 -313 72.5t-192.5 203.5t-63.5 312v901h127v-899q0 -148 50.5 -254.5t150 -163.5t241.5 -57q143 0 243 57t150 163.5t50 254.5v899h127v-901q0 -276 -146 -432t-424 -156z" />
<glyph unicode="&#xdc;" horiz-adv-x="1502" d="M1058 1683q0 -33 -24 -57t-57 -24t-56.5 24t-23.5 57t23.5 57t56.5 24t57 -24t24 -57zM611 1683q0 -33 -23.5 -57t-56.5 -24t-57.5 24t-24.5 57t24.5 57t57.5 24q21 0 39.5 -11t29.5 -29.5t11 -40.5zM751 -27q-184 0 -313 72.5t-192.5 203.5t-63.5 312v901h127v-899 q0 -148 50.5 -254.5t150 -163.5t241.5 -57q143 0 243 57t150 163.5t50 254.5v899h127v-901q0 -276 -146 -432t-424 -156z" />
<glyph unicode="&#xdd;" horiz-adv-x="1353" d="M740 0h-127v625l-580 837h151l493 -719l494 719h150l-581 -837v-625zM1033 1900l-378 -315h-96l338 315h136z" />
<glyph unicode="&#xde;" d="M307 0h-125v1462h125v-272h423q102 0 186.5 -34.5t139.5 -94t85 -136.5t30 -164t-30.5 -164t-85.5 -135.5t-139.5 -92.5t-185.5 -34h-423v-335zM717 449q144 0 233 87.5t89 224.5q0 90 -40 162t-113.5 112.5t-168.5 40.5h-410v-627h410z" />
<glyph unicode="&#xdf;" horiz-adv-x="1265" d="M1221 287q0 -62 -24 -117t-70.5 -99.5t-124 -71t-176.5 -26.5q-76 0 -137.5 13t-109 39t-80.5 52.5t-70 64.5l69 84q33 -44 78.5 -77.5t111 -55.5t138.5 -22q69 0 124 18t89 48t52 68t18 80q0 46 -22.5 80.5t-60.5 56.5t-87 39t-103.5 31t-108.5 29t-103.5 37t-87.5 51.5 t-60 76.5t-22 107q0 35 9.5 66t26 55t38 46t46 39t50.5 35t50.5 32.5t46.5 32t38.5 34.5t26 38.5t9.5 45.5q0 50 -37 88.5t-90 56.5t-109 18q-113 0 -190.5 -72.5t-77.5 -192.5v-1115h-113v1115q0 77 27 144.5t75.5 117t120.5 78t158 28.5q94 0 173.5 -30.5t129.5 -90 t50 -137.5q0 -42 -15 -78t-39.5 -61.5t-55.5 -49.5t-63.5 -42t-63.5 -40.5t-55.5 -44.5t-39.5 -52.5t-15 -65.5q0 -42 22.5 -73t60.5 -50t87 -34t103.5 -28t109 -28t103.5 -38.5t87 -55t60.5 -82t22.5 -115.5z" />
<glyph unicode="&#xe0;" horiz-adv-x="1141" d="M964 0h-113v125q-140 -152 -360 -152q-69 0 -134.5 24t-118.5 67t-85 111.5t-32 150.5q0 84 31.5 152t84.5 110.5t118.5 65.5t135.5 23q224 0 360 -151v214q0 114 -81.5 179t-204.5 65q-99 0 -179 -37t-152 -119l-63 79q84 91 181.5 134.5t226.5 43.5q82 0 151 -20.5 t122 -61t82.5 -106.5t29.5 -152v-745zM531 63q97 0 180.5 37.5t139.5 108.5v232q-56 71 -139.5 108.5t-180.5 37.5q-130 0 -210 -74t-80 -189q0 -113 80 -187t210 -74zM697 1219h-97l-376 315h136z" />
<glyph unicode="&#xe1;" horiz-adv-x="1141" d="M964 0h-113v125q-140 -152 -360 -152q-69 0 -134.5 24t-118.5 67t-85 111.5t-32 150.5q0 84 31.5 152t84.5 110.5t118.5 65.5t135.5 23q224 0 360 -151v214q0 114 -81.5 179t-204.5 65q-99 0 -179 -37t-152 -119l-63 79q84 91 181.5 134.5t226.5 43.5q82 0 151 -20.5 t122 -61t82.5 -106.5t29.5 -152v-745zM531 63q97 0 180.5 37.5t139.5 108.5v232q-56 71 -139.5 108.5t-180.5 37.5q-130 0 -210 -74t-80 -189q0 -113 80 -187t210 -74zM933 1534l-377 -315h-96l337 315h136z" />
<glyph unicode="&#xe2;" horiz-adv-x="1141" d="M964 0h-113v125q-140 -152 -360 -152q-69 0 -134.5 24t-118.5 67t-85 111.5t-32 150.5q0 84 31.5 152t84.5 110.5t118.5 65.5t135.5 23q224 0 360 -151v214q0 114 -81.5 179t-204.5 65q-99 0 -179 -37t-152 -119l-63 79q84 91 181.5 134.5t226.5 43.5q82 0 151 -20.5 t122 -61t82.5 -106.5t29.5 -152v-745zM531 63q97 0 180.5 37.5t139.5 108.5v232q-56 71 -139.5 108.5t-180.5 37.5q-130 0 -210 -74t-80 -189q0 -113 80 -187t210 -74zM855 1219h-88l-188 247l-186 -247h-86l212 315h119z" />
<glyph unicode="&#xe3;" horiz-adv-x="1141" d="M964 0h-113v125q-140 -152 -360 -152q-69 0 -134.5 24t-118.5 67t-85 111.5t-32 150.5q0 84 31.5 152t84.5 110.5t118.5 65.5t135.5 23q224 0 360 -151v214q0 114 -81.5 179t-204.5 65q-99 0 -179 -37t-152 -119l-63 79q84 91 181.5 134.5t226.5 43.5q82 0 151 -20.5 t122 -61t82.5 -106.5t29.5 -152v-745zM531 63q97 0 180.5 37.5t139.5 108.5v232q-56 71 -139.5 108.5t-180.5 37.5q-130 0 -210 -74t-80 -189q0 -113 80 -187t210 -74zM713 1214q-39 0 -70 17t-49.5 42t-37 54.5t-33 54.5t-37 41.5t-49.5 16.5q-53 0 -86 -53.5t-33 -159.5 h-77q0 128 54 210.5t150 82.5q38 0 68.5 -16.5t49 -41t37 -53.5t33 -54t37 -41.5t49.5 -16.5q52 0 84 52.5t32 158.5h79q0 -129 -53 -211.5t-148 -82.5z" />
<glyph unicode="&#xe4;" horiz-adv-x="1141" d="M964 0h-113v125q-140 -152 -360 -152q-69 0 -134.5 24t-118.5 67t-85 111.5t-32 150.5q0 84 31.5 152t84.5 110.5t118.5 65.5t135.5 23q224 0 360 -151v214q0 114 -81.5 179t-204.5 65q-99 0 -179 -37t-152 -119l-63 79q84 91 181.5 134.5t226.5 43.5q82 0 151 -20.5 t122 -61t82.5 -106.5t29.5 -152v-745zM531 63q97 0 180.5 37.5t139.5 108.5v232q-56 71 -139.5 108.5t-180.5 37.5q-130 0 -210 -74t-80 -189q0 -113 80 -187t210 -74zM878 1317q0 -33 -24 -57t-57 -24t-56.5 24t-23.5 57t23.5 57t56.5 24t57 -24t24 -57zM431 1317 q0 -33 -23.5 -57t-56.5 -24t-57 24t-24 57t24 57t57 24t56.5 -24t23.5 -57z" />
<glyph unicode="&#xe5;" horiz-adv-x="1141" d="M964 0h-113v125q-140 -152 -360 -152q-69 0 -134.5 24t-118.5 67t-85 111.5t-32 150.5q0 84 31.5 152t84.5 110.5t118.5 65.5t135.5 23q224 0 360 -151v214q0 114 -81.5 179t-204.5 65q-99 0 -179 -37t-152 -119l-63 79q84 91 181.5 134.5t226.5 43.5q82 0 151 -20.5 t122 -61t82.5 -106.5t29.5 -152v-745zM531 63q97 0 180.5 37.5t139.5 108.5v232q-56 71 -139.5 108.5t-180.5 37.5q-130 0 -210 -74t-80 -189q0 -113 80 -187t210 -74zM577 1201q-88 0 -149.5 61.5t-61.5 148.5q0 56 28 104.5t77 77.5t106 29q84 0 144.5 -62.5t60.5 -148.5 q0 -87 -60 -148.5t-145 -61.5zM577 1271q57 0 97.5 41t40.5 99t-40.5 99.5t-97.5 41.5q-58 0 -99 -41.5t-41 -99t41 -99t99 -41.5z" />
<glyph unicode="&#xe6;" horiz-adv-x="1965" d="M1850 493h-831q4 -86 32 -162.5t76 -134t119 -90.5t155 -33q95 0 178 37.5t146 108.5l59 -75q-158 -171 -383 -171q-147 0 -259.5 72.5t-171.5 211.5q-50 -130 -165 -207t-261 -77q-119 0 -214 40t-152 121.5t-57 191.5q0 83 32 151t86.5 111t124.5 66t149 23 q243 0 392 -146v209q0 116 -84.5 180t-224.5 64q-109 0 -196 -37t-166 -119l-63 79q163 178 442 178q64 0 123 -13.5t112.5 -41.5t90 -79t48.5 -119q36 73 91 128.5t134 90t168 34.5q90 0 166.5 -29t132 -81t94.5 -122.5t58 -154t19 -175.5v-30zM1019 583h714 q0 56 -12.5 111.5t-40.5 108.5t-68.5 93.5t-101.5 65.5t-134 25q-67 0 -125 -24.5t-99 -65t-71 -93t-45 -109t-17 -112.5zM905 403v36q-60 71 -152 109.5t-197 38.5q-141 0 -228 -72t-87 -184q0 -114 87 -186t228 -72q62 0 117.5 18t97 49.5t72.5 73.5t46.5 90.5t15.5 98.5z " />
<glyph unicode="&#xe7;" horiz-adv-x="1081" d="M633 -410q-42 0 -84 8.5t-74.5 23t-53.5 31.5l35 71q76 -61 175 -61q61 0 102 26.5t41 71.5q0 41 -23 63.5t-67 22.5q-55 0 -88 -37l-61 35l48 130q-139 12 -246 89t-163.5 198.5t-56.5 268.5q0 115 37 216.5t103 176.5t163 118t211 43q130 0 217.5 -46t157.5 -134 l-79 -70q-109 147 -289 147q-121 0 -212.5 -60t-139 -162t-47.5 -229.5t47.5 -230t139 -163t212.5 -60.5q179 0 289 149l79 -71q-44 -55 -88.5 -91t-109 -60t-144.5 -29l-35 -96q34 27 81 27q65 0 105 -39.5t40 -105.5q0 -75 -64 -123t-158 -48z" />
<glyph unicode="&#xe8;" horiz-adv-x="1242" d="M646 -27q-153 0 -273.5 71t-188 198.5t-67.5 288.5q0 113 38.5 215.5t106 177t162.5 118t203 43.5q118 0 213.5 -45t157.5 -122t95.5 -178.5t33.5 -216.5v-30h-886q3 -69 23 -132t56 -115.5t84.5 -91t113 -60t137.5 -21.5q101 0 190.5 37.5t156.5 108.5l58 -75 q-164 -171 -414 -171zM1010 583q-1 56 -15 111.5t-45 108.5t-75 93.5t-108.5 65.5t-141.5 25q-61 0 -114.5 -17.5t-94 -47t-73.5 -68.5t-54.5 -84.5t-33.5 -92.5t-14 -94h769zM747 1219h-96l-377 315h136z" />
<glyph unicode="&#xe9;" horiz-adv-x="1242" d="M982 1534l-377 -315h-97l338 315h136zM646 -27q-153 0 -273.5 71t-188 198.5t-67.5 288.5q0 113 38.5 215.5t106 177t162.5 118t203 43.5q118 0 213.5 -45t157.5 -122t95.5 -178.5t33.5 -216.5v-30h-886q3 -69 23 -132t56 -115.5t84.5 -91t113 -60t137.5 -21.5 q101 0 190.5 37.5t156.5 108.5l58 -75q-164 -171 -414 -171zM1010 583q-1 56 -15 111.5t-45 108.5t-75 93.5t-108.5 65.5t-141.5 25q-61 0 -114.5 -17.5t-94 -47t-73.5 -68.5t-54.5 -84.5t-33.5 -92.5t-14 -94h769z" />
<glyph unicode="&#xea;" horiz-adv-x="1242" d="M905 1219h-88l-188 247l-186 -247h-86l212 315h119zM646 -27q-153 0 -273.5 71t-188 198.5t-67.5 288.5q0 113 38.5 215.5t106 177t162.5 118t203 43.5q118 0 213.5 -45t157.5 -122t95.5 -178.5t33.5 -216.5v-30h-886q3 -69 23 -132t56 -115.5t84.5 -91t113 -60 t137.5 -21.5q101 0 190.5 37.5t156.5 108.5l58 -75q-164 -171 -414 -171zM1010 583q-1 56 -15 111.5t-45 108.5t-75 93.5t-108.5 65.5t-141.5 25q-61 0 -114.5 -17.5t-94 -47t-73.5 -68.5t-54.5 -84.5t-33.5 -92.5t-14 -94h769z" />
<glyph unicode="&#xeb;" horiz-adv-x="1242" d="M933 1317q0 -33 -23.5 -57t-56.5 -24t-57.5 24t-24.5 57t24.5 57t57.5 24t56.5 -24t23.5 -57zM487 1317q0 -33 -24.5 -57t-57 -24t-57 24t-24.5 57t24.5 57t57 24t57 -24t24.5 -57zM646 -27q-153 0 -273.5 71t-188 198.5t-67.5 288.5q0 113 38.5 215.5t106 177t162.5 118 t203 43.5q118 0 213.5 -45t157.5 -122t95.5 -178.5t33.5 -216.5v-30h-886q3 -69 23 -132t56 -115.5t84.5 -91t113 -60t137.5 -21.5q101 0 190.5 37.5t156.5 108.5l58 -75q-164 -171 -414 -171zM1010 583q-1 56 -15 111.5t-45 108.5t-75 93.5t-108.5 65.5t-141.5 25 q-61 0 -114.5 -17.5t-94 -47t-73.5 -68.5t-54.5 -84.5t-33.5 -92.5t-14 -94h769z" />
<glyph unicode="&#xec;" horiz-adv-x="468" d="M291 0h-113v1058h113v-1058zM353 1219h-96l-378 315h136z" />
<glyph unicode="&#xed;" horiz-adv-x="468" d="M590 1534l-377 -315h-96l337 315h136zM291 0h-113v1058h113v-1058z" />
<glyph unicode="&#xee;" horiz-adv-x="468" d="M508 1219h-87l-189 247l-186 -247h-86l213 315h118zM291 0h-113v1058h113v-1058z" />
<glyph unicode="&#xef;" horiz-adv-x="468" d="M539 1317q0 -33 -24 -57t-57 -24t-57 24t-24 57t24 57t57 24t57 -24t24 -57zM92 1317q0 -33 -24 -57t-57 -24t-57.5 24t-24.5 57t24.5 57t57.5 24t57 -24t24 -57zM291 0h-113v1058h113v-1058z" />
<glyph unicode="&#xf0;" d="M285 1117l-30 75l264 117q-25 17 -54 36t-66.5 42.5t-57.5 36.5l67 96q131 -79 236 -157l239 105l31 -72l-199 -87q420 -354 420 -774q0 -119 -36 -222t-101 -178t-161.5 -118.5t-211.5 -43.5q-113 0 -208.5 42.5t-161 115.5t-102 174t-36.5 216t35.5 215.5t98.5 173.5 t154.5 115t199.5 42q103 0 188 -44.5t156 -146.5q-129 212 -353 380zM625 77q91 0 165.5 36.5t122 98.5t73.5 141.5t26 167.5q0 58 -11.5 113t-33.5 104t-55.5 90.5t-75.5 71.5t-96 47t-115 17q-89 0 -163.5 -36.5t-122.5 -98.5t-74 -141.5t-26 -166.5q0 -88 26 -167.5 t74 -141.5t122.5 -98.5t163.5 -36.5z" />
<glyph unicode="&#xf1;" horiz-adv-x="1182" d="M1006 0h-114v717q0 74 -18 126.5t-53 82.5t-80 43t-105 13q-99 0 -195.5 -53t-149.5 -129v-800h-113v1058h113v-159q63 75 168.5 130.5t213.5 55.5q333 0 333 -345v-740zM728 1214q-39 0 -70 17t-49.5 42t-37 54.5t-33 54.5t-37 41.5t-49.5 16.5q-53 0 -86 -53.5 t-33 -159.5h-76q0 128 53.5 210.5t149.5 82.5q38 0 68.5 -16.5t49 -41t37 -53.5t33 -54t37 -41.5t49.5 -16.5q52 0 84.5 53t32.5 158h78q0 -129 -53 -211.5t-148 -82.5z" />
<glyph unicode="&#xf2;" d="M625 -27q-114 0 -210 44t-161 119t-101 177t-36 217.5t36 217t101 176.5t161 118t210 43q92 0 173 -28t142 -78.5t105.5 -119t67 -152.5t22.5 -176.5t-22.5 -176.5t-67 -153t-105.5 -120t-142 -79.5t-173 -28.5zM625 77q90 0 165 37.5t122.5 101t73.5 144.5t26 171 q0 88 -26 169t-73.5 144t-122.5 100.5t-165 37.5q-60 0 -113.5 -17t-95.5 -47.5t-76 -73t-56 -92.5t-33.5 -106.5t-11.5 -114.5q0 -71 16 -138t49 -124t78.5 -100t108 -67.5t134.5 -24.5zM745 1219h-97l-376 315h136z" />
<glyph unicode="&#xf3;" d="M982 1534l-377 -315h-97l338 315h136zM625 -27q-114 0 -210 44t-161 119t-101 177t-36 217.5t36 217t101 176.5t161 118t210 43q92 0 173 -28t142 -78.5t105.5 -119t67 -152.5t22.5 -176.5t-22.5 -176.5t-67 -153t-105.5 -120t-142 -79.5t-173 -28.5zM625 77 q90 0 165 37.5t122.5 101t73.5 144.5t26 171q0 88 -26 169t-73.5 144t-122.5 100.5t-165 37.5q-60 0 -113.5 -17t-95.5 -47.5t-76 -73t-56 -92.5t-33.5 -106.5t-11.5 -114.5q0 -71 16 -138t49 -124t78.5 -100t108 -67.5t134.5 -24.5z" />
<glyph unicode="&#xf4;" d="M903 1219h-88l-188 247l-186 -247h-86l212 315h119zM625 -27q-114 0 -210 44t-161 119t-101 177t-36 217.5t36 217t101 176.5t161 118t210 43q92 0 173 -28t142 -78.5t105.5 -119t67 -152.5t22.5 -176.5t-22.5 -176.5t-67 -153t-105.5 -120t-142 -79.5t-173 -28.5z M625 77q90 0 165 37.5t122.5 101t73.5 144.5t26 171q0 88 -26 169t-73.5 144t-122.5 100.5t-165 37.5q-60 0 -113.5 -17t-95.5 -47.5t-76 -73t-56 -92.5t-33.5 -106.5t-11.5 -114.5q0 -71 16 -138t49 -124t78.5 -100t108 -67.5t134.5 -24.5z" />
<glyph unicode="&#xf5;" d="M625 -27q-114 0 -210 44t-161 119t-101 177t-36 217.5t36 217t101 176.5t161 118t210 43q92 0 173 -28t142 -78.5t105.5 -119t67 -152.5t22.5 -176.5t-22.5 -176.5t-67 -153t-105.5 -120t-142 -79.5t-173 -28.5zM625 77q90 0 165 37.5t122.5 101t73.5 144.5t26 171 q0 88 -26 169t-73.5 144t-122.5 100.5t-165 37.5q-60 0 -113.5 -17t-95.5 -47.5t-76 -73t-56 -92.5t-33.5 -106.5t-11.5 -114.5q0 -71 16 -138t49 -124t78.5 -100t108 -67.5t134.5 -24.5zM761 1214q-39 0 -70 17t-49.5 42t-37 54.5t-33 54.5t-37 41.5t-49.5 16.5 q-53 0 -86 -53.5t-33 -159.5h-77q0 84 23 149.5t70 104.5t111 39q38 0 68.5 -16.5t49 -41t37 -53.5t33 -54t37 -41.5t49.5 -16.5q52 0 84 52.5t32 158.5h79q0 -129 -53 -211.5t-148 -82.5z" />
<glyph unicode="&#xf6;" d="M931 1317q0 -33 -24 -57t-56.5 -24t-57 24t-24.5 57t24.5 57t57 24t56.5 -24t24 -57zM485 1317q0 -33 -24.5 -57t-57.5 -24q-16 0 -31 6.5t-26 17.5t-17.5 26t-6.5 31q0 33 24 57t57 24t57.5 -24t24.5 -57zM625 -27q-114 0 -210 44t-161 119t-101 177t-36 217.5t36 217 t101 176.5t161 118t210 43q92 0 173 -28t142 -78.5t105.5 -119t67 -152.5t22.5 -176.5t-22.5 -176.5t-67 -153t-105.5 -120t-142 -79.5t-173 -28.5zM625 77q90 0 165 37.5t122.5 101t73.5 144.5t26 171q0 88 -26 169t-73.5 144t-122.5 100.5t-165 37.5q-60 0 -113.5 -17 t-95.5 -47.5t-76 -73t-56 -92.5t-33.5 -106.5t-11.5 -114.5q0 -71 16 -138t49 -124t78.5 -100t108 -67.5t134.5 -24.5z" />
<glyph unicode="&#xf7;" horiz-adv-x="1119" d="M646 1163q0 -23 -11.5 -43t-31.5 -32t-42 -12q-24 0 -44.5 12t-32 32t-11.5 43q0 36 25.5 61t62.5 25q35 0 60 -25t25 -61zM1056 692h-993v92h993v-92zM646 303q0 -35 -25.5 -60.5t-59.5 -25.5q-36 0 -62 25.5t-26 60.5q0 36 26 62t62 26q17 0 32.5 -7t27 -19t18.5 -28.5 t7 -33.5z" />
<glyph unicode="&#xf8;" d="M259 0h-96l98 129q-69 76 -106.5 180t-37.5 222q0 115 36 216.5t101 176.5t161 118t210 43q169 0 295 -94l53 67h96l-90 -115q75 -76 115.5 -183t40.5 -229q0 -93 -22.5 -177t-67 -153t-105.5 -120t-142 -79.5t-173 -28.5q-177 0 -309 104zM625 77q90 0 165 37.5 t122.5 101t73.5 144.5t26 171q0 59 -12 115.5t-35.5 108t-57.5 94.5l-522 -682q97 -90 240 -90zM239 531q0 -86 24 -165.5t70 -141.5l520 679q-97 79 -228 79q-60 0 -113.5 -17t-95.5 -47.5t-76 -73t-56 -92.5t-33.5 -106.5t-11.5 -114.5z" />
<glyph unicode="&#xf9;" horiz-adv-x="1182" d="M1006 0h-114v155q-71 -78 -172 -130t-210 -52q-166 0 -249 82.5t-83 258.5v744h113v-719q0 -75 18 -127.5t53.5 -81t80 -41t105.5 -12.5q98 0 193.5 51t150.5 125v805h114v-1058zM710 1219h-97l-377 315h136z" />
<glyph unicode="&#xfa;" horiz-adv-x="1182" d="M947 1534l-378 -315h-96l338 315h136zM1006 0h-114v155q-71 -78 -172 -130t-210 -52q-166 0 -249 82.5t-83 258.5v744h113v-719q0 -75 18 -127.5t53.5 -81t80 -41t105.5 -12.5q98 0 193.5 51t150.5 125v805h114v-1058z" />
<glyph unicode="&#xfb;" horiz-adv-x="1182" d="M866 1219h-88l-188 247l-187 -247h-85l213 315h117zM1006 0h-114v155q-71 -78 -172 -130t-210 -52q-166 0 -249 82.5t-83 258.5v744h113v-719q0 -75 18 -127.5t53.5 -81t80 -41t105.5 -12.5q98 0 193.5 51t150.5 125v805h114v-1058z" />
<glyph unicode="&#xfc;" horiz-adv-x="1182" d="M901 1317q0 -33 -24 -57t-57 -24t-57.5 24t-24.5 57t24.5 57t57.5 24t57 -24t24 -57zM454 1317q0 -33 -24.5 -57t-57.5 -24t-57 24t-24 57t24 57t57 24t57.5 -24t24.5 -57zM1006 0h-114v155q-71 -78 -172 -130t-210 -52q-166 0 -249 82.5t-83 258.5v744h113v-719 q0 -75 18 -127.5t53.5 -81t80 -41t105.5 -12.5q98 0 193.5 51t150.5 125v805h114v-1058z" />
<glyph unicode="&#xfd;" horiz-adv-x="1053" d="M107 -414l20 105q40 -17 92 -17q56 0 93 28t67 101l83 188l-447 1067h127l387 -924l381 924h129l-548 -1290q-83 -197 -272 -197q-61 0 -112 15zM883 1534l-377 -315h-96l337 315h136z" />
<glyph unicode="&#xfe;" horiz-adv-x="1242" d="M659 -27q-110 0 -206.5 53t-161.5 145v-574h-113v1865h113v-570q59 85 157 139t211 54q213 0 343.5 -150.5t130.5 -403.5q0 -167 -59.5 -293.5t-167 -195.5t-247.5 -69zM640 77q87 0 157.5 35t116.5 96t71 143.5t25 179.5q0 129 -42.5 230.5t-127.5 161t-200 59.5 q-106 0 -203.5 -55t-145.5 -134v-523q48 -80 145.5 -136.5t203.5 -56.5z" />
<glyph unicode="&#xff;" horiz-adv-x="1053" d="M107 -414l20 105q40 -17 92 -17q56 0 93 28t67 101l83 188l-447 1067h127l387 -924l381 924h129l-548 -1290q-83 -197 -272 -197q-61 0 -112 15zM832 1317q0 -33 -24 -57t-57 -24t-56.5 24t-23.5 57t23.5 57t56.5 24t57 -24t24 -57zM385 1317q0 -33 -23.5 -57t-56.5 -24 t-57 24t-24 57t24 57t57 24t56.5 -24t23.5 -57z" />
<glyph unicode="&#x100;" horiz-adv-x="1417" d="M1385 0h-145l-144 360h-774l-144 -360h-145l598 1462h155zM1054 473l-346 855l-344 -855h690zM1104 1631h-795v80h795v-80z" />
<glyph unicode="&#x101;" horiz-adv-x="1141" d="M964 0h-113v125q-140 -152 -360 -152q-69 0 -134.5 24t-118.5 67t-85 111.5t-32 150.5q0 84 31.5 152t84.5 110.5t118.5 65.5t135.5 23q224 0 360 -151v214q0 114 -81.5 179t-204.5 65q-99 0 -179 -37t-152 -119l-63 79q84 91 181.5 134.5t226.5 43.5q82 0 151 -20.5 t122 -61t82.5 -106.5t29.5 -152v-745zM531 63q97 0 180.5 37.5t139.5 108.5v232q-56 71 -139.5 108.5t-180.5 37.5q-130 0 -210 -74t-80 -189q0 -113 80 -187t210 -74zM966 1265h-795v80h795v-80z" />
<glyph unicode="&#x102;" horiz-adv-x="1417" d="M1385 0h-145l-144 360h-774l-144 -360h-145l598 1462h155zM1054 473l-346 855l-344 -855h690zM1091 1744q-66 -90 -166 -141t-217 -51q-115 0 -216.5 51t-169.5 141l63 55q56 -77 139.5 -120.5t183.5 -43.5q99 0 182 43.5t140 120.5z" />
<glyph unicode="&#x103;" horiz-adv-x="1141" d="M964 0h-113v125q-140 -152 -360 -152q-69 0 -134.5 24t-118.5 67t-85 111.5t-32 150.5q0 84 31.5 152t84.5 110.5t118.5 65.5t135.5 23q224 0 360 -151v214q0 114 -81.5 179t-204.5 65q-99 0 -179 -37t-152 -119l-63 79q84 91 181.5 134.5t226.5 43.5q82 0 151 -20.5 t122 -61t82.5 -106.5t29.5 -152v-745zM531 63q97 0 180.5 37.5t139.5 108.5v232q-56 71 -139.5 108.5t-180.5 37.5q-130 0 -210 -74t-80 -189q0 -113 80 -187t210 -74zM953 1378q-66 -90 -166.5 -141t-217.5 -51q-115 0 -216 51t-169 141l63 55q37 -51 85.5 -87.5t109 -56.5 t127.5 -20q99 0 182.5 43.5t140.5 120.5z" />
<glyph unicode="&#x104;" horiz-adv-x="1417" d="M1437 -239l68 -35q-57 -134 -188 -134q-51 0 -92 18.5t-67.5 61.5t-26.5 107q0 61 32.5 119.5t89.5 101.5h-13l-144 360h-774l-144 -360h-145l598 1462h155l599 -1462q-173 -83 -173 -217q0 -39 13.5 -65.5t36.5 -39.5t55 -13q90 0 120 96zM1054 473l-346 855l-344 -855 h690z" />
<glyph unicode="&#x105;" horiz-adv-x="1141" d="M1016 -239l69 -35q-57 -134 -188 -134q-52 0 -92.5 18.5t-67.5 61.5t-27 107q0 65 38 126.5t103 105.5v114q-140 -152 -360 -152q-69 0 -134.5 24t-118.5 67t-85 111.5t-32 150.5q0 84 31.5 152t84.5 110.5t118.5 65.5t135.5 23q224 0 360 -151v214q0 114 -81.5 179 t-204.5 65q-99 0 -179 -37t-152 -119l-63 79q84 91 181.5 134.5t226.5 43.5q82 0 151 -20.5t122 -61t82.5 -106.5t29.5 -152v-745q-173 -83 -173 -217q0 -58 28.5 -88t77.5 -30q89 0 119 96zM531 63q97 0 180.5 37.5t139.5 108.5v232q-56 71 -139.5 108.5t-180.5 37.5 q-130 0 -210 -74t-80 -189q0 -113 80 -187t210 -74z" />
<glyph unicode="&#x106;" horiz-adv-x="1472" d="M1223 1900l-377 -315h-97l338 315h136zM868 -27q-154 0 -290.5 55.5t-235.5 153.5t-157 240.5t-58 307.5t58 307t157 240t235.5 153.5t290.5 55.5q324 0 533 -259l-106 -68q-71 97 -184.5 155t-242.5 58q-128 0 -240.5 -47.5t-193.5 -130.5t-128 -203.5t-47 -260.5 q0 -139 47 -259t128 -204t193.5 -131.5t240.5 -47.5q129 0 242.5 57.5t184.5 155.5l106 -67q-211 -261 -533 -261z" />
<glyph unicode="&#x107;" horiz-adv-x="1081" d="M987 1534l-378 -315h-96l338 315h136zM631 -27q-114 0 -211 44t-163 119t-103 177t-37 217.5t37 217t103 176.5t163 118t211 43q130 0 217.5 -46t157.5 -134l-79 -70q-109 147 -289 147q-121 0 -212.5 -60t-139 -162t-47.5 -229.5t47.5 -230t139 -163t212.5 -60.5 q179 0 289 149l79 -71q-70 -89 -157.5 -135.5t-217.5 -46.5z" />
<glyph unicode="&#x108;" horiz-adv-x="1472" d="M1142 1585h-88l-188 247l-187 -247h-85l213 315h117zM868 -27q-154 0 -290.5 55.5t-235.5 153.5t-157 240.5t-58 307.5t58 307t157 240t235.5 153.5t290.5 55.5q324 0 533 -259l-106 -68q-71 97 -184.5 155t-242.5 58q-128 0 -240.5 -47.5t-193.5 -130.5t-128 -203.5 t-47 -260.5q0 -139 47 -259t128 -204t193.5 -131.5t240.5 -47.5q129 0 242.5 57.5t184.5 155.5l106 -67q-211 -261 -533 -261z" />
<glyph unicode="&#x109;" horiz-adv-x="1081" d="M907 1219h-87l-189 247l-186 -247h-85l212 315h118zM631 -27q-114 0 -211 44t-163 119t-103 177t-37 217.5t37 217t103 176.5t163 118t211 43q130 0 217.5 -46t157.5 -134l-79 -70q-109 147 -289 147q-121 0 -212.5 -60t-139 -162t-47.5 -229.5t47.5 -230t139 -163 t212.5 -60.5q179 0 289 149l79 -71q-70 -89 -157.5 -135.5t-217.5 -46.5z" />
<glyph unicode="&#x10a;" horiz-adv-x="1472" d="M868 -27q-154 0 -290.5 55.5t-235.5 153.5t-157 240.5t-58 307.5t58 307t157 240t235.5 153.5t290.5 55.5q324 0 533 -259l-106 -68q-71 97 -184.5 155t-242.5 58q-128 0 -240.5 -47.5t-193.5 -130.5t-128 -203.5t-47 -260.5q0 -139 47 -259t128 -204t193.5 -131.5 t240.5 -47.5q129 0 242.5 57.5t184.5 155.5l106 -67q-211 -261 -533 -261zM872 1595q-34 0 -58.5 24.5t-24.5 59.5q0 33 24.5 58t58.5 25q33 0 57 -25t24 -58q0 -35 -24 -59.5t-57 -24.5z" />
<glyph unicode="&#x10b;" horiz-adv-x="1081" d="M631 -27q-114 0 -211 44t-163 119t-103 177t-37 217.5t37 217t103 176.5t163 118t211 43q130 0 217.5 -46t157.5 -134l-79 -70q-109 147 -289 147q-121 0 -212.5 -60t-139 -162t-47.5 -229.5t47.5 -230t139 -163t212.5 -60.5q179 0 289 149l79 -71q-70 -89 -157.5 -135.5 t-217.5 -46.5zM638 1229q-35 0 -59.5 24.5t-24.5 59.5q0 33 25 58t59 25q32 0 56.5 -25t24.5 -58q0 -34 -24 -59t-57 -25z" />
<glyph unicode="&#x10c;" horiz-adv-x="1472" d="M931 1585h-118l-219 315h85l193 -248l182 248h88zM868 -27q-154 0 -290.5 55.5t-235.5 153.5t-157 240.5t-58 307.5t58 307t157 240t235.5 153.5t290.5 55.5q324 0 533 -259l-106 -68q-71 97 -184.5 155t-242.5 58q-128 0 -240.5 -47.5t-193.5 -130.5t-128 -203.5 t-47 -260.5q0 -139 47 -259t128 -204t193.5 -131.5t240.5 -47.5q129 0 242.5 57.5t184.5 155.5l106 -67q-211 -261 -533 -261z" />
<glyph unicode="&#x10d;" horiz-adv-x="1081" d="M697 1219h-118l-219 315h85l193 -248l182 248h87zM631 -27q-114 0 -211 44t-163 119t-103 177t-37 217.5t37 217t103 176.5t163 118t211 43q130 0 217.5 -46t157.5 -134l-79 -70q-109 147 -289 147q-121 0 -212.5 -60t-139 -162t-47.5 -229.5t47.5 -230t139 -163 t212.5 -60.5q179 0 289 149l79 -71q-70 -89 -157.5 -135.5t-217.5 -46.5z" />
<glyph unicode="&#x10e;" horiz-adv-x="1516" d="M822 1585h-119l-218 315h84l194 -248l182 248h88zM648 0h-466v1462h466q134 0 251 -37.5t205.5 -105t152.5 -158.5t97 -201t33 -230q0 -152 -52.5 -285.5t-146.5 -232t-233.5 -155.5t-306.5 -57zM648 113q141 0 257 48.5t192 132t117.5 195.5t41.5 240.5t-41 241 t-117 196.5t-192 132.5t-258 48.5h-341v-1235h341z" />
<glyph unicode="&#x10f;" horiz-adv-x="1369" d="M1378 1359q0 -84 -42 -159.5t-104 -120.5l-59 48q50 36 84 91t36 103q-15 -2 -22 -2q-34 0 -56.5 24t-22.5 60q0 35 24 60t59 25q44 0 73.5 -34.5t29.5 -94.5zM1074 0h-116v169q-39 -56 -93.5 -99.5t-126.5 -70t-148 -26.5q-140 0 -247 67.5t-166.5 194t-59.5 294.5 q0 124 34.5 228t96.5 176t149.5 112t192.5 40q111 0 206.5 -52.5t161.5 -145.5v575h116v-1462zM609 77q107 0 204 54.5t145 133.5v524q-48 80 -145 136.5t-204 56.5q-114 0 -199 -60t-128 -162t-43 -231.5t43 -231t127.5 -161t199.5 -59.5z" />
<glyph unicode="&#x110;" horiz-adv-x="1579" d="M715 0h-468v677h-222v97h222v688h468q95 0 183 -19.5t161.5 -55.5t136 -87t110 -114t80.5 -135.5t50 -154t17 -166.5q0 -152 -52 -285.5t-146 -232t-234 -155.5t-306 -57zM715 113q113 0 210.5 31.5t169.5 87.5t123.5 133t77 169.5t25.5 195.5q0 128 -40.5 240.5 t-116.5 196.5t-192 132.5t-257 48.5h-343v-574h393v-97h-393v-564h343z" />
<glyph unicode="&#x111;" horiz-adv-x="1252" d="M1074 0h-116v169q-39 -56 -93.5 -99.5t-126.5 -70t-148 -26.5q-140 0 -247 67.5t-166.5 194t-59.5 294.5q0 124 34.5 228t96.5 176t149.5 112t192.5 40q111 0 206.5 -52.5t161.5 -145.5v292h-353v81h353v202h116v-202h158v-81h-158v-1179zM609 77q107 0 204 54.5 t145 133.5v524q-48 80 -145 136.5t-204 56.5q-114 0 -199 -60t-128 -162t-43 -231.5t43 -231t127.5 -161t199.5 -59.5z" />
<glyph unicode="&#x112;" horiz-adv-x="1235" d="M1109 0h-927v1462h927v-114h-802v-541h787v-115h-787v-579h802v-113zM1039 1631h-796v80h796v-80z" />
<glyph unicode="&#x113;" horiz-adv-x="1242" d="M646 -27q-153 0 -273.5 71t-188 198.5t-67.5 288.5q0 113 38.5 215.5t106 177t162.5 118t203 43.5q118 0 213.5 -45t157.5 -122t95.5 -178.5t33.5 -216.5v-30h-886q3 -69 23 -132t56 -115.5t84.5 -91t113 -60t137.5 -21.5q101 0 190.5 37.5t156.5 108.5l58 -75 q-164 -171 -414 -171zM1010 583q-1 56 -15 111.5t-45 108.5t-75 93.5t-108.5 65.5t-141.5 25q-61 0 -114.5 -17.5t-94 -47t-73.5 -68.5t-54.5 -84.5t-33.5 -92.5t-14 -94h769zM1023 1265h-795v80h795v-80z" />
<glyph unicode="&#x114;" horiz-adv-x="1235" d="M1109 0h-927v1462h927v-114h-802v-541h787v-115h-787v-579h802v-113zM1030 1744q-66 -90 -166.5 -141t-217.5 -51q-115 0 -216 51t-169 141l63 55q37 -51 85.5 -87.5t109 -56.5t127.5 -20q99 0 182 43.5t140 120.5z" />
<glyph unicode="&#x115;" horiz-adv-x="1242" d="M646 -27q-153 0 -273.5 71t-188 198.5t-67.5 288.5q0 113 38.5 215.5t106 177t162.5 118t203 43.5q118 0 213.5 -45t157.5 -122t95.5 -178.5t33.5 -216.5v-30h-886q3 -69 23 -132t56 -115.5t84.5 -91t113 -60t137.5 -21.5q101 0 190.5 37.5t156.5 108.5l58 -75 q-164 -171 -414 -171zM1010 583q-1 56 -15 111.5t-45 108.5t-75 93.5t-108.5 65.5t-141.5 25q-61 0 -114.5 -17.5t-94 -47t-73.5 -68.5t-54.5 -84.5t-33.5 -92.5t-14 -94h769zM1016 1378q-66 -90 -166 -141t-217 -51q-115 0 -216.5 51t-169.5 141l64 55q37 -51 85.5 -87.5 t109.5 -56.5t127 -20q99 0 182 43.5t141 120.5z" />
<glyph unicode="&#x116;" horiz-adv-x="1235" d="M1109 0h-927v1462h927v-114h-802v-541h787v-115h-787v-579h802v-113zM657 1595q-34 0 -58 24.5t-24 59.5q0 22 10.5 41t30 30.5t41.5 11.5q21 0 40 -11.5t30 -31t11 -40.5q0 -35 -24 -59.5t-57 -24.5z" />
<glyph unicode="&#x117;" horiz-adv-x="1242" d="M646 -27q-153 0 -273.5 71t-188 198.5t-67.5 288.5q0 113 38.5 215.5t106 177t162.5 118t203 43.5q118 0 213.5 -45t157.5 -122t95.5 -178.5t33.5 -216.5v-30h-886q3 -69 23 -132t56 -115.5t84.5 -91t113 -60t137.5 -21.5q101 0 190.5 37.5t156.5 108.5l58 -75 q-164 -171 -414 -171zM1010 583q-1 56 -15 111.5t-45 108.5t-75 93.5t-108.5 65.5t-141.5 25q-61 0 -114.5 -17.5t-94 -47t-73.5 -68.5t-54.5 -84.5t-33.5 -92.5t-14 -94h769zM631 1229q-34 0 -58.5 24.5t-24.5 59.5q0 33 24.5 58t58.5 25q33 0 57.5 -25t24.5 -58 q0 -34 -24.5 -59t-57.5 -25z" />
<glyph unicode="&#x118;" horiz-adv-x="1235" d="M1109 0q-174 -83 -174 -217q0 -58 28.5 -88t77.5 -30q90 0 120 96l68 -35q-57 -134 -188 -134q-51 0 -92 18.5t-67.5 61.5t-26.5 107q0 61 32.5 119.5t89.5 101.5h-795v1462h927v-114h-802v-541h787v-115h-787v-579h802v-113z" />
<glyph unicode="&#x119;" horiz-adv-x="1242" d="M646 -27q-153 0 -273.5 71t-188 198.5t-67.5 288.5q0 113 38.5 215.5t106 177t162.5 118t203 43.5q118 0 213.5 -45t157.5 -122t95.5 -178.5t33.5 -216.5v-30h-886q3 -69 23 -132t56 -115.5t84.5 -91t113 -60t137.5 -21.5q101 0 190.5 37.5t156.5 108.5l58 -75 q-103 -106 -230 -144q-173 -83 -173 -217q0 -58 28.5 -88t77.5 -30q89 0 120 96l68 -35q-57 -134 -188 -134q-52 0 -92.5 18.5t-67 61.5t-26.5 107q0 106 92 194h-23zM1010 583q-1 56 -15 111.5t-45 108.5t-75 93.5t-108.5 65.5t-141.5 25q-61 0 -114.5 -17.5t-94 -47 t-73.5 -68.5t-54.5 -84.5t-33.5 -92.5t-14 -94h769z" />
<glyph unicode="&#x11a;" horiz-adv-x="1235" d="M713 1585h-119l-220 315h86l193 -248l182 248h87zM1109 0h-927v1462h927v-114h-802v-541h787v-115h-787v-579h802v-113z" />
<glyph unicode="&#x11b;" horiz-adv-x="1242" d="M692 1219h-117l-220 315h86l192 -248l182 248h88zM646 -27q-153 0 -273.5 71t-188 198.5t-67.5 288.5q0 113 38.5 215.5t106 177t162.5 118t203 43.5q118 0 213.5 -45t157.5 -122t95.5 -178.5t33.5 -216.5v-30h-886q3 -69 23 -132t56 -115.5t84.5 -91t113 -60 t137.5 -21.5q101 0 190.5 37.5t156.5 108.5l58 -75q-164 -171 -414 -171zM1010 583q-1 56 -15 111.5t-45 108.5t-75 93.5t-108.5 65.5t-141.5 25q-61 0 -114.5 -17.5t-94 -47t-73.5 -68.5t-54.5 -84.5t-33.5 -92.5t-14 -94h769z" />
<glyph unicode="&#x11c;" horiz-adv-x="1557" d="M1152 1585h-87l-189 247l-186 -247h-85l212 315h118zM868 -29q-153 0 -289 55.5t-235.5 154t-158 241t-58.5 308t58.5 308t158.5 240.5t235.5 153t288.5 55q331 0 550 -250l-94 -68q-79 94 -199 149t-257 55q-128 0 -240.5 -47.5t-193.5 -130.5t-128 -203.5t-47 -260.5 q0 -139 47 -259.5t128 -204.5t193.5 -132t240.5 -48q69 0 136.5 15.5t121.5 42.5t96 56.5t75 62.5v350h-552v112h677v-510q-66 -74 -149.5 -127.5t-188 -85t-216.5 -31.5z" />
<glyph unicode="&#x11d;" horiz-adv-x="1248" d="M905 1219h-88l-188 247l-186 -247h-86l212 315h119zM596 -429q-139 0 -232.5 33.5t-183.5 125.5l65 88q68 -81 149.5 -115t201.5 -34q75 0 138.5 19.5t114.5 59t80 106t29 155.5v166q-60 -85 -158 -140.5t-210 -55.5q-140 0 -247 66.5t-166.5 192.5t-59.5 293 q0 165 59.5 291t166.5 194.5t247 68.5q111 0 206.5 -52.5t161.5 -145.5v171h116v-1047q0 -95 -25 -170.5t-68.5 -125t-104.5 -82.5t-130.5 -47.5t-149.5 -14.5zM609 81q106 0 203.5 56.5t145.5 136.5v515q-48 80 -145.5 136.5t-203.5 56.5q-115 0 -199.5 -59.5t-127.5 -161 t-43 -230.5t43 -230.5t127.5 -160.5t199.5 -59z" />
<glyph unicode="&#x11e;" horiz-adv-x="1557" d="M868 -29q-153 0 -289 55.5t-235.5 154t-158 241t-58.5 308t58.5 308t158.5 240.5t235.5 153t288.5 55q331 0 550 -250l-94 -68q-79 94 -199 149t-257 55q-128 0 -240.5 -47.5t-193.5 -130.5t-128 -203.5t-47 -260.5q0 -139 47 -259.5t128 -204.5t193.5 -132t240.5 -48 q69 0 136.5 15.5t121.5 42.5t96 56.5t75 62.5v350h-552v112h677v-510q-66 -74 -149.5 -127.5t-188 -85t-216.5 -31.5zM1258 1744q-66 -90 -166.5 -141t-217.5 -51q-115 0 -216 51t-169 141l63 55q37 -51 85.5 -87.5t109 -56.5t127.5 -20q99 0 182 43.5t140 120.5z" />
<glyph unicode="&#x11f;" horiz-adv-x="1248" d="M596 -429q-139 0 -232.5 33.5t-183.5 125.5l65 88q68 -81 149.5 -115t201.5 -34q75 0 138.5 19.5t114.5 59t80 106t29 155.5v166q-60 -85 -158 -140.5t-210 -55.5q-140 0 -247 66.5t-166.5 192.5t-59.5 293q0 165 59.5 291t166.5 194.5t247 68.5q111 0 206.5 -52.5 t161.5 -145.5v171h116v-1047q0 -95 -25 -170.5t-68.5 -125t-104.5 -82.5t-130.5 -47.5t-149.5 -14.5zM609 81q106 0 203.5 56.5t145.5 136.5v515q-48 80 -145.5 136.5t-203.5 56.5q-115 0 -199.5 -59.5t-127.5 -161t-43 -230.5t43 -230.5t127.5 -160.5t199.5 -59zM1010 1378 q-67 -90 -167 -141t-216 -51q-115 0 -216.5 51t-169.5 141l64 55q37 -51 85.5 -87.5t109 -56.5t127.5 -20q98 0 181.5 43.5t140.5 120.5z" />
<glyph unicode="&#x120;" horiz-adv-x="1557" d="M868 -29q-153 0 -289 55.5t-235.5 154t-158 241t-58.5 308t58.5 308t158.5 240.5t235.5 153t288.5 55q331 0 550 -250l-94 -68q-79 94 -199 149t-257 55q-128 0 -240.5 -47.5t-193.5 -130.5t-128 -203.5t-47 -260.5q0 -139 47 -259.5t128 -204.5t193.5 -132t240.5 -48 q69 0 136.5 15.5t121.5 42.5t96 56.5t75 62.5v350h-552v112h677v-510q-66 -74 -149.5 -127.5t-188 -85t-216.5 -31.5zM874 1595q-34 0 -58.5 24.5t-24.5 59.5q0 33 24.5 58t58.5 25q22 0 40.5 -11.5t30 -31t11.5 -40.5q0 -35 -24.5 -59.5t-57.5 -24.5z" />
<glyph unicode="&#x121;" horiz-adv-x="1248" d="M596 -429q-139 0 -232.5 33.5t-183.5 125.5l65 88q68 -81 149.5 -115t201.5 -34q75 0 138.5 19.5t114.5 59t80 106t29 155.5v166q-60 -85 -158 -140.5t-210 -55.5q-140 0 -247 66.5t-166.5 192.5t-59.5 293q0 165 59.5 291t166.5 194.5t247 68.5q111 0 206.5 -52.5 t161.5 -145.5v171h116v-1047q0 -95 -25 -170.5t-68.5 -125t-104.5 -82.5t-130.5 -47.5t-149.5 -14.5zM609 81q106 0 203.5 56.5t145.5 136.5v515q-48 80 -145.5 136.5t-203.5 56.5q-115 0 -199.5 -59.5t-127.5 -161t-43 -230.5t43 -230.5t127.5 -160.5t199.5 -59zM625 1229 q-35 0 -59.5 24.5t-24.5 59.5q0 33 25 58t59 25q21 0 40 -11.5t29.5 -30.5t10.5 -41q0 -23 -11 -42t-29.5 -30.5t-39.5 -11.5z" />
<glyph unicode="&#x122;" horiz-adv-x="1557" d="M973 -301q0 -83 -42 -159t-105 -121l-59 48q51 36 84.5 91.5t35.5 104.5q-15 -2 -21 -2q-35 0 -57.5 23t-22.5 59q0 23 11 42.5t30 31.5t43 12q43 0 73 -35t30 -95zM868 -29q-153 0 -289 55.5t-235.5 154t-158 241t-58.5 308t58.5 308t158.5 240.5t235.5 153t288.5 55 q331 0 550 -250l-94 -68q-79 94 -199 149t-257 55q-128 0 -240.5 -47.5t-193.5 -130.5t-128 -203.5t-47 -260.5q0 -139 47 -259.5t128 -204.5t193.5 -132t240.5 -48q69 0 136.5 15.5t121.5 42.5t96 56.5t75 62.5v350h-552v112h677v-510q-66 -74 -149.5 -127.5t-188 -85 t-216.5 -31.5z" />
<glyph unicode="&#x123;" horiz-adv-x="1248" d="M526 1336q0 93 42 175.5t99 121.5l63 -48q-51 -37 -86.5 -92t-36.5 -102l4.5 1.5t6.5 1.5q21 0 40.5 -11.5t32 -31.5t12.5 -42q0 -36 -25.5 -62t-62.5 -26q-24 0 -44 13.5t-32.5 40t-12.5 61.5zM596 -429q-139 0 -232.5 33.5t-183.5 125.5l65 88q68 -81 149.5 -115 t201.5 -34q75 0 138.5 19.5t114.5 59t80 106t29 155.5v166q-60 -85 -158 -140.5t-210 -55.5q-140 0 -247 66.5t-166.5 192.5t-59.5 293q0 165 59.5 291t166.5 194.5t247 68.5q111 0 206.5 -52.5t161.5 -145.5v171h116v-1047q0 -95 -25 -170.5t-68.5 -125t-104.5 -82.5 t-130.5 -47.5t-149.5 -14.5zM609 81q106 0 203.5 56.5t145.5 136.5v515q-48 80 -145.5 136.5t-203.5 56.5q-115 0 -199.5 -59.5t-127.5 -161t-43 -230.5t43 -230.5t127.5 -160.5t199.5 -59z" />
<glyph unicode="&#x124;" horiz-adv-x="1539" d="M1039 1585h-88l-188 247l-186 -247h-86l212 315h119zM1361 0h-127v694h-927v-694h-125v1462h125v-653h927v653h127v-1462z" />
<glyph unicode="&#x125;" horiz-adv-x="1182" d="M872 1585h-88l-188 247l-186 -247h-86l213 315h118zM1006 0h-114v721q0 75 -18 126.5t-53 80.5t-80 41.5t-105 12.5q-99 0 -195.5 -53t-149.5 -129v-800h-113v1462h113v-563q63 75 168.5 130.5t213.5 55.5q165 0 249 -82.5t84 -257.5v-745z" />
<glyph unicode="&#x126;" horiz-adv-x="1585" d="M1385 0h-127v694h-927v-694h-124v1096h-182v81h182v285h124v-285h927v285h127v-285h177v-81h-177v-1096zM331 809h927v287h-927v-287z" />
<glyph unicode="&#x127;" horiz-adv-x="1184" d="M648 1179h-355v-280q30 35 71.5 68t91 59.5t107 42.5t112.5 16q165 0 249 -82.5t84 -257.5v-745h-113v721q0 75 -18.5 126.5t-53.5 80.5t-80 41.5t-105 12.5q-99 0 -195.5 -53t-149.5 -129v-800h-113v1179h-159v81h159v202h113v-202h355v-81z" />
<glyph unicode="&#x128;" horiz-adv-x="487" d="M307 0h-125v1462h125v-1462zM379 1580q-39 0 -70 17t-49.5 42t-37 54.5t-33 54.5t-37 41.5t-49.5 16.5q-52 0 -85 -53.5t-33 -159.5h-77q0 84 23 149.5t69.5 104.5t110.5 39q38 0 68.5 -16.5t49 -41t37 -53.5t33 -54t37 -41.5t49.5 -16.5q52 0 84.5 53t32.5 158h79 q0 -129 -53.5 -211.5t-148.5 -82.5z" />
<glyph unicode="&#x129;" horiz-adv-x="468" d="M291 0h-113v1058h113v-1058zM368 1214q-39 0 -69.5 17t-49 42t-37.5 54.5t-33.5 54.5t-37 41.5t-49.5 16.5q-25 0 -46 -12.5t-37.5 -37.5t-26 -67t-9.5 -96h-76q0 128 54 210.5t150 82.5q38 0 68.5 -16.5t48.5 -41t36.5 -53.5t33 -54t37 -41.5t49.5 -16.5q52 0 84.5 53 t32.5 158h78q0 -129 -52.5 -211.5t-148.5 -82.5z" />
<glyph unicode="&#x12a;" horiz-adv-x="487" d="M307 0h-125v1462h125v-1462zM644 1631h-795v80h795v-80z" />
<glyph unicode="&#x12b;" horiz-adv-x="468" d="M291 0h-113v1058h113v-1058zM633 1265h-796v80h796v-80z" />
<glyph unicode="&#x12c;" horiz-adv-x="487" d="M307 0h-125v1462h125v-1462zM631 1744q-44 -59 -103 -102.5t-131 -66.5t-150 -23q-115 0 -216 51t-169 141l63 55q37 -51 85.5 -87.5t109 -56.5t127.5 -20q99 0 182 43.5t140 120.5z" />
<glyph unicode="&#x12d;" horiz-adv-x="468" d="M291 0h-113v1058h113v-1058zM621 1378q-67 -90 -167.5 -141t-217.5 -51q-115 0 -215.5 51t-169.5 141l63 55q56 -77 139 -120.5t183 -43.5q99 0 182 43.5t141 120.5z" />
<glyph unicode="&#x12e;" horiz-adv-x="487" d="M360 -239l67 -35q-57 -134 -188 -134q-81 0 -134 46.5t-53 140.5q0 63 35 122.5t95 102.5v1458h125v-1462q-173 -83 -173 -217q0 -39 13 -65.5t36.5 -39.5t55.5 -13q90 0 121 96z" />
<glyph unicode="&#x12f;" horiz-adv-x="468" d="M345 -239l67 -35q-57 -134 -188 -134q-52 0 -92.5 18.5t-67.5 61.5t-27 107q0 65 38 126.5t103 105.5v1047h113v-1058q-172 -83 -172 -217q0 -39 13 -65.5t36.5 -39.5t55.5 -13q90 0 121 96zM234 1225q-35 0 -61 26t-26 62q0 23 12 43t32.5 31t42.5 11q37 0 62.5 -24.5 t25.5 -60.5t-26 -62t-62 -26z" />
<glyph unicode="&#x130;" horiz-adv-x="487" d="M307 0h-125v1462h125v-1462zM247 1595q-22 0 -41 11.5t-30 30.5t-11 42q0 33 24 58t58 25q33 0 57 -25t24 -58q0 -35 -24 -59.5t-57 -24.5z" />
<glyph unicode="&#x131;" horiz-adv-x="468" d="M291 0h-113v1058h113v-1058z" />
<glyph unicode="&#x132;" horiz-adv-x="1518" d="M307 0h-125v1462h125v-1462zM895 -27q-120 0 -212.5 43.5t-163.5 136.5l77 94q56 -73 126 -116t165 -43q148 0 235 92.5t87 242.5v1039h127v-1039q0 -112 -34.5 -199t-95.5 -141t-140 -82t-171 -28z" />
<glyph unicode="&#x133;" horiz-adv-x="935" d="M234 1225q-35 0 -61 26t-26 62q0 23 12 43t32.5 31t42.5 11q37 0 62.5 -24.5t25.5 -60.5t-26 -62t-62 -26zM291 0h-113v1058h113v-1058zM703 1225q-23 0 -43 12t-32.5 32t-12.5 43.5t12.5 43.5t32.5 31t43 11q36 0 62 -24.5t26 -60.5t-26 -62t-62 -26zM473 -429 q-48 0 -85.5 9t-67.5 26t-63 45l50 90q68 -72 155 -72q54 0 94 19.5t65 64.5t25 111v1194h115v-1194q0 -144 -75 -218.5t-213 -74.5z" />
<glyph unicode="&#x134;" horiz-adv-x="1029" d="M1058 1585h-88l-188 247l-186 -247h-86l213 315h118zM406 -27q-120 0 -212 43.5t-163 136.5l76 94q122 -159 292 -159q148 0 235 92.5t87 242.5v1039h128v-1039q0 -112 -35 -199t-96 -141t-140.5 -82t-171.5 -28z" />
<glyph unicode="&#x135;" horiz-adv-x="468" d="M510 1219h-87l-189 247l-186 -247h-85l212 315h118zM4 -429q-70 0 -119 19t-98 61l50 90q68 -72 157 -72q53 0 93 19.5t65.5 64.5t25.5 111v1194h113v-1194q0 -144 -74.5 -218.5t-212.5 -74.5z" />
<glyph unicode="&#x136;" horiz-adv-x="1290" d="M756 -301q0 -83 -42 -159t-105 -121l-59 48q51 36 85 91.5t36 104.5q-16 -2 -23 -2q-34 0 -56.5 23t-22.5 59q0 23 11 42.5t30 31.5t43 12q43 0 73 -35t30 -95zM1232 0h-161l-602 688l-162 -178v-510h-125v1462h125v-801l705 801h161l-623 -697z" />
<glyph unicode="&#x137;" horiz-adv-x="1106" d="M667 -301q0 -83 -42.5 -159t-105.5 -121l-59 48q51 36 85 91.5t36 104.5q-16 -2 -22 -2q-35 0 -57 23t-22 59q0 17 6.5 33t17 27.5t26 18.5t33.5 7q43 0 73.5 -35t30.5 -95zM1065 0h-153l-423 504l-198 -186v-318h-113v1462h113v-1008l625 604h151l-492 -477z" />
<glyph unicode="&#x138;" horiz-adv-x="1106" d="M1065 0h-153l-423 504l-198 -186v-318h-113v1058h113v-604l625 604h151l-492 -477z" />
<glyph unicode="&#x139;" horiz-adv-x="1104" d="M953 1900l-376 -315h-97l337 315h136zM1014 0h-832v1462h125v-1349h707v-113z" />
<glyph unicode="&#x13a;" horiz-adv-x="468" d="M590 1900l-377 -315h-96l337 315h136zM291 0h-113v1462h113v-1462z" />
<glyph unicode="&#x13b;" horiz-adv-x="1104" d="M692 -301q0 -83 -41.5 -159t-104.5 -121l-59 48q50 36 84 91.5t36 104.5q-15 -2 -22 -2q-34 0 -56.5 23t-22.5 59q0 23 10.5 42.5t30 31.5t43.5 12q43 0 72.5 -35t29.5 -95zM1014 0h-832v1462h125v-1349h707v-113z" />
<glyph unicode="&#x13c;" horiz-adv-x="468" d="M347 -301q0 -83 -42.5 -159t-105.5 -121l-59 48q51 36 85 91.5t36 104.5q-16 -2 -22 -2q-35 0 -57 23t-22 59q0 35 23.5 60.5t59.5 25.5q43 0 73.5 -35t30.5 -95zM291 0h-113v1462h113v-1462z" />
<glyph unicode="&#x13d;" horiz-adv-x="1104" d="M717 1359q0 -84 -42.5 -159.5t-105.5 -120.5l-59 48q51 36 85.5 91t35.5 103q-16 -2 -22 -2q-35 0 -56.5 23.5t-21.5 60.5q0 35 23.5 60t58.5 25q43 0 73.5 -34.5t30.5 -94.5zM1014 0h-832v1462h125v-1349h707v-113z" />
<glyph unicode="&#x13e;" horiz-adv-x="577" d="M627 1359q0 -84 -42 -159.5t-105 -120.5l-59 48q50 36 84.5 91t35.5 103q-16 -2 -22 -2q-34 0 -56 23.5t-22 60.5q0 35 23.5 60t58.5 25q28 0 51.5 -14.5t38 -44.5t14.5 -70zM291 0h-113v1462h113v-1462z" />
<glyph unicode="&#x13f;" horiz-adv-x="1104" d="M1014 0h-832v1462h125v-1349h707v-113zM881 749q0 -39 -29.5 -67.5t-69.5 -28.5q-39 0 -67.5 28.5t-28.5 67.5q0 38 28.5 66t68 28t69 -28t29.5 -66z" />
<glyph unicode="&#x140;" horiz-adv-x="598" d="M291 0h-113v1462h113v-1462zM631 537q0 -26 -13.5 -48t-36 -35t-48.5 -13q-39 0 -67.5 28.5t-28.5 67.5q0 38 28.5 66t67.5 28t68.5 -28t29.5 -66z" />
<glyph unicode="&#x141;" horiz-adv-x="1152" d="M25 510v117l205 118v717h125v-645l230 136v-116l-230 -136v-588h708v-113h-833v629z" />
<glyph unicode="&#x142;" horiz-adv-x="606" d="M25 521v102l222 126v713h115v-647l221 128v-102l-221 -126v-715h-115v648z" />
<glyph unicode="&#x143;" horiz-adv-x="1531" d="M1152 1900l-376 -315h-97l337 315h136zM1350 0h-123l-920 1256v-1256h-125v1462h127l916 -1238v1238h125v-1462z" />
<glyph unicode="&#x144;" horiz-adv-x="1182" d="M947 1534l-378 -315h-96l338 315h136zM1006 0h-114v717q0 74 -18 126.5t-53 82.5t-80 43t-105 13q-99 0 -195.5 -53t-149.5 -129v-800h-113v1058h113v-159q63 75 168.5 130.5t213.5 55.5q333 0 333 -345v-740z" />
<glyph unicode="&#x145;" horiz-adv-x="1531" d="M878 -301q0 -56 -20 -111t-53 -97.5t-73 -71.5l-59 48q25 18 47 42t37.5 49.5t25 53t10.5 51.5q-15 -2 -22 -2q-34 0 -56.5 23t-22.5 59q0 14 4 27t11.5 23.5t18 18.5t23.5 12.5t27 4.5q43 0 72.5 -35t29.5 -95zM1350 0h-123l-920 1256v-1256h-125v1462h127l916 -1238 v1238h125v-1462z" />
<glyph unicode="&#x146;" horiz-adv-x="1182" d="M701 -301q0 -56 -20.5 -111t-53 -97.5t-73.5 -71.5l-59 48q25 18 47 42t38 49.5t25 53t10 51.5q-15 -2 -21 -2q-35 0 -57 23t-22 59q0 35 24 60.5t59 25.5q21 0 39.5 -8.5t32.5 -24.5t22.5 -41t8.5 -56zM1006 0h-114v717q0 74 -18 126.5t-53 82.5t-80 43t-105 13 q-99 0 -195.5 -53t-149.5 -129v-800h-113v1058h113v-159q63 75 168.5 130.5t213.5 55.5q333 0 333 -345v-740z" />
<glyph unicode="&#x147;" horiz-adv-x="1531" d="M828 1585h-118l-219 315h86l192 -248l182 248h88zM1350 0h-123l-920 1256v-1256h-125v1462h127l916 -1238v1238h125v-1462z" />
<glyph unicode="&#x148;" horiz-adv-x="1182" d="M655 1219h-118l-219 315h85l193 -248l182 248h88zM1006 0h-114v717q0 74 -18 126.5t-53 82.5t-80 43t-105 13q-99 0 -195.5 -53t-149.5 -129v-800h-113v1058h113v-159q63 75 168.5 130.5t213.5 55.5q333 0 333 -345v-740z" />
<glyph unicode="&#x149;" horiz-adv-x="1182" d="M339 1479q0 -84 -42 -160t-104 -121l-59 49q50 36 84.5 91.5t36.5 103.5q-16 -2 -23 -2q-34 0 -56.5 23.5t-22.5 59.5q0 17 6.5 32.5t17.5 27t26.5 18.5t32.5 7q44 0 73.5 -34.5t29.5 -94.5zM1006 0h-114v717q0 74 -18 126.5t-53 82.5t-80 43t-105 13q-99 0 -195.5 -53 t-149.5 -129v-800h-113v1058h113v-159q63 75 168.5 130.5t213.5 55.5q333 0 333 -345v-740z" />
<glyph unicode="&#x14a;" horiz-adv-x="1531" d="M907 -429q-119 0 -211 43.5t-163 136.5l76 94q118 -161 294 -161q144 0 231.5 87.5t90.5 230.5l-918 1254v-1256h-125v1462h127l916 -1238v1238h125v-1449q0 -110 -34.5 -196t-96 -139t-140.5 -80t-172 -27z" />
<glyph unicode="&#x14b;" horiz-adv-x="1182" d="M1006 740v-876q0 -144 -74.5 -218.5t-212.5 -74.5q-69 0 -118.5 19t-96.5 61l48 94q72 -71 156 -71q55 0 95 19t64.5 62.5t24.5 108.5v853q0 74 -18 126.5t-53 82.5t-80 43t-105 13q-99 0 -195.5 -53t-149.5 -129v-800h-113v1058h113v-159q63 75 168.5 130.5t213.5 55.5 q333 0 333 -345z" />
<glyph unicode="&#x14c;" horiz-adv-x="1673" d="M1234 1631h-795v80h795v-80zM837 -27q-158 0 -291.5 58.5t-225 160t-142.5 240.5t-51 298t51 298t142.5 240.5t225 159.5t291.5 58q157 0 290.5 -58t225 -159.5t143 -240.5t51.5 -298t-51.5 -298.5t-143 -240.5t-225 -159.5t-290.5 -58.5zM837 88q129 0 238 48.5 t183.5 134t116 204t41.5 255.5q0 138 -41.5 257t-116 203.5t-183.5 133t-238 48.5q-131 0 -240 -48t-183 -133.5t-114.5 -203.5t-40.5 -257q0 -110 25.5 -208t75.5 -177t119.5 -137t161 -89t196.5 -31z" />
<glyph unicode="&#x14d;" d="M1023 1265h-795v80h795v-80zM625 -27q-114 0 -210 44t-161 119t-101 177t-36 217.5t36 217t101 176.5t161 118t210 43q92 0 173 -28t142 -78.5t105.5 -119t67 -152.5t22.5 -176.5t-22.5 -176.5t-67 -153t-105.5 -120t-142 -79.5t-173 -28.5zM625 77q90 0 165 37.5 t122.5 101t73.5 144.5t26 171q0 88 -26 169t-73.5 144t-122.5 100.5t-165 37.5q-60 0 -113.5 -17t-95.5 -47.5t-76 -73t-56 -92.5t-33.5 -106.5t-11.5 -114.5q0 -71 16 -138t49 -124t78.5 -100t108 -67.5t134.5 -24.5z" />
<glyph unicode="&#x14e;" horiz-adv-x="1673" d="M837 -27q-158 0 -291.5 58.5t-225 160t-142.5 240.5t-51 298t51 298t142.5 240.5t225 159.5t291.5 58q157 0 290.5 -58t225 -159.5t143 -240.5t51.5 -298t-51.5 -298.5t-143 -240.5t-225 -159.5t-290.5 -58.5zM837 88q129 0 238 48.5t183.5 134t116 204t41.5 255.5 q0 138 -41.5 257t-116 203.5t-183.5 133t-238 48.5q-131 0 -240 -48t-183 -133.5t-114.5 -203.5t-40.5 -257q0 -110 25.5 -208t75.5 -177t119.5 -137t161 -89t196.5 -31zM1219 1744q-67 -90 -167.5 -141t-216.5 -51q-115 0 -216 51t-170 141l64 55q55 -77 138.5 -120.5 t183.5 -43.5q49 0 95.5 11.5t87 33t75.5 51.5t64 68z" />
<glyph unicode="&#x14f;" d="M625 -27q-114 0 -210 44t-161 119t-101 177t-36 217.5t36 217t101 176.5t161 118t210 43q92 0 173 -28t142 -78.5t105.5 -119t67 -152.5t22.5 -176.5t-22.5 -176.5t-67 -153t-105.5 -120t-142 -79.5t-173 -28.5zM625 77q90 0 165 37.5t122.5 101t73.5 144.5t26 171 q0 88 -26 169t-73.5 144t-122.5 100.5t-165 37.5q-60 0 -113.5 -17t-95.5 -47.5t-76 -73t-56 -92.5t-33.5 -106.5t-11.5 -114.5q0 -71 16 -138t49 -124t78.5 -100t108 -67.5t134.5 -24.5zM1012 1378q-67 -90 -166.5 -141t-216.5 -51q-76 0 -148.5 23t-132.5 66.5t-105 102.5 l64 55q37 -51 85.5 -87.5t109 -56.5t127.5 -20q99 0 182 43.5t140 120.5z" />
<glyph unicode="&#x150;" horiz-adv-x="1673" d="M943 1900l-253 -315h-81l213 315h121zM1247 1900l-252 -315h-81l213 315h120zM837 -27q-158 0 -291.5 58.5t-225 160t-142.5 240.5t-51 298t51 298t142.5 240.5t225 159.5t291.5 58q157 0 290.5 -58t225 -159.5t143 -240.5t51.5 -298t-51.5 -298.5t-143 -240.5 t-225 -159.5t-290.5 -58.5zM837 88q129 0 238 48.5t183.5 134t116 204t41.5 255.5q0 138 -41.5 257t-116 203.5t-183.5 133t-238 48.5q-131 0 -240 -48t-183 -133.5t-114.5 -203.5t-40.5 -257q0 -110 25.5 -208t75.5 -177t119.5 -137t161 -89t196.5 -31z" />
<glyph unicode="&#x151;" d="M730 1534l-253 -315h-80l212 315h121zM1035 1534l-253 -315h-81l213 315h121zM625 -27q-114 0 -210 44t-161 119t-101 177t-36 217.5t36 217t101 176.5t161 118t210 43q92 0 173 -28t142 -78.5t105.5 -119t67 -152.5t22.5 -176.5t-22.5 -176.5t-67 -153t-105.5 -120 t-142 -79.5t-173 -28.5zM625 77q90 0 165 37.5t122.5 101t73.5 144.5t26 171q0 88 -26 169t-73.5 144t-122.5 100.5t-165 37.5q-60 0 -113.5 -17t-95.5 -47.5t-76 -73t-56 -92.5t-33.5 -106.5t-11.5 -114.5q0 -71 16 -138t49 -124t78.5 -100t108 -67.5t134.5 -24.5z" />
<glyph unicode="&#x152;" horiz-adv-x="2442" d="M2312 0h-927v305q-55 -107 -143.5 -183t-193 -112.5t-218.5 -36.5q-156 0 -288.5 58.5t-222.5 160t-141 240.5t-51 298t51 297.5t141 239t222.5 158.5t288.5 58q114 0 218.5 -36t193 -110.5t143.5 -179.5v305h927v-114h-800v-541h784v-115h-784v-579h800v-113zM1385 485 v492q-69 194 -213 293.5t-333 99.5q-132 0 -241 -48t-183.5 -132.5t-115 -202.5t-40.5 -257q0 -111 25.5 -209t75.5 -177t120 -136.5t161.5 -88.5t197.5 -31q188 0 332 101.5t214 295.5z" />
<glyph unicode="&#x153;" horiz-adv-x="2135" d="M2020 493h-883q3 -69 22.5 -132t55 -115.5t84 -91t113 -60t137.5 -21.5q209 0 349 146l59 -75q-168 -171 -414 -171q-84 0 -156.5 22.5t-122 56.5t-89.5 80t-63 88t-38 85q-16 -42 -37 -81.5t-59.5 -87t-85.5 -82t-116.5 -58t-150.5 -23.5q-114 0 -210 44t-161 119 t-101 177t-36 217.5t36 217t101 176.5t161 118t210 43q68 0 128.5 -16t105.5 -43.5t81.5 -61t63 -72t43 -72t27.5 -66.5q14 41 36.5 81.5t61.5 87t86.5 81.5t116 58t145.5 23q118 0 214 -45t158 -122t95 -178.5t33 -216.5v-30zM1135 583h770q-1 56 -15.5 111.5t-45.5 108.5 t-75 93.5t-109 65.5t-142 25q-71 0 -133 -24.5t-106 -65t-76 -93t-48.5 -108.5t-19.5 -113zM1012 531q0 90 -26 171t-74 143.5t-122.5 99.5t-164.5 37q-89 0 -162.5 -37t-122 -99.5t-75 -143.5t-26.5 -171q0 -91 26.5 -173t75 -145.5t122 -100.5t162.5 -37q90 0 164.5 37 t122.5 100.5t74 145.5t26 173z" />
<glyph unicode="&#x154;" horiz-adv-x="1301" d="M1021 1900l-377 -315h-96l337 315h136zM1190 0h-151l-410 605h-322v-605h-125v1462h546q126 0 226.5 -50.5t159.5 -148.5t59 -228q0 -97 -33 -176.5t-89 -131.5t-128.5 -81.5t-155.5 -32.5zM717 719q144 0 234 88.5t90 227.5q0 138 -90 225.5t-234 87.5h-410v-629h410z " />
<glyph unicode="&#x155;" horiz-adv-x="694" d="M769 1534l-376 -315h-98l338 315h136zM291 0h-113v1058h113v-182q72 95 162.5 150t194.5 55v-125q-19 4 -56 4q-52 0 -114 -28t-112.5 -71.5t-74.5 -89.5v-771z" />
<glyph unicode="&#x156;" horiz-adv-x="1301" d="M765 -301q0 -83 -42 -159t-105 -121l-59 48q50 36 84.5 91.5t35.5 104.5q-16 -2 -22 -2q-34 0 -56 23t-22 59q0 35 23.5 60.5t58.5 25.5q43 0 73.5 -35t30.5 -95zM1190 0h-151l-410 605h-322v-605h-125v1462h546q126 0 226.5 -50.5t159.5 -148.5t59 -228 q0 -97 -33 -176.5t-89 -131.5t-128.5 -81.5t-155.5 -32.5zM717 719q144 0 234 88.5t90 227.5q0 138 -90 225.5t-234 87.5h-410v-629h410z" />
<glyph unicode="&#x157;" horiz-adv-x="694" d="M460 -301q0 -56 -20.5 -111t-53 -97.5t-72.5 -71.5l-59 48q50 36 84 91.5t35 104.5q-14 -2 -21 -2q-34 0 -56.5 23t-22.5 59q0 35 24 60.5t59 25.5q43 0 73 -35t30 -95zM291 0h-113v1058h113v-182q72 95 162.5 150t194.5 55v-125q-19 4 -56 4q-52 0 -114 -28 t-112.5 -71.5t-74.5 -89.5v-771z" />
<glyph unicode="&#x158;" horiz-adv-x="1301" d="M715 1585h-119l-219 315h85l193 -248l182 248h87zM1190 0h-151l-410 605h-322v-605h-125v1462h546q126 0 226.5 -50.5t159.5 -148.5t59 -228q0 -97 -33 -176.5t-89 -131.5t-128.5 -81.5t-155.5 -32.5zM717 719q144 0 234 88.5t90 227.5q0 138 -90 225.5t-234 87.5h-410 v-629h410z" />
<glyph unicode="&#x159;" horiz-adv-x="694" d="M471 1219h-118l-219 315h85l193 -248l182 248h88zM291 0h-113v1058h113v-182q72 95 162.5 150t194.5 55v-125q-19 4 -56 4q-52 0 -114 -28t-112.5 -71.5t-74.5 -89.5v-771z" />
<glyph unicode="&#x15a;" horiz-adv-x="1272" d="M984 1900l-377 -315h-97l339 315h135zM636 -27q-174 0 -311 63t-224 171l81 94q80 -93 195.5 -153t260.5 -60q86 0 154.5 18.5t111 47.5t70 68.5t38.5 78t11 78.5q0 43 -13 79.5t-30.5 63t-53 51t-63 40t-79 33.5t-81.5 27t-90 26q-65 18 -98.5 28t-92 31.5t-90 40 t-72.5 49t-62 64.5t-36 81t-15 103q0 87 37.5 161t102.5 124t153 77.5t187 27.5q315 0 495 -206l-83 -92q-77 93 -184 138.5t-234 45.5q-147 0 -245 -76.5t-98 -193.5q0 -35 12 -66t27.5 -53t48 -43.5t57.5 -34.5t72.5 -29.5t75.5 -25t84 -24.5q68 -19 103.5 -29.5 t97.5 -33.5t96.5 -43.5t79 -54.5t67 -72t39.5 -90.5t17 -115.5q0 -59 -16 -115t-54 -111.5t-95.5 -96t-148.5 -66t-205 -25.5z" />
<glyph unicode="&#x15b;" horiz-adv-x="1005" d="M846 1534l-377 -315h-97l338 315h136zM493 -27q-130 0 -230 40.5t-177 126.5l67 86q53 -68 144.5 -111.5t197.5 -43.5q131 0 207 59.5t76 154.5q0 39 -18 70t-41 50.5t-70.5 38t-78.5 27.5t-93 24q-51 13 -77 20.5t-72 22.5t-71 29t-57.5 36.5t-49.5 48t-29 61.5t-12 78 q0 126 102 210t276 84q238 0 379 -156l-64 -80q-46 64 -129 102t-186 38q-121 0 -193.5 -55t-72.5 -139q0 -34 17 -61.5t38 -45t65 -34.5t73.5 -25t87.5 -22q41 -11 62 -16.5t60 -17t60.5 -20.5t53.5 -25t50.5 -31.5t40.5 -38t33 -47.5t19 -57.5t8 -68.5q0 -43 -11 -82.5 t-32.5 -74.5t-55 -63.5t-76.5 -48.5t-99.5 -31.5t-121.5 -11.5z" />
<glyph unicode="&#x15c;" horiz-adv-x="1272" d="M895 1585h-88l-189 247l-187 -247h-84l212 315h118zM636 -27q-174 0 -311 63t-224 171l81 94q80 -93 195.5 -153t260.5 -60q86 0 154.5 18.5t111 47.5t70 68.5t38.5 78t11 78.5q0 43 -13 79.5t-30.5 63t-53 51t-63 40t-79 33.5t-81.5 27t-90 26q-65 18 -98.5 28t-92 31.5 t-90 40t-72.5 49t-62 64.5t-36 81t-15 103q0 87 37.5 161t102.5 124t153 77.5t187 27.5q315 0 495 -206l-83 -92q-77 93 -184 138.5t-234 45.5q-147 0 -245 -76.5t-98 -193.5q0 -35 12 -66t27.5 -53t48 -43.5t57.5 -34.5t72.5 -29.5t75.5 -25t84 -24.5q68 -19 103.5 -29.5 t97.5 -33.5t96.5 -43.5t79 -54.5t67 -72t39.5 -90.5t17 -115.5q0 -59 -16 -115t-54 -111.5t-95.5 -96t-148.5 -66t-205 -25.5z" />
<glyph unicode="&#x15d;" horiz-adv-x="1005" d="M767 1219h-88l-188 247l-186 -247h-86l212 315h119zM493 -27q-130 0 -230 40.5t-177 126.5l67 86q53 -68 144.5 -111.5t197.5 -43.5q131 0 207 59.5t76 154.5q0 39 -18 70t-41 50.5t-70.5 38t-78.5 27.5t-93 24q-51 13 -77 20.5t-72 22.5t-71 29t-57.5 36.5t-49.5 48 t-29 61.5t-12 78q0 126 102 210t276 84q238 0 379 -156l-64 -80q-46 64 -129 102t-186 38q-121 0 -193.5 -55t-72.5 -139q0 -34 17 -61.5t38 -45t65 -34.5t73.5 -25t87.5 -22q41 -11 62 -16.5t60 -17t60.5 -20.5t53.5 -25t50.5 -31.5t40.5 -38t33 -47.5t19 -57.5t8 -68.5 q0 -43 -11 -82.5t-32.5 -74.5t-55 -63.5t-76.5 -48.5t-99.5 -31.5t-121.5 -11.5z" />
<glyph unicode="&#x15e;" horiz-adv-x="1272" d="M627 -414q-64 0 -122.5 18t-90.5 45l35 71q76 -61 176 -61q60 0 101 26t41 72q0 41 -22.5 63.5t-67.5 22.5q-55 0 -87 -38l-61 35l50 135q-154 10 -276 71.5t-202 160.5l81 94q80 -93 195.5 -153t260.5 -60q86 0 154.5 18.5t111 47.5t70 68.5t38.5 78t11 78.5 q0 43 -13 79.5t-30.5 63t-53 51t-63 40t-79 33.5t-81.5 27t-90 26q-65 18 -98.5 28t-92 31.5t-90 40t-72.5 49t-62 64.5t-36 81t-15 103q0 87 37.5 161t102.5 124t153 77.5t187 27.5q315 0 495 -206l-83 -92q-77 93 -184 138.5t-234 45.5q-147 0 -245 -76.5t-98 -193.5 q0 -35 12 -66t27.5 -53t48 -43.5t57.5 -34.5t72.5 -29.5t75.5 -25t84 -24.5q68 -19 103.5 -29.5t97.5 -33.5t96.5 -43.5t79 -54.5t67 -72t39.5 -90.5t17 -115.5q0 -58 -15.5 -113t-52 -109.5t-91.5 -95t-142 -67t-195 -29.5l-36 -98q33 27 80 27q65 0 105.5 -40t40.5 -105 q0 -50 -30 -89.5t-80.5 -60.5t-111.5 -21z" />
<glyph unicode="&#x15f;" horiz-adv-x="1005" d="M491 -414q-64 0 -122 18t-91 45l36 71q75 -61 175 -61q39 0 71 11t51.5 34t19.5 53q0 41 -22.5 63.5t-67.5 22.5q-55 0 -87 -38l-61 35l48 135q-219 13 -355 165l67 86q53 -68 144.5 -111.5t197.5 -43.5q131 0 207 59.5t76 154.5q0 39 -18 70t-41 50.5t-70.5 38 t-78.5 27.5t-93 24q-51 13 -77 20.5t-72 22.5t-71 29t-57.5 36.5t-49.5 48t-29 61.5t-12 78q0 126 102 210t276 84q238 0 379 -156l-64 -80q-46 64 -129 102t-186 38q-121 0 -193.5 -55t-72.5 -139q0 -34 17 -61.5t38 -45t65 -34.5t73.5 -25t87.5 -22q41 -11 62 -16.5 t60 -17t60.5 -20.5t53.5 -25t50.5 -31.5t40.5 -38t33 -47.5t19 -57.5t8 -68.5q0 -63 -23.5 -117t-68 -95.5t-115 -67.5t-159.5 -30l-36 -100q33 27 80 27q65 0 105.5 -40t40.5 -105q0 -76 -64 -123.5t-158 -47.5z" />
<glyph unicode="&#x160;" horiz-adv-x="1272" d="M684 1585h-119l-218 315h84l194 -248l182 248h88zM636 -27q-174 0 -311 63t-224 171l81 94q80 -93 195.5 -153t260.5 -60q86 0 154.5 18.5t111 47.5t70 68.5t38.5 78t11 78.5q0 43 -13 79.5t-30.5 63t-53 51t-63 40t-79 33.5t-81.5 27t-90 26q-65 18 -98.5 28t-92 31.5 t-90 40t-72.5 49t-62 64.5t-36 81t-15 103q0 87 37.5 161t102.5 124t153 77.5t187 27.5q315 0 495 -206l-83 -92q-77 93 -184 138.5t-234 45.5q-147 0 -245 -76.5t-98 -193.5q0 -35 12 -66t27.5 -53t48 -43.5t57.5 -34.5t72.5 -29.5t75.5 -25t84 -24.5q68 -19 103.5 -29.5 t97.5 -33.5t96.5 -43.5t79 -54.5t67 -72t39.5 -90.5t17 -115.5q0 -59 -16 -115t-54 -111.5t-95.5 -96t-148.5 -66t-205 -25.5z" />
<glyph unicode="&#x161;" horiz-adv-x="1005" d="M556 1219h-117l-220 315h86l193 -248l181 248h88zM493 -27q-130 0 -230 40.5t-177 126.5l67 86q53 -68 144.5 -111.5t197.5 -43.5q131 0 207 59.5t76 154.5q0 39 -18 70t-41 50.5t-70.5 38t-78.5 27.5t-93 24q-51 13 -77 20.5t-72 22.5t-71 29t-57.5 36.5t-49.5 48 t-29 61.5t-12 78q0 126 102 210t276 84q238 0 379 -156l-64 -80q-46 64 -129 102t-186 38q-121 0 -193.5 -55t-72.5 -139q0 -34 17 -61.5t38 -45t65 -34.5t73.5 -25t87.5 -22q41 -11 62 -16.5t60 -17t60.5 -20.5t53.5 -25t50.5 -31.5t40.5 -38t33 -47.5t19 -57.5t8 -68.5 q0 -43 -11 -82.5t-32.5 -74.5t-55 -63.5t-76.5 -48.5t-99.5 -31.5t-121.5 -11.5z" />
<glyph unicode="&#x162;" horiz-adv-x="1235" d="M730 -301q0 -83 -42 -159t-105 -121l-60 48q51 36 85.5 91.5t35.5 104.5q-15 -2 -21 -2q-17 0 -32 6t-25.5 17t-16 26t-5.5 33q0 35 23.5 60.5t59.5 25.5q43 0 73 -35t30 -95zM682 0h-128v1348h-477v114h1082v-114h-477v-1348z" />
<glyph unicode="&#x163;" horiz-adv-x="602" d="M414 -301q0 -83 -42 -159t-104 -121l-59 48q50 36 84 91.5t35 104.5q-15 -2 -21 -2q-23 0 -41 10.5t-28 29t-10 42.5q0 17 6.5 33t17 27.5t26.5 18.5t33 7q43 0 73 -35t30 -95zM408 -27q-104 0 -156.5 60t-52.5 170v755h-174v100h174v290h117v-290h215v-100h-215v-737 q0 -43 11.5 -75t36 -50.5t61.5 -18.5q36 0 67.5 14.5t51.5 35.5l43 -87q-34 -33 -75.5 -50t-103.5 -17z" />
<glyph unicode="&#x164;" horiz-adv-x="1235" d="M682 1585h-119l-218 315h84l194 -248l182 248h87zM682 0h-128v1348h-477v114h1082v-114h-477v-1348z" />
<glyph unicode="&#x165;" horiz-adv-x="623" d="M642 1479q0 -84 -42 -160t-105 -121l-58 49q50 36 84 91t35 104q-15 -2 -21 -2q-35 0 -57 23.5t-22 59.5q0 35 24 60t59 25q43 0 73 -34.5t30 -94.5zM408 -27q-104 0 -156.5 60t-52.5 170v755h-174v100h174v290h117v-290h215v-100h-215v-737q0 -43 11.5 -75t36 -50.5 t61.5 -18.5q36 0 67.5 14.5t51.5 35.5l43 -87q-34 -33 -75.5 -50t-103.5 -17z" />
<glyph unicode="&#x166;" horiz-adv-x="1235" d="M682 0h-128v675h-345v81h345v592h-477v114h1082v-114h-477v-592h346v-81h-346v-675z" />
<glyph unicode="&#x167;" horiz-adv-x="602" d="M408 -27q-104 0 -156.5 60t-52.5 170v312h-174v81h174v362h-174v100h174v290h117v-290h215v-100h-215v-362h153v-81h-153v-294q0 -43 11.5 -75t36 -50.5t61.5 -18.5q36 0 67.5 14.5t51.5 35.5l43 -87q-34 -33 -75.5 -50t-103.5 -17z" />
<glyph unicode="&#x168;" horiz-adv-x="1502" d="M751 -27q-184 0 -313 72.5t-192.5 203.5t-63.5 312v901h127v-899q0 -148 50.5 -254.5t150 -163.5t241.5 -57q143 0 243 57t150 163.5t50 254.5v899h127v-901q0 -276 -146 -432t-424 -156zM892 1580q-33 0 -60.5 12.5t-46 32.5t-34.5 44t-30 48t-28.5 44t-34 32.5 t-43.5 12.5q-34 0 -59.5 -21.5t-41.5 -70.5t-16 -121h-77q0 128 54 210.5t150 82.5q38 0 68.5 -16.5t49 -41t36.5 -53.5t33 -54t37.5 -41.5t49.5 -16.5q52 0 83.5 52.5t31.5 158.5h80q0 -129 -53 -211.5t-149 -82.5z" />
<glyph unicode="&#x169;" horiz-adv-x="1182" d="M1006 0h-114v155q-71 -78 -172 -130t-210 -52q-166 0 -249 82.5t-83 258.5v744h113v-719q0 -75 18 -127.5t53.5 -81t80 -41t105.5 -12.5q98 0 193.5 51t150.5 125v805h114v-1058zM725 1214q-38 0 -69 17t-49.5 42t-37 54.5t-33.5 54.5t-37.5 41.5t-49.5 16.5 q-52 0 -85 -53.5t-33 -159.5h-76q0 128 53.5 210.5t149.5 82.5q38 0 68.5 -16.5t49 -41t37 -53.5t33 -54t37 -41.5t49.5 -16.5q52 0 84.5 53t32.5 158h78q0 -129 -53 -211.5t-149 -82.5z" />
<glyph unicode="&#x16a;" horiz-adv-x="1502" d="M751 -27q-184 0 -313 72.5t-192.5 203.5t-63.5 312v901h127v-899q0 -148 50.5 -254.5t150 -163.5t241.5 -57q143 0 243 57t150 163.5t50 254.5v899h127v-901q0 -276 -146 -432t-424 -156zM1150 1631h-795v80h795v-80z" />
<glyph unicode="&#x16b;" horiz-adv-x="1182" d="M1006 0h-114v155q-71 -78 -172 -130t-210 -52q-166 0 -249 82.5t-83 258.5v744h113v-719q0 -75 18 -127.5t53.5 -81t80 -41t105.5 -12.5q98 0 193.5 51t150.5 125v805h114v-1058zM989 1265h-796v80h796v-80z" />
<glyph unicode="&#x16c;" horiz-adv-x="1502" d="M751 -27q-184 0 -313 72.5t-192.5 203.5t-63.5 312v901h127v-899q0 -148 50.5 -254.5t150 -163.5t241.5 -57q143 0 243 57t150 163.5t50 254.5v899h127v-901q0 -276 -146 -432t-424 -156zM1144 1744q-67 -90 -167 -141t-216 -51q-115 0 -216.5 51t-170.5 141l65 55 q55 -77 138.5 -120.5t183.5 -43.5q98 0 181 43.5t141 120.5z" />
<glyph unicode="&#x16d;" horiz-adv-x="1182" d="M1006 0h-114v155q-71 -78 -172 -130t-210 -52q-166 0 -249 82.5t-83 258.5v744h113v-719q0 -75 18 -127.5t53.5 -81t80 -41t105.5 -12.5q98 0 193.5 51t150.5 125v805h114v-1058zM977 1378q-67 -90 -167 -141t-216 -51q-115 0 -216 51t-169 141l63 55q56 -77 139 -120.5 t183 -43.5q98 0 181.5 43.5t140.5 120.5z" />
<glyph unicode="&#x16e;" horiz-adv-x="1502" d="M754 1566q-57 0 -105.5 28.5t-76.5 77t-28 105.5q0 86 61.5 148.5t148.5 62.5q85 0 145.5 -62.5t60.5 -148.5q0 -87 -60.5 -149t-145.5 -62zM754 1637q58 0 98 41t40 99t-40 99t-98 41t-99.5 -41t-41.5 -98.5t41.5 -99t99.5 -41.5zM751 -27q-184 0 -313 72.5 t-192.5 203.5t-63.5 312v901h127v-899q0 -148 50.5 -254.5t150 -163.5t241.5 -57q143 0 243 57t150 163.5t50 254.5v899h127v-901q0 -276 -146 -432t-424 -156z" />
<glyph unicode="&#x16f;" horiz-adv-x="1182" d="M592 1201q-88 0 -149.5 61.5t-61.5 148.5q0 86 62 148.5t149 62.5q84 0 144.5 -62.5t60.5 -148.5q0 -87 -60 -148.5t-145 -61.5zM592 1271q38 0 69.5 19t50 51t18.5 70q0 58 -40.5 99.5t-97.5 41.5q-58 0 -99 -41.5t-41 -99t41 -99t99 -41.5zM1006 0h-114v155 q-71 -78 -172 -130t-210 -52q-166 0 -249 82.5t-83 258.5v744h113v-719q0 -75 18 -127.5t53.5 -81t80 -41t105.5 -12.5q98 0 193.5 51t150.5 125v805h114v-1058z" />
<glyph unicode="&#x170;" horiz-adv-x="1502" d="M751 -27q-184 0 -313 72.5t-192.5 203.5t-63.5 312v901h127v-899q0 -148 50.5 -254.5t150 -163.5t241.5 -57q143 0 243 57t150 163.5t50 254.5v899h127v-901q0 -276 -146 -432t-424 -156zM857 1900l-252 -315h-82l213 315h121zM1161 1900l-251 -315h-82l213 315h120z" />
<glyph unicode="&#x171;" horiz-adv-x="1182" d="M1006 0h-114v155q-71 -78 -172 -130t-210 -52q-166 0 -249 82.5t-83 258.5v744h113v-719q0 -75 18 -127.5t53.5 -81t80 -41t105.5 -12.5q98 0 193.5 51t150.5 125v805h114v-1058zM694 1534l-251 -315h-81l213 315h119zM999 1534l-252 -315h-80l211 315h121z" />
<glyph unicode="&#x172;" horiz-adv-x="1502" d="M751 -27q-184 0 -313 72.5t-192.5 203.5t-63.5 312v901h127v-899q0 -148 50.5 -254.5t150 -163.5t241.5 -57q143 0 243 57t150 163.5t50 254.5v899h127v-901q0 -221 -95 -367t-277 -196q-169 -83 -169 -215q0 -58 28 -88t77 -30q90 0 121 96l68 -35q-57 -134 -189 -134 q-52 0 -92.5 18.5t-67 61.5t-26.5 107q0 109 94 196q-15 -2 -42 -2z" />
<glyph unicode="&#x173;" horiz-adv-x="1182" d="M1006 0q-174 -83 -174 -217q0 -58 29 -88t77 -30q90 0 120 96l69 -35q-58 -134 -189 -134q-80 0 -133.5 47t-53.5 140q0 65 38.5 126.5t102.5 105.5v144q-71 -78 -172 -130t-210 -52q-166 0 -249 82.5t-83 258.5v744h113v-719q0 -75 18 -127.5t53.5 -81t80 -41 t105.5 -12.5q98 0 193.5 51t150.5 125v805h114v-1058z" />
<glyph unicode="&#x174;" horiz-adv-x="1899" d="M1225 1585h-88l-188 247l-186 -247h-86l212 315h119zM1442 0h-140l-351 1256l-351 -1256h-140l-418 1462h140l353 -1287l360 1287h113l357 -1287l353 1287h141z" />
<glyph unicode="&#x175;" horiz-adv-x="1575" d="M1063 1219h-88l-189 247l-186 -247h-85l213 315h118zM1194 0h-109l-296 905l-298 -905h-110l-344 1058h123l281 -898l297 898h99l298 -898l281 898h123z" />
<glyph unicode="&#x176;" horiz-adv-x="1353" d="M953 1585h-87l-189 247l-186 -247h-85l212 315h118zM740 0h-127v625l-580 837h151l493 -719l494 719h150l-581 -837v-625z" />
<glyph unicode="&#x177;" horiz-adv-x="1053" d="M107 -414l20 105q40 -17 92 -17q56 0 93 28t67 101l83 188l-447 1067h127l387 -924l381 924h129l-548 -1290q-83 -197 -272 -197q-61 0 -112 15zM802 1219h-87l-189 247l-187 -247h-84l212 315h118z" />
<glyph unicode="&#x178;" horiz-adv-x="1353" d="M989 1683q0 -33 -24.5 -57t-57.5 -24t-57 24t-24 57t24 57t57 24t57.5 -24t24.5 -57zM541 1683q0 -33 -24 -57t-57 -24t-57 24t-24 57t24 57t57 24t57 -24t24 -57zM740 0h-127v625l-580 837h151l493 -719l494 719h150l-581 -837v-625z" />
<glyph unicode="&#x179;" horiz-adv-x="1272" d="M993 1900l-378 -315h-96l338 315h136zM1163 0h-1054v109l882 1239h-882v114h1039v-107l-880 -1242h895v-113z" />
<glyph unicode="&#x17a;" horiz-adv-x="1027" d="M868 1534l-377 -315h-96l337 315h136zM905 0h-782v94l626 864h-626v100h774v-92l-634 -865h642v-101z" />
<glyph unicode="&#x17b;" horiz-adv-x="1272" d="M1163 0h-1054v109l882 1239h-882v114h1039v-107l-880 -1242h895v-113zM636 1595q-35 0 -59.5 24.5t-24.5 59.5q0 33 24.5 58t59.5 25q32 0 56.5 -25t24.5 -58q0 -35 -24 -59.5t-57 -24.5z" />
<glyph unicode="&#x17c;" horiz-adv-x="1027" d="M905 0h-782v94l626 864h-626v100h774v-92l-634 -865h642v-101zM513 1229q-35 0 -59.5 24.5t-24.5 59.5q0 33 24.5 58t59.5 25q32 0 56.5 -25t24.5 -58q0 -34 -24 -59t-57 -25z" />
<glyph unicode="&#x17d;" horiz-adv-x="1272" d="M697 1585h-118l-219 315h85l193 -248l182 248h87zM1163 0h-1054v109l882 1239h-882v114h1039v-107l-880 -1242h895v-113z" />
<glyph unicode="&#x17e;" horiz-adv-x="1027" d="M563 1219h-118l-219 315h85l193 -248l182 248h88zM905 0h-782v94l626 864h-626v100h774v-92l-634 -865h642v-101z" />
<glyph unicode="&#x17f;" horiz-adv-x="579" d="M328 0h-113v958h-175v100h175v97q0 154 76.5 241t210.5 87q60 0 106.5 -16t94.5 -58l-55 -83q-58 54 -135 54q-90 0 -137.5 -59t-47.5 -166v-1155z" />
<glyph unicode="&#x192;" horiz-adv-x="924" d="M199 -353h-126l203 922h-163v108h186l107 484q34 150 130 236t229 86q59 0 103.5 -16t82.5 -56l-66 -92q-44 51 -111 51q-91 0 -155.5 -60t-87.5 -164l-106 -469h331v-108h-353z" />
<glyph unicode="&#x1a0;" horiz-adv-x="1673" d="M837 -27q-158 0 -291.5 58.5t-225 160t-142.5 240.5t-51 298t51 298t142.5 240.5t225 159.5t291.5 58q165 0 302.5 -65t234.5 -181q42 37 69.5 87t30.5 93l-8.5 -1t-12.5 -1q-33 0 -55 23.5t-22 57.5q0 33 23.5 57t57.5 24q42 0 70.5 -33t28.5 -92q0 -40 -11 -81 t-30 -75.5t-44 -64t-53 -51.5q129 -194 129 -453q0 -159 -51.5 -298.5t-143 -240.5t-225 -159.5t-290.5 -58.5zM837 88q129 0 238 48.5t183.5 134t116 204t41.5 255.5q0 138 -41.5 257t-116 203.5t-183.5 133t-238 48.5q-131 0 -240 -48t-183 -133.5t-114.5 -203.5 t-40.5 -257q0 -110 25.5 -208t75.5 -177t119.5 -137t161 -89t196.5 -31z" />
<glyph unicode="&#x1a1;" d="M1133 1161q0 -49 -17 -98t-43.5 -89t-60.5 -69q60 -74 91.5 -170t31.5 -204q0 -93 -22.5 -177t-67 -153t-105.5 -120t-142 -79.5t-173 -28.5q-114 0 -210 44t-161 119t-101 177t-36 217.5t36 217t101 176.5t161 118t210 43q199 0 337 -127q25 24 44.5 52.5t31.5 59 t14 57.5q-1 0 -9.5 -1t-12.5 -1q-33 0 -55 22.5t-22 57.5q0 33 23 57t59 24q41 0 69.5 -33.5t28.5 -91.5zM625 77q90 0 165 37.5t122.5 101t73.5 144.5t26 171q0 88 -26 169t-73.5 144t-122.5 100.5t-165 37.5q-60 0 -113.5 -17t-95.5 -47.5t-76 -73t-56 -92.5t-33.5 -106.5 t-11.5 -114.5q0 -71 16 -138t49 -124t78.5 -100t108 -67.5t134.5 -24.5z" />
<glyph unicode="&#x1af;" horiz-adv-x="1502" d="M1580 1598q0 -109 -71 -201t-188 -134v-702q0 -276 -146 -432t-424 -156q-184 0 -313 72.5t-192.5 203.5t-63.5 312v901h127v-899q0 -148 50.5 -254.5t150 -163.5t241.5 -57q143 0 243 57t150 163.5t50 254.5v899h127v-128q75 36 126 99t52 129q-2 -2 -20 -2 q-34 0 -56 24t-22 60q0 33 23 57t57 24q41 0 70 -34.5t29 -92.5z" />
<glyph unicode="&#x1b0;" horiz-adv-x="1182" d="M1006 0h-114v155q-71 -78 -172 -130t-210 -52q-166 0 -249 82.5t-83 258.5v744h113v-719q0 -75 18 -127.5t53.5 -81t80 -41t105.5 -12.5q98 0 193.5 51t150.5 125v805h114v-129q58 37 95 92.5t39 111.5q-13 -2 -20 -2q-34 0 -56.5 23.5t-22.5 57.5t24 57.5t60 23.5 q41 0 68.5 -33t27.5 -92q0 -98 -58 -183t-157 -134v-851z" />
<glyph unicode="&#x1fc;" horiz-adv-x="2057" d="M1420 1900l-377 -315h-96l337 315h136zM1926 0h-927v360h-600l-224 -360h-144l922 1462h973v-114h-799v-541h784v-115h-784v-579h799v-113zM999 473v855l-537 -855h537z" />
<glyph unicode="&#x1fd;" horiz-adv-x="1965" d="M1265 1534l-378 -315h-96l338 315h136zM1850 493h-831q4 -86 32 -162.5t76 -134t119 -90.5t155 -33q95 0 178 37.5t146 108.5l59 -75q-158 -171 -383 -171q-147 0 -259.5 72.5t-171.5 211.5q-50 -130 -165 -207t-261 -77q-119 0 -214 40t-152 121.5t-57 191.5 q0 83 32 151t86.5 111t124.5 66t149 23q243 0 392 -146v209q0 116 -84.5 180t-224.5 64q-109 0 -196 -37t-166 -119l-63 79q163 178 442 178q64 0 123 -13.5t112.5 -41.5t90 -79t48.5 -119q36 73 91 128.5t134 90t168 34.5q90 0 166.5 -29t132 -81t94.5 -122.5t58 -154 t19 -175.5v-30zM1019 583h714q0 56 -12.5 111.5t-40.5 108.5t-68.5 93.5t-101.5 65.5t-134 25q-67 0 -125 -24.5t-99 -65t-71 -93t-45 -109t-17 -112.5zM905 403v36q-60 71 -152 109.5t-197 38.5q-141 0 -228 -72t-87 -184q0 -114 87 -186t228 -72q62 0 117.5 18t97 49.5 t72.5 73.5t46.5 90.5t15.5 98.5z" />
<glyph unicode="&#x1fe;" horiz-adv-x="1673" d="M1192 1900l-377 -315h-96l337 315h136zM837 -27q-201 0 -368 98l-44 -71h-111l79 123q-85 68 -144.5 161.5t-90.5 206.5t-31 239q0 159 51 298t142.5 240.5t225 159.5t291.5 58q193 0 359 -95l44 71h115l-80 -123q130 -103 201 -261.5t71 -347.5q0 -159 -51.5 -298.5 t-143 -240.5t-225 -159.5t-290.5 -58.5zM837 88q129 0 238 48.5t183.5 134t116 204t41.5 255.5q0 159 -53 289.5t-151 216.5l-679 -1067q133 -81 304 -81zM259 730q0 -157 51.5 -286.5t147.5 -217.5l675 1067q-131 79 -296 79q-131 0 -240 -48t-183 -133.5t-114.5 -203.5 t-40.5 -257z" />
<glyph unicode="&#x1ff;" d="M982 1534l-377 -315h-97l338 315h136zM259 0h-96l98 129q-69 76 -106.5 180t-37.5 222q0 115 36 216.5t101 176.5t161 118t210 43q169 0 295 -94l53 67h96l-90 -115q75 -76 115.5 -183t40.5 -229q0 -93 -22.5 -177t-67 -153t-105.5 -120t-142 -79.5t-173 -28.5 q-177 0 -309 104zM625 77q90 0 165 37.5t122.5 101t73.5 144.5t26 171q0 59 -12 115.5t-35.5 108t-57.5 94.5l-522 -682q97 -90 240 -90zM239 531q0 -86 24 -165.5t70 -141.5l520 679q-97 79 -228 79q-60 0 -113.5 -17t-95.5 -47.5t-76 -73t-56 -92.5t-33.5 -106.5 t-11.5 -114.5z" />
<glyph unicode="&#x218;" horiz-adv-x="1272" d="M738 -301q0 -83 -41.5 -159t-104.5 -121l-59 48q50 36 84 91.5t36 104.5q-15 -2 -22 -2q-34 0 -56.5 23t-22.5 59q0 23 10.5 42.5t30 31.5t43.5 12q20 0 38.5 -8.5t33 -24.5t22.5 -41t8 -56zM636 -27q-174 0 -311 63t-224 171l81 94q80 -93 195.5 -153t260.5 -60 q86 0 154.5 18.5t111 47.5t70 68.5t38.5 78t11 78.5q0 43 -13 79.5t-30.5 63t-53 51t-63 40t-79 33.5t-81.5 27t-90 26q-65 18 -98.5 28t-92 31.5t-90 40t-72.5 49t-62 64.5t-36 81t-15 103q0 87 37.5 161t102.5 124t153 77.5t187 27.5q315 0 495 -206l-83 -92 q-77 93 -184 138.5t-234 45.5q-147 0 -245 -76.5t-98 -193.5q0 -35 12 -66t27.5 -53t48 -43.5t57.5 -34.5t72.5 -29.5t75.5 -25t84 -24.5q68 -19 103.5 -29.5t97.5 -33.5t96.5 -43.5t79 -54.5t67 -72t39.5 -90.5t17 -115.5q0 -59 -16 -115t-54 -111.5t-95.5 -96t-148.5 -66 t-205 -25.5z" />
<glyph unicode="&#x219;" horiz-adv-x="1005" d="M618 -301q0 -83 -42 -159t-105 -121l-59 48q51 36 85 91.5t36 104.5q-16 -2 -23 -2q-34 0 -56.5 23t-22.5 59q0 23 11 42.5t30 31.5t43 12q43 0 73 -35t30 -95zM493 -27q-130 0 -230 40.5t-177 126.5l67 86q53 -68 144.5 -111.5t197.5 -43.5q131 0 207 59.5t76 154.5 q0 39 -18 70t-41 50.5t-70.5 38t-78.5 27.5t-93 24q-51 13 -77 20.5t-72 22.5t-71 29t-57.5 36.5t-49.5 48t-29 61.5t-12 78q0 126 102 210t276 84q238 0 379 -156l-64 -80q-46 64 -129 102t-186 38q-121 0 -193.5 -55t-72.5 -139q0 -34 17 -61.5t38 -45t65 -34.5t73.5 -25 t87.5 -22q41 -11 62 -16.5t60 -17t60.5 -20.5t53.5 -25t50.5 -31.5t40.5 -38t33 -47.5t19 -57.5t8 -68.5q0 -43 -11 -82.5t-32.5 -74.5t-55 -63.5t-76.5 -48.5t-99.5 -31.5t-121.5 -11.5z" />
<glyph unicode="&#x21a;" horiz-adv-x="1235" d="M730 -301q0 -83 -42 -159t-105 -121l-60 48q51 36 85.5 91.5t35.5 104.5q-15 -2 -21 -2q-17 0 -32 6t-25.5 17t-16 26t-5.5 33q0 35 23.5 60.5t59.5 25.5q43 0 73 -35t30 -95zM682 0h-128v1348h-477v114h1082v-114h-477v-1348z" />
<glyph unicode="&#x21b;" horiz-adv-x="602" d="M414 -301q0 -83 -42 -159t-104 -121l-59 48q50 36 84 91.5t35 104.5q-15 -2 -21 -2q-23 0 -41 10.5t-28 29t-10 42.5q0 17 6.5 33t17 27.5t26.5 18.5t33 7q43 0 73 -35t30 -95zM408 -27q-104 0 -156.5 60t-52.5 170v755h-174v100h174v290h117v-290h215v-100h-215v-737 q0 -43 11.5 -75t36 -50.5t61.5 -18.5q36 0 67.5 14.5t51.5 35.5l43 -87q-34 -33 -75.5 -50t-103.5 -17z" />
<glyph unicode="&#x237;" horiz-adv-x="468" d="M4 -429q-70 0 -119 19t-98 61l50 90q68 -72 157 -72q53 0 93 19.5t65.5 64.5t25.5 111v1194h113v-1194q0 -144 -74.5 -218.5t-212.5 -74.5z" />
<glyph unicode="&#x2b0;" horiz-adv-x="858" d="M719 715h-94v456q0 94 -43 132t-124 38q-64 0 -126 -33t-98 -79v-514h-92v950h92v-366q42 49 112.5 85t144.5 36q76 0 125.5 -24t76 -77t26.5 -136v-468z" />
<glyph unicode="&#x2bc;" horiz-adv-x="479" d="M349 1343q0 -89 -45.5 -170t-113.5 -128l-63 53q53 36 88.5 93.5t39.5 110.5q0 -1 -9 -3t-14 -2q-39 0 -64.5 26t-25.5 66q0 38 28 66t66 28q47 0 80 -38t33 -102z" />
<glyph unicode="&#x2c6;" horiz-adv-x="547" d="M548 1219h-88l-188 247l-186 -247h-86l213 315h118z" />
<glyph unicode="&#x2c7;" horiz-adv-x="547" d="M337 1219h-118l-219 315h86l192 -248l182 248h88z" />
<glyph unicode="&#x2c9;" horiz-adv-x="795" d="M795 1295h-795v83h795v-83z" />
<glyph unicode="&#x2cb;" horiz-adv-x="472" d="M473 1219h-96l-377 315h136z" />
<glyph unicode="&#x2d8;" horiz-adv-x="768" d="M769 1378q-66 -90 -166.5 -141t-217.5 -51q-115 0 -216 51t-169 141l63 55q37 -51 85.5 -87.5t109 -56.5t127.5 -20q99 0 182.5 43.5t140.5 120.5z" />
<glyph unicode="&#x2d9;" horiz-adv-x="186" d="M94 1229q-34 0 -58.5 24.5t-24.5 59.5q0 33 24.5 58t58.5 25q33 0 57 -25t24 -58q0 -34 -24 -59t-57 -25z" />
<glyph unicode="&#x2da;" horiz-adv-x="416" d="M211 1201q-88 0 -149.5 61.5t-61.5 148.5q0 86 62 148.5t149 62.5q84 0 144.5 -62.5t60.5 -148.5q0 -87 -60 -148.5t-145 -61.5zM211 1271q57 0 97.5 41t40.5 99q0 29 -11 55t-29.5 44.5t-44 30t-53.5 11.5q-58 0 -99 -41.5t-41 -99t41 -99t99 -41.5z" />
<glyph unicode="&#x2db;" horiz-adv-x="374" d="M307 -239l67 -35q-57 -134 -188 -134q-51 0 -92 18.5t-67.5 61.5t-26.5 107q0 78 53.5 149.5t139.5 115.5l62 -44q-174 -83 -174 -217q0 -58 28 -88t77 -30q91 0 121 96z" />
<glyph unicode="&#x2dc;" horiz-adv-x="671" d="M471 1214q-39 0 -70 17t-49.5 42t-37 54.5t-33 54.5t-37 41.5t-49.5 16.5q-52 0 -85 -53t-33 -160h-77q0 128 54 210.5t149 82.5q38 0 68.5 -16.5t49 -41t37 -53.5t33 -54t37 -41.5t49.5 -16.5q52 0 84.5 53t32.5 158h79q0 -129 -53.5 -211.5t-148.5 -82.5z" />
<glyph unicode="&#x2dd;" horiz-adv-x="636" d="M333 1534l-252 -315h-81l213 315h120zM638 1534l-253 -315h-80l212 315h121z" />
<glyph unicode="&#x309;" horiz-adv-x="374" d="M92 1595l-57 17q16 52 55 85.5t98 33.5q65 0 107 -37t42 -111q0 -61 -44 -121h-74q55 54 55 118q0 45 -23.5 68.5t-62.5 23.5q-70 0 -96 -77z" />
<glyph unicode="&#x37e;" horiz-adv-x="479" d="M239 883q-26 0 -48.5 13t-35.5 34.5t-13 46.5q0 39 28.5 68t68 29t69 -29t29.5 -68q0 -38 -29.5 -66t-68.5 -28zM349 31q0 -87 -45.5 -168.5t-113.5 -130.5l-63 55q53 36 88.5 93.5t39.5 108.5q-16 -2 -23 -2q-39 0 -64.5 26.5t-25.5 65.5q0 38 28 66t66 28q47 0 80 -38 t33 -104z" />
<glyph unicode="&#x384;" horiz-adv-x="408" d="M276 1249h-65l38 428h142z" />
<glyph unicode="&#x385;" horiz-adv-x="1182" d="M598 1249h-65l39 428h141zM953 1317q0 -33 -24.5 -57t-58.5 -24q-33 0 -57 24t-24 57t24 57t57 24q34 0 58.5 -24t24.5 -57zM393 1317q0 -33 -24.5 -57t-57.5 -24t-57 24t-24 57t24 57t57 24t57.5 -24t24.5 -57z" />
<glyph unicode="&#x386;" horiz-adv-x="1417" d="M416 1249h-65l40 428h140zM1385 0h-145l-144 360h-774l-144 -360h-145l598 1462h155zM1054 473l-346 855l-344 -855h690z" />
<glyph unicode="&#x388;" horiz-adv-x="1252" d="M42 1249h-67l40 428h140zM1127 0h-928v1462h928v-114h-803v-541h787v-115h-787v-579h803v-113z" />
<glyph unicode="&#x389;" horiz-adv-x="1560" d="M42 1249h-67l40 428h140zM1378 0h-127v694h-927v-694h-125v1462h125v-653h927v653h127v-1462z" />
<glyph unicode="&#x38a;" horiz-adv-x="508" d="M42 1249h-67l40 428h140zM324 0h-125v1462h125v-1462z" />
<glyph unicode="&#x38c;" horiz-adv-x="1673" d="M134 1249h-67l40 428h140zM837 -27q-158 0 -291.5 58.5t-225 160t-142.5 240.5t-51 298t51 298t142.5 240.5t225 159.5t291.5 58q157 0 290.5 -58t225 -159.5t143 -240.5t51.5 -298t-51.5 -298.5t-143 -240.5t-225 -159.5t-290.5 -58.5zM837 88q129 0 238 48.5t183.5 134 t116 204t41.5 255.5q0 138 -41.5 257t-116 203.5t-183.5 133t-238 48.5q-131 0 -240 -48t-183 -133.5t-114.5 -203.5t-40.5 -257q0 -110 25.5 -208t75.5 -177t119.5 -137t161 -89t196.5 -31z" />
<glyph unicode="&#x38e;" horiz-adv-x="1456" d="M42 1249h-67l40 428h140zM841 0h-126v625l-581 837h151l493 -719l493 719h151l-581 -837v-625z" />
<glyph unicode="&#x38f;" horiz-adv-x="1677" d="M134 1249h-67l40 428h140zM173 113h310q-165 98 -258 256t-93 378q0 156 51 292.5t142.5 235t225 155t290.5 56.5q158 0 291.5 -56.5t225 -155t143 -235t51.5 -292.5q0 -220 -92.5 -378.5t-256.5 -255.5h311v-113h-500v113q60 15 116.5 48t109.5 87t92.5 123t63.5 162 t24 197q0 135 -40 252t-113 203t-182.5 135.5t-243 49.5t-243.5 -49.5t-183 -135.5t-112.5 -203t-39.5 -252q0 -104 24 -197t64 -162t93 -123t110.5 -87t116.5 -48v-113h-498v113z" />
<glyph unicode="&#x390;" horiz-adv-x="498" d="M257 1249h-67l40 428h140zM611 1317q0 -21 -11 -40t-30 -30t-41 -11q-33 0 -57.5 24t-24.5 57t24.5 57t57.5 24q34 0 58 -24t24 -57zM50 1317q0 -33 -24 -57t-57 -24t-56.5 24t-23.5 57t23.5 57t56.5 24t57 -24t24 -57zM383 -27q-69 0 -115.5 28t-68 78.5t-21.5 123.5 v855h113v-841q0 -64 27.5 -102t80.5 -38q27 0 44 4l9 -100q-30 -8 -69 -8z" />
<glyph unicode="&#x391;" horiz-adv-x="1417" d="M1385 0h-145l-144 360h-774l-144 -360h-145l598 1462h155zM1054 473l-346 855l-344 -855h690z" />
<glyph unicode="&#x392;" horiz-adv-x="1344" d="M795 0h-613v1462h600q185 0 294.5 -100.5t109.5 -272.5q0 -66 -21.5 -125.5t-58 -101.5t-82 -69.5t-95.5 -38.5q117 -18 201 -124t84 -235q0 -183 -112 -289t-307 -106zM767 807q137 0 212 75.5t75 193.5q0 57 -18.5 106t-54 86t-90.5 58.5t-124 21.5h-460v-541h460z M776 113q143 0 225 78t82 212q0 57 -20 108.5t-57 92t-97 64.5t-133 24h-469v-579h469z" />
<glyph unicode="&#x393;" horiz-adv-x="1187" d="M307 0h-125v1462h927v-114h-802v-1348z" />
<glyph unicode="&#x394;" horiz-adv-x="1417" d="M1385 0h-1352l598 1462h155zM1203 113l-495 1215l-493 -1215h988z" />
<glyph unicode="&#x395;" horiz-adv-x="1235" d="M1109 0h-927v1462h927v-114h-802v-541h787v-115h-787v-579h802v-113z" />
<glyph unicode="&#x396;" horiz-adv-x="1272" d="M1163 0h-1054v109l882 1239h-882v114h1039v-107l-880 -1242h895v-113z" />
<glyph unicode="&#x397;" horiz-adv-x="1539" d="M1361 0h-127v694h-927v-694h-125v1462h125v-653h927v653h127v-1462z" />
<glyph unicode="&#x398;" horiz-adv-x="1673" d="M1278 692h-881v115h881v-115zM837 -27q-158 0 -291.5 58.5t-225 160t-142.5 240.5t-51 298t51 298t142.5 240.5t225 159.5t291.5 58q157 0 290.5 -58t225 -159.5t143 -240.5t51.5 -298t-51.5 -298.5t-143 -240.5t-225 -159.5t-290.5 -58.5zM837 88q129 0 238 48.5 t183.5 134t116 204t41.5 255.5q0 138 -41.5 257t-116 203.5t-183.5 133t-238 48.5q-131 0 -240 -48t-183 -133.5t-114.5 -203.5t-40.5 -257q0 -110 25.5 -208t75.5 -177t119.5 -137t161 -89t196.5 -31z" />
<glyph unicode="&#x399;" horiz-adv-x="487" d="M307 0h-125v1462h125v-1462z" />
<glyph unicode="&#x39a;" horiz-adv-x="1284" d="M1232 0h-161l-602 688l-162 -178v-510h-125v1462h125v-801l705 801h161l-623 -697z" />
<glyph unicode="&#x39b;" horiz-adv-x="1417" d="M1385 0h-145l-532 1328l-530 -1328h-145l598 1462h155z" />
<glyph unicode="&#x39c;" horiz-adv-x="1730" d="M1549 0h-127v1290l-533 -1290h-48l-534 1290v-1290h-125v1462h186l498 -1205l495 1205h188v-1462z" />
<glyph unicode="&#x39d;" horiz-adv-x="1531" d="M1350 0h-123l-920 1256v-1256h-125v1462h127l916 -1238v1238h125v-1462z" />
<glyph unicode="&#x39e;" horiz-adv-x="1340" d="M1212 1348h-1083v114h1083v-114zM1212 0h-1085v113h1085v-113zM1198 692h-1054v115h1054v-115z" />
<glyph unicode="&#x39f;" horiz-adv-x="1673" d="M837 -27q-158 0 -291.5 58.5t-225 160t-142.5 240.5t-51 298t51 298t142.5 240.5t225 159.5t291.5 58q157 0 290.5 -58t225 -159.5t143 -240.5t51.5 -298t-51.5 -298.5t-143 -240.5t-225 -159.5t-290.5 -58.5zM837 88q129 0 238 48.5t183.5 134t116 204t41.5 255.5 q0 138 -41.5 257t-116 203.5t-183.5 133t-238 48.5q-131 0 -240 -48t-183 -133.5t-114.5 -203.5t-40.5 -257q0 -110 25.5 -208t75.5 -177t119.5 -137t161 -89t196.5 -31z" />
<glyph unicode="&#x3a0;" horiz-adv-x="1539" d="M1361 0h-127v1348h-927v-1348h-125v1462h1179v-1462z" />
<glyph unicode="&#x3a1;" d="M307 0h-125v1462h548q102 0 186.5 -34.5t139.5 -93t85 -136t30 -164t-30.5 -164t-85.5 -136t-139.5 -93t-185.5 -34.5h-423v-607zM717 721q144 0 233 87.5t89 226t-89 226t-233 87.5h-410v-627h410z" />
<glyph unicode="&#x3a3;" d="M282 1348l531 -594l-537 -641h849v-113h-998v113l532 638l-530 597v114h996v-114h-843z" />
<glyph unicode="&#x3a4;" horiz-adv-x="1235" d="M682 0h-128v1348h-477v114h1082v-114h-477v-1348z" />
<glyph unicode="&#x3a5;" horiz-adv-x="1353" d="M740 0h-127v625l-580 837h151l493 -719l494 719h150l-581 -837v-625z" />
<glyph unicode="&#x3a6;" horiz-adv-x="1719" d="M922 0h-125v142q-153 8 -279 55t-211.5 124.5t-132.5 182t-47 226.5q0 121 47 225.5t132.5 181.5t211.5 124.5t279 55.5v145h125v-145q152 -8 278.5 -55.5t212.5 -124.5t133 -181.5t47 -225.5q0 -81 -21 -155.5t-61 -137.5t-99 -115.5t-132.5 -90t-164.5 -60.5t-193 -29 v-142zM259 730q0 -200 144 -329.5t394 -143.5v946q-250 -16 -394 -145t-144 -328zM1459 730q0 198 -145 327.5t-392 145.5v-946q246 14 391.5 144t145.5 329z" />
<glyph unicode="&#x3a7;" horiz-adv-x="1412" d="M1372 0h-155l-512 659l-508 -659h-157l589 749l-556 713h159l473 -621l476 621h158l-555 -711z" />
<glyph unicode="&#x3a8;" horiz-adv-x="1677" d="M903 0h-127v274q-290 16 -442 170.5t-152 414.5v603h127v-601q0 -213 119 -336t348 -138v1075h127v-1075q226 15 346.5 138t120.5 336v601h127v-603q0 -262 -152 -415.5t-442 -169.5v-274z" />
<glyph unicode="&#x3a9;" horiz-adv-x="1673" d="M169 113h308q-80 48 -143 109t-110 139t-72 176t-25 210q0 156 51.5 292.5t143 235t225 155t290.5 56.5q158 0 291.5 -56.5t225 -155t142.5 -235t51 -292.5q0 -112 -25 -210t-71.5 -176t-109.5 -139t-143 -109h312v-113h-500v113q59 15 116 48t110 87t92.5 123t63.5 162 t24 197q0 135 -40 252t-113 203t-183 135.5t-243.5 49.5t-243 -49.5t-182.5 -135.5t-112.5 -203t-39.5 -252q0 -104 24 -197t64 -162t93 -123t110 -87t117 -48v-113h-498v113z" />
<glyph unicode="&#x3aa;" horiz-adv-x="487" d="M307 0h-125v1462h125v-1462zM550 1720.5q0 -32.5 -24 -57t-57 -24.5t-57.5 24.5t-24.5 57t24.5 56.5t57.5 24t57 -24t24 -56.5zM103 1720.5q0 -32.5 -24.5 -57t-57 -24.5t-56.5 24.5t-24 57t23.5 56.5t56.5 24t57.5 -24t24.5 -56.5z" />
<glyph unicode="&#x3ab;" horiz-adv-x="1353" d="M740 0h-127v625l-580 837h151l493 -719l494 719h150l-581 -837v-625zM982 1720.5q0 -32.5 -24 -57t-57 -24.5t-57 24.5t-24 57.5q0 21 11 39.5t29.5 29.5t40.5 11q33 0 57 -24t24 -56.5zM535 1720.5q0 -32.5 -24 -57t-57 -24.5t-57.5 24.5t-24.5 57t24.5 56.5t57.5 24 t57 -24t24 -56.5z" />
<glyph unicode="&#x3ac;" horiz-adv-x="1281" d="M653 1249h-66l40 428h140zM1225 81l9 -100q-30 -8 -68 -8q-94 0 -145 52.5t-59 147.5q-58 -87 -157 -143.5t-215 -56.5q-140 0 -247 67.5t-166.5 194t-59.5 294.5q0 124 34.5 228t96.5 176t149.5 112t192.5 40q111 0 206.5 -52.5t161.5 -145.5v171h116v-841 q0 -64 28 -102t79 -38q27 0 44 4zM609 77q107 0 204 54.5t145 133.5v524q-49 79 -145.5 136t-203.5 57q-114 0 -199 -60t-128 -162t-43 -231.5t43 -231t127.5 -161t199.5 -59.5z" />
<glyph unicode="&#x3ad;" horiz-adv-x="1136" d="M581 1249h-66l39 428h140zM592 -27q-111 0 -201.5 23.5t-150 64.5t-91.5 97t-32 122q0 44 14.5 81.5t39 64.5t56 48t67 34.5t69.5 21t66 9.5q-23 3 -46.5 9t-49 15t-49 22t-45.5 29t-40.5 36t-32 43t-21 51t-7.5 58q0 54 23.5 99.5t66.5 79t102 57t131 35.5t152 12 q263 0 428 -169l-64 -70q-134 141 -366 141q-98 0 -177.5 -24t-126 -68.5t-46.5 -101.5q0 -69 49.5 -117t127.5 -69.5t175 -21.5h246v-96h-246q-79 0 -143.5 -10.5t-117.5 -33.5t-82 -63.5t-29 -94.5q0 -98 96.5 -156t254.5 -58q262 0 410 151l61 -75q-173 -176 -471 -176z " />
<glyph unicode="&#x3ae;" horiz-adv-x="1182" d="M605 1249h-66l40 428h140zM1006 -403h-114v1120q0 74 -18 126.5t-53 82.5t-80 43t-105 13q-99 0 -195.5 -53t-149.5 -129v-800h-113v1058h113v-159q63 75 168.5 130.5t213.5 55.5q333 0 333 -345v-1143z" />
<glyph unicode="&#x3af;" horiz-adv-x="498" d="M263 1249h-66l39 428h141zM383 -27q-69 0 -115.5 28t-68 78.5t-21.5 123.5v855h113v-841q0 -64 27.5 -102t80.5 -38q27 0 44 4l9 -100q-30 -8 -69 -8z" />
<glyph unicode="&#x3b0;" horiz-adv-x="1215" d="M613 1249h-65l39 428h141zM968 1317q0 -33 -24.5 -57t-58.5 -24q-33 0 -56.5 24t-23.5 57t23.5 57t56.5 24q22 0 41.5 -11t30.5 -29.5t11 -40.5zM408 1317q0 -33 -24.5 -57t-57.5 -24t-57 24t-24 57t24 57t57 24t57.5 -24t24.5 -57zM592 -27q-202 0 -308 129.5 t-106 355.5v600h113v-598q0 -179 79 -281t222 -102q90 0 164.5 37.5t122 102t73 147t25.5 175.5q0 299 -172 486l98 60q95 -111 146 -250.5t51 -295.5q0 -95 -22.5 -180.5t-67 -155.5t-105.5 -121.5t-141.5 -80t-171.5 -28.5z" />
<glyph unicode="&#x3b1;" horiz-adv-x="1281" d="M1225 81l9 -100q-30 -8 -68 -8q-94 0 -145 52.5t-59 147.5q-58 -87 -157 -143.5t-215 -56.5q-140 0 -247 67.5t-166.5 194t-59.5 294.5q0 124 34.5 228t96.5 176t149.5 112t192.5 40q111 0 206.5 -52.5t161.5 -145.5v171h116v-841q0 -64 28 -102t79 -38q27 0 44 4z M609 77q107 0 204 54.5t145 133.5v524q-49 79 -145.5 136t-203.5 57q-114 0 -199 -60t-128 -162t-43 -231.5t43 -231t127.5 -161t199.5 -59.5z" />
<glyph unicode="&#x3b2;" d="M291 1004v-739q50 -79 147.5 -133.5t207.5 -54.5q174 0 269 86t95 234q0 77 -30 136.5t-83 95.5t-120.5 54t-147.5 18h-73v101h71q72 0 134.5 17.5t111 52t76.5 90.5t28 127q0 67 -25.5 122.5t-68.5 92t-101 56.5t-123 20q-74 0 -139.5 -23t-117 -68t-81.5 -118.5 t-30 -166.5zM291 169v-572h-113v1407q0 96 26 176t71.5 135.5t107.5 93.5t131.5 56t144.5 18q90 0 169.5 -26t140.5 -73.5t96 -121.5t35 -164q0 -64 -19.5 -119t-50.5 -92t-72 -65t-81 -43.5t-80 -22.5q41 -4 84.5 -19t89 -46t81 -72t58.5 -102.5t23 -133.5 q0 -122 -59 -215.5t-163.5 -144t-237.5 -50.5q-123 0 -222.5 54.5t-159.5 141.5z" />
<glyph unicode="&#x3b3;" horiz-adv-x="1053" d="M585 -403h-116v322q0 163 -37 329.5t-101.5 313t-150.5 273.5t-186 223h140q155 -150 277 -412t145 -493q138 185 226 429.5t88 475.5h114q0 -252 -107.5 -532t-291.5 -517v-412z" />
<glyph unicode="&#x3b4;" d="M629 -27q-114 0 -211.5 41t-162.5 109.5t-101.5 158.5t-36.5 187q0 169 91 296t241 186q-37 16 -65.5 31.5t-55 37t-44 46t-27.5 57.5t-10 71q0 127 101.5 210.5t276.5 83.5q236 0 377 -156l-64 -81q-46 64 -129 102t-184 38q-122 0 -193.5 -54.5t-71.5 -138.5 q0 -32 15.5 -59t36 -45t63.5 -37.5t71.5 -29.5t87.5 -29q65 -21 99.5 -33t96 -38.5t97 -51.5t80.5 -66.5t69 -87.5t41.5 -112t17.5 -142q0 -64 -16 -126t-45.5 -116.5t-74.5 -101t-100 -79.5t-124.5 -52t-145.5 -19zM1021 467q0 60 -14.5 111.5t-33.5 88.5t-57.5 71 t-67.5 54.5t-83 44t-84.5 34.5t-90.5 31q-2 1 -3 1q-169 -49 -258.5 -164.5t-89.5 -269.5q0 -71 26.5 -140t74 -125.5t123 -91.5t164.5 -35q73 0 137.5 23t110.5 61.5t79.5 88.5t50 105.5t16.5 111.5z" />
<glyph unicode="&#x3b5;" horiz-adv-x="1136" d="M592 -27q-111 0 -201.5 23.5t-150 64.5t-91.5 97t-32 122q0 44 14.5 81.5t39 64.5t56 48t67 34.5t69.5 21t66 9.5q-23 3 -46.5 9t-49 15t-49 22t-45.5 29t-40.5 36t-32 43t-21 51t-7.5 58q0 54 23.5 99.5t66.5 79t102 57t131 35.5t152 12q263 0 428 -169l-64 -70 q-134 141 -366 141q-98 0 -177.5 -24t-126 -68.5t-46.5 -101.5q0 -69 49.5 -117t127.5 -69.5t175 -21.5h246v-96h-246q-79 0 -143.5 -10.5t-117.5 -33.5t-82 -63.5t-29 -94.5q0 -98 96.5 -156t254.5 -58q262 0 410 151l61 -75q-173 -176 -471 -176z" />
<glyph unicode="&#x3b6;" horiz-adv-x="1075" d="M857 -117q0 52 -34 71t-113 19q-176 0 -310 59t-208.5 170.5t-74.5 261.5q0 504 703 897h-669v101h822v-92q-142 -83 -254 -164t-203.5 -169t-151.5 -177.5t-92.5 -188t-32.5 -202.5q0 -123 61 -212t169 -134.5t252 -45.5q136 0 196 -40t60 -138q0 -100 -85 -244h-127 q43 72 67.5 127t24.5 101z" />
<glyph unicode="&#x3b7;" horiz-adv-x="1182" d="M1006 -403h-114v1120q0 74 -18 126.5t-53 82.5t-80 43t-105 13q-99 0 -195.5 -53t-149.5 -129v-800h-113v1058h113v-159q63 75 168.5 130.5t213.5 55.5q333 0 333 -345v-1143z" />
<glyph unicode="&#x3b8;" d="M625 -27q-85 0 -158 27t-128 76.5t-98 118t-70 153.5t-40.5 181.5t-13.5 202.5q0 128 19 241t60 208t100 163t143 106t186 38q86 0 159.5 -26.5t129 -75.5t98 -117t69.5 -153t40.5 -181t13.5 -203q0 -128 -19 -240.5t-59.5 -208t-100 -164.5t-144 -107.5t-187.5 -38.5z M625 77q79 0 143 31.5t107.5 86t73.5 132t44 166t17 191.5h-771q3 -103 18 -191.5t45 -166t73.5 -132t107 -86t142.5 -31.5zM625 1385q-79 0 -142.5 -31.5t-107 -86t-73.5 -131t-45 -163t-18 -187.5h771q-3 101 -17 187.5t-44 163t-73.5 131t-107.5 86t-143 31.5z" />
<glyph unicode="&#x3b9;" horiz-adv-x="498" d="M383 -27q-69 0 -115.5 28t-68 78.5t-21.5 123.5v855h113v-841q0 -64 27.5 -102t80.5 -38q27 0 44 4l9 -100q-30 -8 -69 -8z" />
<glyph unicode="&#x3ba;" horiz-adv-x="1106" d="M1065 0h-153l-423 504l-198 -186v-318h-113v1058h113v-604l625 604h151l-492 -477z" />
<glyph unicode="&#x3bb;" horiz-adv-x="1053" d="M127 1367l-20 105q54 16 112 16q190 -3 272 -198l548 -1290h-129l-381 924l-387 -924h-127l447 1067l-83 189q-30 73 -67 101t-93 28q-52 0 -92 -18z" />
<glyph unicode="&#x3bc;" horiz-adv-x="1213" d="M291 96v-499h-113v1461h113v-719q0 -138 68 -202t191 -64q96 0 191 52.5t151 127.5v805h114v-841q0 -65 27 -102.5t80 -37.5q27 0 44 4l9 -100q-30 -8 -68 -8q-178 0 -203 190q-65 -82 -160 -136t-194 -54q-183 0 -250 123z" />
<glyph unicode="&#x3bd;" horiz-adv-x="1053" d="M579 0h-117l-447 1058h127l391 -939q155 211 246 458t91 481h114q0 -254 -110 -537.5t-295 -520.5z" />
<glyph unicode="&#x3be;" horiz-adv-x="1075" d="M710 -27q-283 0 -438 107.5t-155 302.5q0 68 21 126.5t54.5 98.5t77 69.5t84.5 45t80 20.5q-30 5 -61 15.5t-65 27.5t-63.5 42.5t-53 56t-37.5 72.5t-14 88q0 99 71 188.5t176 127.5h-232v101h796v-101h-410q-117 -28 -197.5 -114t-80.5 -182q0 -85 52.5 -145 t133.5 -87.5t180 -27.5h306v-102h-306q-82 0 -151 -18t-123.5 -54t-85 -96.5t-30.5 -139.5q0 -150 126.5 -234t355.5 -84q136 0 196 -40t60 -138q0 -100 -85 -244h-127q43 72 67.5 127t24.5 101q0 52 -34 71t-113 19z" />
<glyph unicode="&#x3bf;" d="M625 -27q-114 0 -210 44t-161 119t-101 177t-36 217.5t36 217t101 176.5t161 118t210 43q92 0 173 -28t142 -78.5t105.5 -119t67 -152.5t22.5 -176.5t-22.5 -176.5t-67 -153t-105.5 -120t-142 -79.5t-173 -28.5zM625 77q90 0 165 37.5t122.5 101t73.5 144.5t26 171 q0 88 -26 169t-73.5 144t-122.5 100.5t-165 37.5q-60 0 -113.5 -17t-95.5 -47.5t-76 -73t-56 -92.5t-33.5 -106.5t-11.5 -114.5q0 -71 16 -138t49 -124t78.5 -100t108 -67.5t134.5 -24.5z" />
<glyph unicode="&#x3c0;" horiz-adv-x="1228" d="M1030 0h-116v958h-598v-958h-117v958h-174v100h1180v-100h-175v-958z" />
<glyph unicode="&#x3c1;" horiz-adv-x="1242" d="M659 -27q-110 0 -206.5 53t-161.5 145v-574h-113v934q0 115 33.5 216.5t94 176.5t150.5 118t197 43q62 0 118.5 -14.5t104.5 -41.5t89 -65t71.5 -85.5t52.5 -102.5t33 -117t11 -128q0 -167 -59.5 -293.5t-167 -195.5t-247.5 -69zM640 77q87 0 157.5 35t116.5 96t71 143.5 t25 179.5q0 89 -24 169.5t-68 143.5t-113.5 100.5t-153.5 37.5q-68 0 -126.5 -24.5t-101 -67t-72.5 -99.5t-45 -123.5t-15 -136.5v-261q48 -80 145.5 -136.5t203.5 -56.5z" />
<glyph unicode="&#x3c2;" horiz-adv-x="1048" d="M705 -27q-271 0 -429.5 149t-158.5 409q0 115 37 216.5t103 176.5t163 118t211 43q130 0 217.5 -46t157.5 -134l-79 -70q-109 147 -289 147q-121 0 -212.5 -60t-139 -162t-47.5 -229q0 -112 34.5 -198.5t98 -142.5t149.5 -84.5t192 -28.5q136 0 198 -40.5t62 -137.5 q0 -92 -86 -244h-118q44 72 68 127t24 101q0 51 -38 70.5t-118 19.5z" />
<glyph unicode="&#x3c3;" d="M1129 504q0 -108 -35 -204.5t-99 -169t-159.5 -115t-210.5 -42.5q-114 0 -210 44t-161 119t-101 177t-36 218q0 109 36.5 204.5t104.5 167.5t172.5 113.5t230.5 41.5h529v-102h-274q48 -38 84.5 -80t66.5 -96.5t46 -124t16 -151.5zM1012 515q0 154 -68 269.5t-179 171.5 h-104q-69 0 -129 -17t-106 -46.5t-82 -69.5t-59 -87.5t-34.5 -99.5t-11.5 -105q0 -71 16 -138t49 -124t78.5 -100t108 -67.5t134.5 -24.5q90 0 165 37t122.5 99t73.5 140t26 162z" />
<glyph unicode="&#x3c4;" horiz-adv-x="1014" d="M655 -27q-68 0 -114.5 27.5t-69 78.5t-22.5 124v755h-386v100h888v-100h-388v-737q0 -66 28 -105t82 -39q36 0 68.5 14.5t49.5 35.5l44 -87q-35 -33 -76.5 -50t-103.5 -17z" />
<glyph unicode="&#x3c5;" horiz-adv-x="1215" d="M592 -27q-202 0 -308 129.5t-106 355.5v600h113v-598q0 -179 79 -281t222 -102q90 0 164.5 37.5t122 102t73 147t25.5 175.5q0 299 -172 486l98 60q95 -111 146 -250.5t51 -295.5q0 -95 -22.5 -180.5t-67 -155.5t-105.5 -121.5t-141.5 -80t-171.5 -28.5z" />
<glyph unicode="&#x3c6;" horiz-adv-x="1581" d="M1464 531q0 -116 -38 -213.5t-112.5 -172t-193 -119t-271.5 -51.5v-378h-115v378q-154 7 -272.5 52.5t-193.5 122t-113 179t-38 227.5q0 75 20 143.5t55.5 124.5t85 105.5t105 87t119.5 68.5l50 -90q-97 -48 -165.5 -110.5t-108 -146.5t-39.5 -182q0 -65 11.5 -122.5 t36.5 -110t65 -94.5t93.5 -74.5t127 -52.5t161.5 -25v1008h57q134 0 245 -27.5t189.5 -77t132.5 -118.5t80 -152.5t26 -178.5zM1341 531q0 92 -29 169.5t-87 139t-154 98t-222 41.5v-902q104 5 187.5 32t140 69t94 99t54 120t16.5 134z" />
<glyph unicode="&#x3c7;" horiz-adv-x="1048" d="M1012 -403h-129l-357 644l-359 -644h-130l419 752l-395 709h129l336 -602l333 602h130l-395 -709z" />
<glyph unicode="&#x3c8;" horiz-adv-x="1581" d="M849 -403h-115v378q-272 11 -414 141.5t-142 354.5v587h113v-587q0 -116 51.5 -201.5t151.5 -134.5t240 -58v1385h115v-1385q210 13 325.5 116.5t115.5 277.5v587h115v-587q0 -147 -62.5 -255t-188 -170t-305.5 -71v-378z" />
<glyph unicode="&#x3c9;" horiz-adv-x="1728" d="M1610 531q0 -155 -47.5 -281.5t-138 -201.5t-207.5 -75q-61 0 -113.5 20.5t-90.5 53.5t-69 77.5t-50 89t-31 91.5q-11 -48 -30 -92t-49.5 -88.5t-68.5 -77.5t-91 -53.5t-114 -20.5q-117 0 -207.5 75t-138 201.5t-47.5 281.5q0 180 52 326t155 228l82 -75 q-93 -82 -130 -203t-37 -276q0 -121 32 -222.5t98.5 -166.5t153.5 -65q67 0 122 37.5t89.5 101t53.5 144.5t19 171v269h115v-269q0 -72 11.5 -138.5t35.5 -124t57 -100t79 -67t100 -24.5q87 0 153 65t98 166.5t32 222.5q0 156 -36.5 277t-127.5 202l81 75q52 -42 92 -101.5 t64.5 -131.5t36.5 -152.5t12 -168.5z" />
<glyph unicode="&#x3ca;" horiz-adv-x="498" d="M554 1317q0 -33 -24 -57t-57 -24t-56.5 24t-23.5 57q0 22 10.5 40.5t29 29.5t40.5 11q33 0 57 -24t24 -57zM107 1317q0 -33 -23.5 -57t-56.5 -24t-57.5 24t-24.5 57t24.5 57t57.5 24t56.5 -24t23.5 -57zM383 -27q-69 0 -115.5 28t-68 78.5t-21.5 123.5v855h113v-841 q0 -64 27.5 -102t80.5 -38q27 0 44 4l9 -100q-30 -8 -69 -8z" />
<glyph unicode="&#x3cb;" horiz-adv-x="1215" d="M912 1317q0 -33 -24.5 -57t-57.5 -24t-57 24t-24 57t24 57t57 24t57.5 -24t24.5 -57zM464 1317q0 -33 -24 -57t-57 -24q-21 0 -40 11t-29.5 30t-10.5 40q0 33 23.5 57t56.5 24t57 -24t24 -57zM592 -27q-202 0 -308 129.5t-106 355.5v600h113v-598q0 -179 79 -281 t222 -102q90 0 164.5 37.5t122 102t73 147t25.5 175.5q0 299 -172 486l98 60q95 -111 146 -250.5t51 -295.5q0 -95 -22.5 -180.5t-67 -155.5t-105.5 -121.5t-141.5 -80t-171.5 -28.5z" />
<glyph unicode="&#x3cc;" d="M638 1249h-66l39 428h140zM625 -27q-114 0 -210 44t-161 119t-101 177t-36 217.5t36 217t101 176.5t161 118t210 43q92 0 173 -28t142 -78.5t105.5 -119t67 -152.5t22.5 -176.5t-22.5 -176.5t-67 -153t-105.5 -120t-142 -79.5t-173 -28.5zM625 77q90 0 165 37.5 t122.5 101t73.5 144.5t26 171q0 88 -26 169t-73.5 144t-122.5 100.5t-165 37.5q-60 0 -113.5 -17t-95.5 -47.5t-76 -73t-56 -92.5t-33.5 -106.5t-11.5 -114.5q0 -71 16 -138t49 -124t78.5 -100t108 -67.5t134.5 -24.5z" />
<glyph unicode="&#x3cd;" horiz-adv-x="1215" d="M623 1249h-67l40 428h140zM592 -27q-202 0 -308 129.5t-106 355.5v600h113v-598q0 -179 79 -281t222 -102q90 0 164.5 37.5t122 102t73 147t25.5 175.5q0 299 -172 486l98 60q95 -111 146 -250.5t51 -295.5q0 -95 -22.5 -180.5t-67 -155.5t-105.5 -121.5t-141.5 -80 t-171.5 -28.5z" />
<glyph unicode="&#x3ce;" horiz-adv-x="1728" d="M876 1249h-65l40 428h140zM1610 531q0 -155 -47.5 -281.5t-138 -201.5t-207.5 -75q-61 0 -113.5 20.5t-90.5 53.5t-69 77.5t-50 89t-31 91.5q-11 -48 -30 -92t-49.5 -88.5t-68.5 -77.5t-91 -53.5t-114 -20.5q-117 0 -207.5 75t-138 201.5t-47.5 281.5q0 180 52 326 t155 228l82 -75q-93 -82 -130 -203t-37 -276q0 -121 32 -222.5t98.5 -166.5t153.5 -65q67 0 122 37.5t89.5 101t53.5 144.5t19 171v269h115v-269q0 -72 11.5 -138.5t35.5 -124t57 -100t79 -67t100 -24.5q87 0 153 65t98 166.5t32 222.5q0 156 -36.5 277t-127.5 202l81 75 q52 -42 92 -101.5t64.5 -131.5t36.5 -152.5t12 -168.5z" />
<glyph unicode="&#x401;" horiz-adv-x="1235" d="M951 1683q0 -33 -24 -57t-57 -24t-57 24t-24 57t24 57t57 24t57 -24t24 -57zM504 1683q0 -33 -24 -57t-57 -24t-57.5 24t-24.5 57t24.5 57t57.5 24t57 -24t24 -57zM1109 0h-927v1462h927v-114h-802v-541h787v-115h-787v-579h802v-113z" />
<glyph unicode="&#x402;" horiz-adv-x="1693" d="M1094 -27v115q149 0 235.5 96t86.5 265v13q0 189 -96 285t-279 96t-359 -46v-797h-128v1348h-477v114h1082v-114h-477v-438q184 48 366 48q122 0 217 -36t155.5 -101.5t91.5 -156t31 -202.5v-13q0 -96 -23.5 -175.5t-64.5 -134.5t-98 -93t-123 -55.5t-140 -17.5z" />
<glyph unicode="&#x403;" horiz-adv-x="1187" d="M989 1900l-378 -315h-96l338 315h136zM307 0h-125v1462h927v-114h-802v-1348z" />
<glyph unicode="&#x404;" horiz-adv-x="1472" d="M868 -27q-154 0 -290.5 55.5t-235.5 153.5t-157 240.5t-58 307.5t58 307t157 240t235.5 153.5t290.5 55.5q324 0 533 -259l-106 -68q-71 97 -184.5 155t-242.5 58q-159 0 -291 -70.5t-214.5 -199.5t-99.5 -295h820v-115h-824q6 -132 55.5 -245t130 -191.5t190 -123 t233.5 -44.5q129 0 242.5 57.5t184.5 155.5l106 -67q-211 -261 -533 -261z" />
<glyph unicode="&#x405;" horiz-adv-x="1272" d="M636 -27q-174 0 -311 63t-224 171l81 94q80 -93 195.5 -153t260.5 -60q86 0 154.5 18.5t111 47.5t70 68.5t38.5 78t11 78.5q0 43 -13 79.5t-30.5 63t-53 51t-63 40t-79 33.5t-81.5 27t-90 26q-65 18 -98.5 28t-92 31.5t-90 40t-72.5 49t-62 64.5t-36 81t-15 103 q0 87 37.5 161t102.5 124t153 77.5t187 27.5q315 0 495 -206l-83 -92q-77 93 -184 138.5t-234 45.5q-147 0 -245 -76.5t-98 -193.5q0 -35 12 -66t27.5 -53t48 -43.5t57.5 -34.5t72.5 -29.5t75.5 -25t84 -24.5q68 -19 103.5 -29.5t97.5 -33.5t96.5 -43.5t79 -54.5t67 -72 t39.5 -90.5t17 -115.5q0 -59 -16 -115t-54 -111.5t-95.5 -96t-148.5 -66t-205 -25.5z" />
<glyph unicode="&#x406;" horiz-adv-x="487" d="M307 0h-125v1462h125v-1462z" />
<glyph unicode="&#x407;" horiz-adv-x="487" d="M307 0h-125v1462h125v-1462zM550 1683q0 -33 -24 -57t-57 -24t-57.5 24t-24.5 57t24.5 57t57.5 24t57 -24t24 -57zM103 1683q0 -33 -24.5 -57t-57 -24t-56.5 24t-24 57t24 57t56.5 24t57 -24t24.5 -57z" />
<glyph unicode="&#x408;" horiz-adv-x="1029" d="M406 -27q-120 0 -212 43.5t-163 136.5l76 94q122 -159 292 -159q148 0 235 92.5t87 242.5v1039h128v-1039q0 -112 -35 -199t-96 -141t-140.5 -82t-171.5 -28z" />
<glyph unicode="&#x409;" horiz-adv-x="2302" d="M77 -27v115q59 0 103.5 15.5t86 58t72.5 115.5t58 188t48 275l94 722h822v-607h421q101 0 185.5 -34.5t140 -93.5t86.5 -136.5t31 -164t-30.5 -163.5t-86 -135.5t-140 -93t-186.5 -34.5h-548v1348h-583l-79 -618q-14 -108 -31.5 -198.5t-37 -161.5t-43.5 -127.5t-49 -98 t-55.5 -71.5t-61 -49t-67 -30.5t-72 -16t-78.5 -4.5zM1769 740h-408v-627h408q145 0 233.5 87.5t88.5 226.5t-88.5 226t-233.5 87z" />
<glyph unicode="&#x40a;" horiz-adv-x="2302" d="M182 0v1462h125v-653h927v653h127v-653h445q96 0 176 -32.5t132.5 -88t81.5 -129t29 -156.5q0 -82 -28.5 -155t-80.5 -128.5t-132 -87.5t-178 -32h-572v694h-927v-694h-125zM1361 113h433q133 0 215 81.5t82 208.5q0 64 -21.5 118t-60 92t-94 59.5t-121.5 21.5h-433v-581 z" />
<glyph unicode="&#x40b;" horiz-adv-x="1710" d="M1416 0v477q0 178 -96.5 272t-278.5 94q-183 0 -359 -46v-797h-128v1348h-477v114h1082v-114h-477v-438q184 48 366 48q122 0 217 -35.5t155.5 -99.5t91.5 -151.5t31 -194.5v-477h-127z" />
<glyph unicode="&#x40c;" horiz-adv-x="1284" d="M1006 1900l-377 -315h-96l337 315h136zM1232 0h-161l-602 688l-162 -178v-510h-125v1462h125v-801l705 801h161l-623 -697z" />
<glyph unicode="&#x40e;" horiz-adv-x="1353" d="M309 -27q-87 0 -159 34t-117 96l68 94q87 -109 204 -109q42 0 73 10.5t60.5 38.5t55 66.5t60.5 103.5l51 94l-572 1061h145l499 -945l500 945h144l-657 -1215q-29 -56 -55 -95.5t-58 -75t-66.5 -57t-78.5 -34t-97 -12.5zM1063 1744q-67 -90 -167 -141t-217 -51 q-115 0 -216.5 51t-169.5 141l64 55q37 -51 85.5 -87.5t109.5 -56.5t127 -20q99 0 182 43.5t141 120.5z" />
<glyph unicode="&#x40f;" horiz-adv-x="1539" d="M182 0v1462h125v-1349h927v1349h127v-1462h-526v-278h-127v278h-526z" />
<glyph unicode="&#x410;" horiz-adv-x="1417" d="M1385 0h-145l-144 360h-774l-144 -360h-145l598 1462h155zM1054 473l-346 855l-344 -855h690z" />
<glyph unicode="&#x411;" d="M182 1462h912v-114h-787v-493h423q101 0 185.5 -34.5t139.5 -93.5t85.5 -136t30.5 -164t-30 -164t-85 -135.5t-139.5 -93t-186.5 -34.5h-548v1462zM717 740h-410v-627h410q144 0 233 87.5t89 226.5t-89 226t-233 87z" />
<glyph unicode="&#x412;" horiz-adv-x="1344" d="M795 0h-613v1462h600q185 0 294.5 -100.5t109.5 -272.5q0 -66 -21.5 -125.5t-58 -101.5t-82 -69.5t-95.5 -38.5q117 -18 201 -124t84 -235q0 -183 -112 -289t-307 -106zM767 807q137 0 212 75.5t75 193.5q0 57 -18.5 106t-54 86t-90.5 58.5t-124 21.5h-460v-541h460z M776 113q143 0 225 78t82 212q0 57 -20 108.5t-57 92t-97 64.5t-133 24h-469v-579h469z" />
<glyph unicode="&#x413;" horiz-adv-x="1187" d="M307 0h-125v1462h927v-114h-802v-1348z" />
<glyph unicode="&#x414;" horiz-adv-x="1570" d="M77 -270v377q43 1 75.5 8t66 24.5t59.5 48t51 78t45 113.5t38 156t33 205l94 722h822v-1349h130v-383h-126v270h-1162v-270h-126zM572 730q-34 -267 -96 -411.5t-154 -205.5h912v1235h-583z" />
<glyph unicode="&#x415;" horiz-adv-x="1235" d="M1109 0h-927v1462h927v-114h-802v-541h787v-115h-787v-579h802v-113z" />
<glyph unicode="&#x416;" horiz-adv-x="1953" d="M213 0h-161l682 765l-623 697h161l642 -730v730h127v-730l640 730h162l-622 -697l681 -765h-160l-602 688l-99 -109v-579h-127v579l-99 109z" />
<glyph unicode="&#x417;" horiz-adv-x="1255" d="M600 -27q-179 0 -318 69t-211 175l84 76q65 -92 182.5 -148.5t262.5 -56.5q183 0 289 83.5t106 227.5q0 62 -20 111.5t-56 83.5t-86.5 57t-109 33t-127.5 10h-303v115h303q77 0 143 16.5t118.5 49t82.5 87t30 125.5q0 88 -51.5 153.5t-135 97.5t-185.5 32 q-130 0 -231.5 -46.5t-188.5 -140.5l-77 80q83 99 213 159.5t291 60.5q65 0 127.5 -11.5t118 -33.5t101.5 -55t79.5 -75t52 -96t18.5 -114q0 -64 -21 -119t-53 -92t-75 -65t-83.5 -43.5t-80.5 -22.5q40 -4 83.5 -19t89 -45t81.5 -70.5t59 -100t23 -128.5q0 -90 -37 -167 t-103.5 -133t-165.5 -88t-219 -32z" />
<glyph unicode="&#x418;" horiz-adv-x="1531" d="M305 0h-123v1462h125v-1238l916 1238h127v-1462h-125v1256z" />
<glyph unicode="&#x419;" horiz-adv-x="1531" d="M305 0h-123v1462h125v-1238l916 1238h127v-1462h-125v1256zM1150 1744q-67 -90 -166.5 -141t-216.5 -51q-115 0 -216.5 51t-169.5 141l64 55q37 -51 85.5 -87.5t109 -56.5t127.5 -20q99 0 182 43.5t140 120.5z" />
<glyph unicode="&#x41a;" horiz-adv-x="1284" d="M1232 0h-161l-602 688l-162 -178v-510h-125v1462h125v-801l705 801h161l-623 -697z" />
<glyph unicode="&#x41b;" horiz-adv-x="1539" d="M77 -27v115q59 0 103.5 15.5t86 58t72.5 115.5t58 188t48 275l94 722h822v-1462h-127v1348h-583l-79 -618q-14 -108 -31.5 -198.5t-37 -161.5t-43.5 -127.5t-49 -98t-55.5 -71.5t-61 -49t-67 -30.5t-72 -16t-78.5 -4.5z" />
<glyph unicode="&#x41c;" horiz-adv-x="1730" d="M1549 0h-127v1290l-533 -1290h-48l-534 1290v-1290h-125v1462h186l498 -1205l495 1205h188v-1462z" />
<glyph unicode="&#x41d;" horiz-adv-x="1539" d="M1361 0h-127v694h-927v-694h-125v1462h125v-653h927v653h127v-1462z" />
<glyph unicode="&#x41e;" horiz-adv-x="1673" d="M837 -27q-158 0 -291.5 58.5t-225 160t-142.5 240.5t-51 298t51 298t142.5 240.5t225 159.5t291.5 58q157 0 290.5 -58t225 -159.5t143 -240.5t51.5 -298t-51.5 -298.5t-143 -240.5t-225 -159.5t-290.5 -58.5zM837 88q129 0 238 48.5t183.5 134t116 204t41.5 255.5 q0 138 -41.5 257t-116 203.5t-183.5 133t-238 48.5q-131 0 -240 -48t-183 -133.5t-114.5 -203.5t-40.5 -257q0 -110 25.5 -208t75.5 -177t119.5 -137t161 -89t196.5 -31z" />
<glyph unicode="&#x41f;" horiz-adv-x="1539" d="M1361 0h-127v1348h-927v-1348h-125v1462h1179v-1462z" />
<glyph unicode="&#x420;" d="M307 0h-125v1462h548q102 0 186.5 -34.5t139.5 -93t85 -136t30 -164t-30.5 -164t-85.5 -136t-139.5 -93t-185.5 -34.5h-423v-607zM717 721q144 0 233 87.5t89 226t-89 226t-233 87.5h-410v-627h410z" />
<glyph unicode="&#x421;" horiz-adv-x="1472" d="M868 -27q-154 0 -290.5 55.5t-235.5 153.5t-157 240.5t-58 307.5t58 307t157 240t235.5 153.5t290.5 55.5q324 0 533 -259l-106 -68q-71 97 -184.5 155t-242.5 58q-128 0 -240.5 -47.5t-193.5 -130.5t-128 -203.5t-47 -260.5q0 -139 47 -259t128 -204t193.5 -131.5 t240.5 -47.5q129 0 242.5 57.5t184.5 155.5l106 -67q-211 -261 -533 -261z" />
<glyph unicode="&#x422;" horiz-adv-x="1235" d="M682 0h-128v1348h-477v114h1082v-114h-477v-1348z" />
<glyph unicode="&#x423;" horiz-adv-x="1353" d="M309 -27q-87 0 -159 34t-117 96l68 94q87 -109 204 -109q42 0 73 10.5t60.5 38.5t55 66.5t60.5 103.5l51 94l-572 1061h145l499 -945l500 945h144l-657 -1215q-29 -56 -55 -95.5t-58 -75t-66.5 -57t-78.5 -34t-97 -12.5z" />
<glyph unicode="&#x424;" horiz-adv-x="1719" d="M922 0h-125v142q-153 8 -279 55t-211.5 124.5t-132.5 182t-47 226.5q0 121 47 225.5t132.5 181.5t211.5 124.5t279 55.5v145h125v-145q152 -8 278.5 -55.5t212.5 -124.5t133 -181.5t47 -225.5q0 -81 -21 -155.5t-61 -137.5t-99 -115.5t-132.5 -90t-164.5 -60.5t-193 -29 v-142zM259 730q0 -200 144 -329.5t394 -143.5v946q-250 -16 -394 -145t-144 -328zM1459 730q0 198 -145 327.5t-392 145.5v-946q246 14 391.5 144t145.5 329z" />
<glyph unicode="&#x425;" horiz-adv-x="1412" d="M1372 0h-155l-512 659l-508 -659h-157l589 749l-556 713h159l473 -621l476 621h158l-555 -711z" />
<glyph unicode="&#x426;" horiz-adv-x="1570" d="M1365 -270v270h-1183v1462h125v-1349h927v1349h127v-1349h130v-383h-126z" />
<glyph unicode="&#x427;" horiz-adv-x="1303" d="M261 1462v-375q0 -118 43.5 -200t128 -124t205.5 -42q183 0 359 46v695h125v-1462h-125v655q-185 -48 -368 -48q-121 0 -216 35t-155 99t-91 151.5t-31 194.5v375h125z" />
<glyph unicode="&#x428;" horiz-adv-x="2107" d="M1801 1462h125v-1462h-1744v1462h125v-1349h684v1349h126v-1349h684v1349z" />
<glyph unicode="&#x429;" horiz-adv-x="2156" d="M1821 1462h125v-1349h132v-383h-125v270h-1752v1462h127v-1349h682v1349h127v-1349h684v1349z" />
<glyph unicode="&#x42a;" horiz-adv-x="1623" d="M1102 0h-548v1348h-477v114h605v-607h420q102 0 186.5 -34.5t140 -93.5t86 -136.5t30.5 -163.5q0 -69 -18.5 -132.5t-56 -117t-90 -93t-124 -62t-154.5 -22.5zM1089 740h-407v-627h407q145 0 233.5 87.5t88.5 226.5t-88.5 226t-233.5 87z" />
<glyph unicode="&#x42b;" horiz-adv-x="1652" d="M182 1462h125v-607h423q101 0 185.5 -34.5t139.5 -93.5t85.5 -136t30.5 -164t-30 -164t-85 -135.5t-139.5 -93t-186.5 -34.5h-548v1462zM717 740h-410v-627h410q144 0 233 87.5t89 226.5t-89 226t-233 87zM1470 0h-125v1462h125v-1462z" />
<glyph unicode="&#x42c;" d="M182 1462h125v-607h423q101 0 185.5 -34.5t139.5 -93.5t85.5 -136t30.5 -164t-30 -164t-85 -135.5t-139.5 -93t-186.5 -34.5h-548v1462zM717 740h-410v-627h410q144 0 233 87.5t89 226.5t-89 226t-233 87z" />
<glyph unicode="&#x42d;" horiz-adv-x="1472" d="M605 -27q-320 0 -534 261l104 67q72 -98 186 -155.5t244 -57.5q122 0 231 44.5t189.5 123t129.5 192t54 244.5h-818v115h816q-10 99 -45 187.5t-90.5 157t-127 118t-158.5 76t-181 26.5q-130 0 -244 -58t-186 -155l-102 68q205 259 532 259q153 0 289 -55.5t235.5 -153.5 t157.5 -240t58 -307t-58 -307.5t-157.5 -240.5t-235.5 -153.5t-289 -55.5z" />
<glyph unicode="&#x42e;" horiz-adv-x="2133" d="M1297 -27q-124 0 -233 35.5t-193.5 100.5t-147 154t-97 199t-39.5 232h-280v-694h-125v1462h125v-653h283q8 96 35.5 184.5t72 163.5t107 136t137 104t165 66t190.5 23q157 0 290.5 -58t225 -159.5t143 -240.5t51.5 -298t-51.5 -298.5t-143 -240.5t-225 -159.5 t-290.5 -58.5zM1297 88q129 0 238 48.5t183.5 134t116 204t41.5 255.5q0 138 -41.5 257t-116 203.5t-183.5 133t-238 48.5q-130 0 -239 -48t-183 -133t-115 -204t-41 -257t41 -256t115 -203.5t183 -134t239 -48.5z" />
<glyph unicode="&#x42f;" horiz-adv-x="1301" d="M263 0h-152l424 613q-83 3 -156 32.5t-129 81.5t-88.5 131.5t-32.5 176.5q0 130 59 228t159.5 148.5t227.5 50.5h545v-1462h-127v605h-320zM585 719h408v629h-408q-145 0 -234.5 -87.5t-89.5 -225.5q0 -139 89.5 -227.5t234.5 -88.5z" />
<glyph unicode="&#x430;" horiz-adv-x="1141" d="M964 0h-113v125q-140 -152 -360 -152q-69 0 -134.5 24t-118.5 67t-85 111.5t-32 150.5q0 84 31.5 152t84.5 110.5t118.5 65.5t135.5 23q224 0 360 -151v214q0 114 -81.5 179t-204.5 65q-99 0 -179 -37t-152 -119l-63 79q84 91 181.5 134.5t226.5 43.5q82 0 151 -20.5 t122 -61t82.5 -106.5t29.5 -152v-745zM531 63q97 0 180.5 37.5t139.5 108.5v232q-56 71 -139.5 108.5t-180.5 37.5q-130 0 -210 -74t-80 -189q0 -113 80 -187t210 -74z" />
<glyph unicode="&#x431;" horiz-adv-x="1263" d="M625 77q91 0 165.5 37.5t122 101t73.5 145.5t26 172q0 88 -26 168.5t-73.5 143t-122.5 100t-165 37.5q-89 0 -163.5 -37.5t-122.5 -100t-74 -143t-26 -168.5q0 -72 16 -139t49 -124.5t79 -100.5t108 -67.5t134 -24.5zM625 -27q-153 0 -268.5 77.5t-176.5 214.5t-61 314 q0 154 23 273t67 205t113.5 145.5t158.5 93.5t205 49q119 20 186 38t94 36.5t27 42.5h107q0 -31 -12.5 -57.5t-31.5 -45.5t-52 -35.5t-62 -27t-74 -21t-76 -16t-79 -12.5q-106 -16 -184.5 -44.5t-129 -63.5t-86 -86t-54 -102t-33.5 -123q22 41 49.5 76t65.5 69t81.5 58.5 t99.5 39t118 14.5q109 0 202.5 -43.5t156.5 -118t98.5 -175.5t35.5 -215q0 -116 -35.5 -218t-100.5 -178t-161 -120t-211 -44z" />
<glyph unicode="&#x432;" horiz-adv-x="1184" d="M730 0h-552v1058h543q131 0 209 -73t78 -199q0 -90 -49 -154.5t-120 -85.5q79 -22 134 -96.5t55 -162.5q0 -133 -80 -210t-218 -77zM705 103q96 0 149 51t53 141q0 82 -53.5 141t-148.5 59h-414v-392h414zM701 596q89 0 138.5 50.5t49.5 129.5q0 55 -21.5 95.5 t-64.5 63.5t-102 23h-410v-362h410z" />
<glyph unicode="&#x433;" horiz-adv-x="930" d="M872 1058v-100h-581v-958h-113v1058h694z" />
<glyph unicode="&#x434;" horiz-adv-x="1211" d="M40 -270v364q41 5 71.5 26.5t59.5 69t51 132t39 209.5l70 527h675v-955h127v-373h-114v270h-864v-270h-115zM434 958l-60 -441q-24 -178 -63.5 -275.5t-99.5 -138.5h681v855h-458z" />
<glyph unicode="&#x435;" horiz-adv-x="1242" d="M646 -27q-153 0 -273.5 71t-188 198.5t-67.5 288.5q0 113 38.5 215.5t106 177t162.5 118t203 43.5q118 0 213.5 -45t157.5 -122t95.5 -178.5t33.5 -216.5v-30h-886q3 -69 23 -132t56 -115.5t84.5 -91t113 -60t137.5 -21.5q101 0 190.5 37.5t156.5 108.5l58 -75 q-164 -171 -414 -171zM1010 583q-1 56 -15 111.5t-45 108.5t-75 93.5t-108.5 65.5t-141.5 25q-61 0 -114.5 -17.5t-94 -47t-73.5 -68.5t-54.5 -84.5t-33.5 -92.5t-14 -94h769z" />
<glyph unicode="&#x436;" horiz-adv-x="1522" d="M195 0h-153l491 581l-493 477h153l510 -499v499h117v-502l512 502h151l-492 -477l490 -581h-153l-421 504l-87 -83v-421h-117v423l-85 81z" />
<glyph unicode="&#x437;" horiz-adv-x="1136" d="M546 -27q-299 0 -471 176l59 75q147 -151 412 -151q157 0 254 58t97 156q0 37 -13.5 67t-39 52t-59 38.5t-76 26t-88.5 14t-98 4.5h-245v96h245q98 0 176 21.5t127.5 69.5t49.5 117q0 43 -27 79.5t-74 61.5t-111 39t-138 14q-232 0 -366 -141l-66 70q169 169 427 169 q135 0 242 -32t170.5 -97t63.5 -154q0 -48 -18.5 -89.5t-48.5 -70.5t-69 -51.5t-77 -34.5t-76 -17q39 -2 79 -12t82.5 -31t75 -49t53.5 -71.5t21 -95.5q0 -135 -126.5 -221t-346.5 -86z" />
<glyph unicode="&#x438;" horiz-adv-x="1182" d="M287 0h-109v1058h113v-880l604 880h111v-1058h-114v895z" />
<glyph unicode="&#x439;" horiz-adv-x="1182" d="M287 0h-109v1058h113v-880l604 880h111v-1058h-114v895zM975 1378q-67 -90 -167 -141t-216 -51q-115 0 -216 51t-169 141l63 55q55 -77 138.5 -120.5t183.5 -43.5q98 0 181 43.5t141 120.5z" />
<glyph unicode="&#x43a;" horiz-adv-x="1106" d="M1065 0h-153l-423 504l-198 -186v-318h-113v1058h113v-604l625 604h151l-492 -477z" />
<glyph unicode="&#x43b;" horiz-adv-x="1182" d="M40 -27v100q53 0 93 43t72.5 145.5t55.5 269.5l70 527h675v-1058h-114v958h-458l-60 -441q-26 -200 -70 -320t-107.5 -172t-156.5 -52z" />
<glyph unicode="&#x43c;" horiz-adv-x="1353" d="M1177 0h-117v903l-361 -903h-42l-366 903v-903h-113v1058h153l346 -859l342 859h158v-1058z" />
<glyph unicode="&#x43d;" horiz-adv-x="1182" d="M291 0h-113v1058h113v-460h601v460h114v-1058h-114v498h-601v-498z" />
<glyph unicode="&#x43e;" d="M625 -27q-114 0 -210 44t-161 119t-101 177t-36 217.5t36 217t101 176.5t161 118t210 43q92 0 173 -28t142 -78.5t105.5 -119t67 -152.5t22.5 -176.5t-22.5 -176.5t-67 -153t-105.5 -120t-142 -79.5t-173 -28.5zM625 77q90 0 165 37.5t122.5 101t73.5 144.5t26 171 q0 88 -26 169t-73.5 144t-122.5 100.5t-165 37.5q-60 0 -113.5 -17t-95.5 -47.5t-76 -73t-56 -92.5t-33.5 -106.5t-11.5 -114.5q0 -71 16 -138t49 -124t78.5 -100t108 -67.5t134.5 -24.5z" />
<glyph unicode="&#x43f;" horiz-adv-x="1182" d="M1006 0h-114v958h-601v-958h-113v1058h828v-1058z" />
<glyph unicode="&#x440;" horiz-adv-x="1242" d="M659 -27q-110 0 -206.5 53t-161.5 145v-574h-113v1461h113v-166q59 85 157 139t211 54q213 0 343.5 -150.5t130.5 -403.5q0 -167 -59.5 -293.5t-167 -195.5t-247.5 -69zM640 77q87 0 157.5 35t116.5 96t71 143.5t25 179.5q0 129 -42.5 230.5t-127.5 161t-200 59.5 q-106 0 -203.5 -55t-145.5 -134v-523q48 -80 145.5 -136.5t203.5 -56.5z" />
<glyph unicode="&#x441;" horiz-adv-x="1081" d="M631 -27q-114 0 -211 44t-163 119t-103 177t-37 217.5t37 217t103 176.5t163 118t211 43q130 0 217.5 -46t157.5 -134l-79 -70q-109 147 -289 147q-121 0 -212.5 -60t-139 -162t-47.5 -229.5t47.5 -230t139 -163t212.5 -60.5q179 0 289 149l79 -71q-70 -89 -157.5 -135.5 t-217.5 -46.5z" />
<glyph unicode="&#x442;" horiz-adv-x="856" d="M485 0h-115v958h-311v100h738v-100h-312v-958z" />
<glyph unicode="&#x443;" horiz-adv-x="1053" d="M107 -414l20 105q40 -17 92 -17q56 0 93 28t67 101l83 188l-447 1067h127l387 -924l381 924h129l-548 -1290q-83 -197 -272 -197q-61 0 -112 15z" />
<glyph unicode="&#x444;" horiz-adv-x="1691" d="M500 1085q58 0 112 -24.5t98.5 -68.5t78.5 -105v575h114v-570q47 85 123.5 139t165.5 54q167 0 269.5 -151t102.5 -403q0 -167 -46.5 -294t-131 -195.5t-194.5 -68.5q-86 0 -161.5 53t-127.5 145v-574h-114v572q-47 -86 -124 -141t-165 -55q-167 0 -270 151.5t-103 404.5 q0 166 47 292.5t131.5 195t194.5 68.5zM523 982q-87 0 -151.5 -60t-96.5 -162t-32 -231.5t32 -231t96.5 -161t151.5 -59.5q81 0 154.5 55t111.5 136v521q-39 79 -112.5 136t-153.5 57zM1168 77q66 0 119.5 34.5t88.5 96t54 144t19 179.5q0 77 -12 145.5t-35.5 124.5 t-56.5 96.5t-78.5 62.5t-98.5 22q-80 0 -153.5 -55t-111.5 -134v-523q38 -80 112 -136.5t153 -56.5z" />
<glyph unicode="&#x445;" horiz-adv-x="1048" d="M1012 0h-136l-350 467l-353 -467h-136l419 544l-395 514h136l329 -435l327 435h136l-395 -514z" />
<glyph unicode="&#x446;" horiz-adv-x="1211" d="M1019 -270v270h-841v1058h113v-955h601v955h114v-955h127v-373h-114z" />
<glyph unicode="&#x447;" horiz-adv-x="1171" d="M167 1058h113v-307q0 -82 18 -138t56 -87.5t88.5 -44t122.5 -12.5q55 0 115.5 10t112.5 26.5t88 35.5v517h114v-1058h-114v447q-44 -22 -99 -39.5t-118 -28.5t-120 -11q-199 0 -288 82.5t-89 274.5v333z" />
<glyph unicode="&#x448;" horiz-adv-x="1702" d="M1411 1058h114v-1058h-1347v1058h113v-955h502v955h114v-955h504v955z" />
<glyph unicode="&#x449;" horiz-adv-x="1737" d="M1411 1058h114v-955h133v-373h-113v270h-1367v1058h113v-955h502v955h114v-955h504v955z" />
<glyph unicode="&#x44a;" horiz-adv-x="1307" d="M897 0h-527v958h-311v100h426v-431h412q76 0 138.5 -25t102 -68.5t60.5 -99.5t21 -120.5t-21 -120.5t-60.5 -99.5t-102 -68.5t-138.5 -25zM887 526h-402v-423h402q101 0 156 57.5t55 153.5q0 95 -54.5 153.5t-156.5 58.5z" />
<glyph unicode="&#x44b;" horiz-adv-x="1498" d="M178 1058h113v-431h412q77 0 139 -25t101.5 -68.5t60.5 -99.5t21 -120.5t-21 -120.5t-60.5 -99.5t-101.5 -68.5t-139 -25h-525v1058zM694 526h-403v-423h403q68 0 116 27t71.5 74t23.5 110q0 95 -54.5 153.5t-156.5 58.5zM1321 0h-116v1058h116v-1058z" />
<glyph unicode="&#x44c;" horiz-adv-x="1114" d="M178 1058h113v-431h412q77 0 139 -25t101.5 -68.5t60.5 -99.5t21 -120.5t-21 -120.5t-60.5 -99.5t-101.5 -68.5t-139 -25h-525v1058zM694 526h-403v-423h403q68 0 116 27t71.5 74t23.5 110q0 95 -54.5 153.5t-156.5 58.5z" />
<glyph unicode="&#x44d;" horiz-adv-x="1081" d="M452 -27q-129 0 -217 46.5t-158 135.5l76 69q114 -151 292 -151q115 0 203 54t136.5 147t56.5 213h-571v103h571q-11 115 -60.5 204t-136 141t-199.5 52q-179 0 -292 -150l-76 68q70 88 158 134t217 46q114 0 211 -43t163 -118t103 -176.5t37 -217t-37 -217.5t-103 -177 t-163 -119t-211 -44z" />
<glyph unicode="&#x44e;" horiz-adv-x="1643" d="M1016 -27q-109 0 -202.5 41t-158.5 111.5t-103.5 166.5t-43.5 206h-217v-498h-113v1058h113v-460h219q9 83 36.5 157t72.5 134t103.5 104t134 68t159.5 24q78 0 147 -19.5t124.5 -55.5t100.5 -86.5t75 -111.5t46 -132.5t16 -148.5q0 -116 -36 -218t-100.5 -177t-161 -119 t-211.5 -44zM1016 77q91 0 166 37.5t123 101t74 144.5t26 171q0 88 -26 169t-74 144t-123 100.5t-166 37.5q-89 0 -163.5 -37.5t-122 -100.5t-73.5 -144t-26 -169q0 -90 26 -171t73.5 -144.5t122 -101t163.5 -37.5z" />
<glyph unicode="&#x44f;" horiz-adv-x="1175" d="M280 0h-136l297 434q-86 6 -151.5 46t-101 108.5t-35.5 156.5q0 135 87 224t235 89h527v-1058h-117v431h-322zM485 533h400v425h-400q-100 0 -156.5 -58.5t-56.5 -154.5q0 -97 55 -154.5t158 -57.5z" />
<glyph unicode="&#x451;" horiz-adv-x="1242" d="M931 1317q0 -33 -24 -57t-56.5 -24t-57 24t-24.5 57t24.5 57t57 24t56.5 -24t24 -57zM485 1317q0 -33 -24.5 -57t-57.5 -24q-16 0 -31 6.5t-26 17.5t-17.5 26t-6.5 31q0 33 24 57t57 24t57.5 -24t24.5 -57zM646 -27q-153 0 -273.5 71t-188 198.5t-67.5 288.5 q0 113 38.5 215.5t106 177t162.5 118t203 43.5q118 0 213.5 -45t157.5 -122t95.5 -178.5t33.5 -216.5v-30h-886q3 -69 23 -132t56 -115.5t84.5 -91t113 -60t137.5 -21.5q101 0 190.5 37.5t156.5 108.5l58 -75q-164 -171 -414 -171zM1010 583q-1 56 -15 111.5t-45 108.5 t-75 93.5t-108.5 65.5t-141.5 25q-61 0 -114.5 -17.5t-94 -47t-73.5 -68.5t-54.5 -84.5t-33.5 -92.5t-14 -94h769z" />
<glyph unicode="&#x452;" horiz-adv-x="1184" d="M648 1179h-355v-280q30 35 71.5 68t91 59.5t107 42.5t112.5 16q165 0 249 -82.5t84 -257.5v-881q0 -144 -74.5 -218.5t-212.5 -74.5q-69 0 -118.5 19t-98.5 61l50 90q72 -72 156 -72t134.5 48t50.5 147v857q0 75 -18.5 126.5t-53.5 80.5t-80 41.5t-105 12.5 q-99 0 -195.5 -53t-149.5 -129v-800h-113v1179h-159v84h159v199h113v-199h355v-84z" />
<glyph unicode="&#x453;" horiz-adv-x="930" d="M878 1534l-376 -315h-96l337 315h135zM872 1058v-100h-581v-958h-113v1058h694z" />
<glyph unicode="&#x454;" horiz-adv-x="1081" d="M631 -27q-114 0 -211 44t-163 119t-103 177t-37 217.5t37 217t103 176.5t163 118t211 43q130 0 217.5 -46t157.5 -134l-77 -68q-110 150 -291 150q-168 0 -274.5 -110.5t-122.5 -286.5h572v-103h-574q8 -120 57.5 -213t138 -147t203.5 -54q180 0 291 151l77 -69 q-70 -89 -157.5 -135.5t-217.5 -46.5z" />
<glyph unicode="&#x455;" horiz-adv-x="1005" d="M493 -27q-130 0 -230 40.5t-177 126.5l67 86q53 -68 144.5 -111.5t197.5 -43.5q131 0 207 59.5t76 154.5q0 39 -18 70t-41 50.5t-70.5 38t-78.5 27.5t-93 24q-51 13 -77 20.5t-72 22.5t-71 29t-57.5 36.5t-49.5 48t-29 61.5t-12 78q0 126 102 210t276 84q238 0 379 -156 l-64 -80q-46 64 -129 102t-186 38q-121 0 -193.5 -55t-72.5 -139q0 -34 17 -61.5t38 -45t65 -34.5t73.5 -25t87.5 -22q41 -11 62 -16.5t60 -17t60.5 -20.5t53.5 -25t50.5 -31.5t40.5 -38t33 -47.5t19 -57.5t8 -68.5q0 -43 -11 -82.5t-32.5 -74.5t-55 -63.5t-76.5 -48.5 t-99.5 -31.5t-121.5 -11.5z" />
<glyph unicode="&#x456;" horiz-adv-x="468" d="M234 1225q-35 0 -61 26t-26 62q0 23 12 43t32.5 31t42.5 11q37 0 62.5 -24.5t25.5 -60.5t-26 -62t-62 -26zM291 0h-113v1058h113v-1058z" />
<glyph unicode="&#x457;" horiz-adv-x="468" d="M539 1317q0 -33 -24 -57t-57 -24t-57 24t-24 57t24 57t57 24t57 -24t24 -57zM92 1317q0 -33 -24 -57t-57 -24t-57.5 24t-24.5 57t24.5 57t57.5 24t57 -24t24 -57zM291 0h-113v1058h113v-1058z" />
<glyph unicode="&#x458;" horiz-adv-x="468" d="M234 1225q-35 0 -61 26t-26 62q0 23 12 43t32.5 31t42.5 11q37 0 62.5 -24.5t25.5 -60.5t-26 -62t-62 -26zM4 -429q-70 0 -119 19t-98 61l50 90q68 -72 157 -72q53 0 93 19.5t65.5 64.5t25.5 111v1194h113v-1194q0 -144 -74.5 -218.5t-212.5 -74.5z" />
<glyph unicode="&#x459;" horiz-adv-x="1831" d="M40 -27v100q53 0 93 43t72.5 145.5t55.5 269.5l70 527h675v-431h412q77 0 139 -25t101.5 -68.5t60.5 -99.5t21 -120.5t-21 -120.5t-60.5 -99.5t-101.5 -68.5t-139 -25h-526v958h-458l-60 -441q-26 -200 -70 -320t-107.5 -172t-156.5 -52zM1409 526h-403v-423h403 q101 0 155.5 57.5t54.5 153.5t-53.5 154t-156.5 58z" />
<glyph unicode="&#x45a;" horiz-adv-x="1831" d="M291 0h-113v1058h113v-460h601v460h114v-460h429q96 0 166.5 -41.5t104.5 -108.5t34 -149t-34 -149t-104.5 -108.5t-166.5 -41.5h-543v498h-601v-498zM1424 498h-418v-395h418q94 0 144.5 53.5t50.5 142.5q0 90 -49.5 144.5t-145.5 54.5z" />
<glyph unicode="&#x45b;" horiz-adv-x="1184" d="M648 1179h-355v-280q30 35 71.5 68t91 59.5t107 42.5t112.5 16q165 0 249 -82.5t84 -257.5v-745h-113v721q0 75 -18.5 126.5t-53.5 80.5t-80 41.5t-105 12.5q-99 0 -195.5 -53t-149.5 -129v-800h-113v1179h-159v81h159v202h113v-202h355v-81z" />
<glyph unicode="&#x45c;" horiz-adv-x="1106" d="M910 1534l-377 -315h-96l337 315h136zM1065 0h-153l-423 504l-198 -186v-318h-113v1058h113v-604l625 604h151l-492 -477z" />
<glyph unicode="&#x45e;" horiz-adv-x="1053" d="M107 -414l20 105q40 -17 92 -17q56 0 93 28t67 101l83 188l-447 1067h127l387 -924l381 924h129l-548 -1290q-83 -197 -272 -197q-61 0 -112 15zM912 1378q-44 -59 -103 -102.5t-131 -66.5t-149 -23q-116 0 -217.5 51t-169.5 141l65 55q55 -77 138.5 -120.5t183.5 -43.5 q98 0 181 43.5t141 120.5z" />
<glyph unicode="&#x45f;" horiz-adv-x="1182" d="M535 -276v276h-357v1058h113v-955h601v955h114v-1058h-358v-276h-113z" />
<glyph unicode="&#x490;" horiz-adv-x="1187" d="M307 1348v-1348h-125v1462h800v271h127v-385h-802z" />
<glyph unicode="&#x491;" horiz-adv-x="930" d="M291 958v-958h-113v1058h578v276h116v-376h-581z" />
<glyph unicode="&#x1e02;" horiz-adv-x="1344" d="M795 0h-613v1462h600q185 0 294.5 -100.5t109.5 -272.5q0 -66 -21.5 -125.5t-58 -101.5t-82 -69.5t-95.5 -38.5q117 -18 201 -124t84 -235q0 -183 -112 -289t-307 -106zM767 807q137 0 212 75.5t75 193.5q0 57 -18.5 106t-54 86t-90.5 58.5t-124 21.5h-460v-541h460z M776 113q143 0 225 78t82 212q0 57 -20 108.5t-57 92t-97 64.5t-133 24h-469v-579h469zM675 1595q-34 0 -58.5 24.5t-24.5 59.5q0 33 24.5 58t58.5 25q33 0 57 -25t24 -58q0 -35 -24 -59.5t-57 -24.5z" />
<glyph unicode="&#x1e03;" d="M291 265q48 -78 145.5 -133t203.5 -55q115 0 200 59.5t127.5 161t42.5 231t-42.5 231.5t-127.5 162t-200 60q-106 0 -203.5 -57t-145.5 -136v-524zM291 0h-113v1462h113v-575q65 92 161.5 145t206.5 53q140 0 247.5 -69t167 -195.5t59.5 -291.5q0 -168 -60 -294.5 t-167 -194t-247 -67.5q-113 0 -211 55t-157 141v-169zM642 1595q-35 0 -59 24.5t-24 59.5q0 33 24.5 58t58.5 25q33 0 57 -25t24 -58q0 -35 -24 -59.5t-57 -24.5z" />
<glyph unicode="&#x1e0a;" horiz-adv-x="1516" d="M648 0h-466v1462h466q134 0 251 -37.5t205.5 -105t152.5 -158.5t97 -201t33 -230q0 -152 -52.5 -285.5t-146.5 -232t-233.5 -155.5t-306.5 -57zM648 113q141 0 257 48.5t192 132t117.5 195.5t41.5 240.5t-41 241t-117 196.5t-192 132.5t-258 48.5h-341v-1235h341z M759 1595q-35 0 -59.5 24.5t-24.5 59.5q0 33 24.5 58t59.5 25q32 0 56 -25t24 -58q0 -23 -11 -42t-29.5 -30.5t-39.5 -11.5z" />
<glyph unicode="&#x1e0b;" d="M1074 0h-116v169q-39 -56 -93.5 -99.5t-126.5 -70t-148 -26.5q-140 0 -247 67.5t-166.5 194t-59.5 294.5q0 124 34.5 228t96.5 176t149.5 112t192.5 40q111 0 206.5 -52.5t161.5 -145.5v575h116v-1462zM609 77q107 0 204 54.5t145 133.5v524q-48 80 -145 136.5t-204 56.5 q-114 0 -199 -60t-128 -162t-43 -231.5t43 -231t127.5 -161t199.5 -59.5zM613 1595q-34 0 -58 24.5t-24 59.5q0 22 10.5 41t30 30.5t41.5 11.5q33 0 57 -25t24 -58q0 -35 -24 -59.5t-57 -24.5z" />
<glyph unicode="&#x1e1e;" horiz-adv-x="1187" d="M646 1595q-34 0 -58.5 24.5t-24.5 59.5q0 33 24.5 58t58.5 25q33 0 57.5 -25t24.5 -58q0 -35 -24.5 -59.5t-57.5 -24.5zM307 0h-125v1462h927v-114h-802v-541h787v-115h-787v-692z" />
<glyph unicode="&#x1e1f;" horiz-adv-x="579" d="M504 1595q-35 0 -59 24.5t-24 59.5q0 22 11 41t30.5 30.5t41.5 11.5q33 0 57 -25t24 -58q0 -35 -24 -59.5t-57 -24.5zM328 0h-113v958h-175v100h175v97q0 154 76.5 241t210.5 87q60 0 106.5 -16t94.5 -58l-55 -79q-58 55 -135 55q-60 0 -101.5 -27t-62.5 -78.5 t-21 -124.5v-97h216v-100h-216v-958z" />
<glyph unicode="&#x1e22;" horiz-adv-x="1539" d="M1361 0h-127v694h-927v-694h-125v1462h125v-653h927v653h127v-1462zM771 1595q-34 0 -58.5 24.5t-24.5 59.5q0 33 24.5 58t58.5 25q33 0 57.5 -25t24.5 -58q0 -35 -24 -59.5t-58 -24.5z" />
<glyph unicode="&#x1e23;" horiz-adv-x="1182" d="M1006 0h-114v721q0 75 -18 126.5t-53 80.5t-80 41.5t-105 12.5q-99 0 -195.5 -53t-149.5 -129v-800h-113v1462h113v-563q63 75 168.5 130.5t213.5 55.5q165 0 249 -82.5t84 -257.5v-745zM594 1595q-35 0 -59.5 24.5t-24.5 59.5q0 33 25 58t59 25q33 0 57 -25t24 -58 q0 -35 -24 -59.5t-57 -24.5z" />
<glyph unicode="&#x1e56;" d="M307 0h-125v1462h548q102 0 186.5 -34.5t139.5 -93t85 -136t30 -164t-30.5 -164t-85.5 -136t-139.5 -93t-185.5 -34.5h-423v-607zM717 721q144 0 233 87.5t89 226t-89 226t-233 87.5h-410v-627h410zM627 1595q-34 0 -58.5 24.5t-24.5 59.5q0 33 24.5 58t58.5 25 q33 0 57 -25t24 -58q0 -35 -24 -59.5t-57 -24.5z" />
<glyph unicode="&#x1e57;" horiz-adv-x="1242" d="M659 -27q-110 0 -206.5 53t-161.5 145v-574h-113v1461h113v-166q59 85 157 139t211 54q213 0 343.5 -150.5t130.5 -403.5q0 -167 -59.5 -293.5t-167 -195.5t-247.5 -69zM640 77q87 0 157.5 35t116.5 96t71 143.5t25 179.5q0 129 -42.5 230.5t-127.5 161t-200 59.5 q-106 0 -203.5 -55t-145.5 -134v-523q48 -80 145.5 -136.5t203.5 -56.5zM638 1229q-35 0 -59.5 24.5t-24.5 59.5q0 33 25 58t59 25q32 0 56.5 -25t24.5 -58q0 -34 -24 -59t-57 -25z" />
<glyph unicode="&#x1e60;" horiz-adv-x="1272" d="M636 -27q-174 0 -311 63t-224 171l81 94q80 -93 195.5 -153t260.5 -60q86 0 154.5 18.5t111 47.5t70 68.5t38.5 78t11 78.5q0 43 -13 79.5t-30.5 63t-53 51t-63 40t-79 33.5t-81.5 27t-90 26q-65 18 -98.5 28t-92 31.5t-90 40t-72.5 49t-62 64.5t-36 81t-15 103 q0 87 37.5 161t102.5 124t153 77.5t187 27.5q315 0 495 -206l-83 -92q-77 93 -184 138.5t-234 45.5q-147 0 -245 -76.5t-98 -193.5q0 -35 12 -66t27.5 -53t48 -43.5t57.5 -34.5t72.5 -29.5t75.5 -25t84 -24.5q68 -19 103.5 -29.5t97.5 -33.5t96.5 -43.5t79 -54.5t67 -72 t39.5 -90.5t17 -115.5q0 -59 -16 -115t-54 -111.5t-95.5 -96t-148.5 -66t-205 -25.5zM638 1595q-35 0 -59.5 24.5t-24.5 59.5q0 33 25 58t59 25q32 0 56.5 -25t24.5 -58q0 -35 -24 -59.5t-57 -24.5z" />
<glyph unicode="&#x1e61;" horiz-adv-x="1005" d="M493 -27q-130 0 -230 40.5t-177 126.5l67 86q53 -68 144.5 -111.5t197.5 -43.5q131 0 207 59.5t76 154.5q0 39 -18 70t-41 50.5t-70.5 38t-78.5 27.5t-93 24q-51 13 -77 20.5t-72 22.5t-71 29t-57.5 36.5t-49.5 48t-29 61.5t-12 78q0 126 102 210t276 84q238 0 379 -156 l-64 -80q-46 64 -129 102t-186 38q-121 0 -193.5 -55t-72.5 -139q0 -34 17 -61.5t38 -45t65 -34.5t73.5 -25t87.5 -22q41 -11 62 -16.5t60 -17t60.5 -20.5t53.5 -25t50.5 -31.5t40.5 -38t33 -47.5t19 -57.5t8 -68.5q0 -43 -11 -82.5t-32.5 -74.5t-55 -63.5t-76.5 -48.5 t-99.5 -31.5t-121.5 -11.5zM504 1229q-35 0 -59 24.5t-24 59.5q0 22 11 41t30.5 30.5t41.5 11.5q33 0 57 -25t24 -58q0 -34 -24 -59t-57 -25z" />
<glyph unicode="&#x1e6a;" horiz-adv-x="1235" d="M682 0h-128v1348h-477v114h1082v-114h-477v-1348zM618 1595q-34 0 -58.5 24.5t-24.5 59.5q0 33 24.5 58t58.5 25q33 0 57 -25t24 -58q0 -23 -11 -42t-29.5 -30.5t-40.5 -11.5z" />
<glyph unicode="&#x1e6b;" horiz-adv-x="602" d="M408 -27q-104 0 -156.5 60t-52.5 170v755h-174v100h174v290h117v-290h215v-100h-215v-737q0 -43 11.5 -75t36 -50.5t61.5 -18.5q36 0 67.5 14.5t51.5 35.5l43 -87q-34 -33 -75.5 -50t-103.5 -17zM274 1595q-35 0 -59.5 24.5t-24.5 59.5q0 33 25 58t59 25q33 0 57 -25 t24 -58q0 -35 -24 -59.5t-57 -24.5z" />
<glyph unicode="&#x1e80;" horiz-adv-x="1899" d="M1442 0h-140l-351 1256l-351 -1256h-140l-418 1462h140l353 -1287l360 1287h113l357 -1287l353 1287h141zM1069 1585h-96l-377 315h136z" />
<glyph unicode="&#x1e81;" horiz-adv-x="1575" d="M1194 0h-109l-296 905l-298 -905h-110l-344 1058h123l281 -898l297 898h99l298 -898l281 898h123zM907 1219h-96l-377 315h135z" />
<glyph unicode="&#x1e82;" horiz-adv-x="1899" d="M1306 1900l-377 -315h-97l339 315h135zM1442 0h-140l-351 1256l-351 -1256h-140l-418 1462h140l353 -1287l360 1287h113l357 -1287l353 1287h141z" />
<glyph unicode="&#x1e83;" horiz-adv-x="1575" d="M1144 1534l-377 -315h-96l337 315h136zM1194 0h-109l-296 905l-298 -905h-110l-344 1058h123l281 -898l297 898h99l298 -898l281 898h123z" />
<glyph unicode="&#x1e84;" horiz-adv-x="1899" d="M1256 1683q0 -33 -24 -57t-57 -24t-57 24t-24 57q0 22 11 40.5t29.5 29.5t40.5 11q33 0 57 -24t24 -57zM809 1683q0 -33 -24 -57t-57 -24t-57.5 24t-24.5 57t24.5 57t57.5 24t57 -24t24 -57zM1442 0h-140l-351 1256l-351 -1256h-140l-418 1462h140l353 -1287l360 1287 h113l357 -1287l353 1287h141z" />
<glyph unicode="&#x1e85;" horiz-adv-x="1575" d="M1091 1317q0 -33 -24 -57t-57 -24t-57 24t-24 57t24 57t57 24t57 -24t24 -57zM644 1317q0 -33 -24 -57t-57 -24t-56.5 24t-23.5 57t23.5 57t56.5 24t57 -24t24 -57zM1194 0h-109l-296 905l-298 -905h-110l-344 1058h123l281 -898l297 898h99l298 -898l281 898h123z" />
<glyph unicode="&#x1ea0;" horiz-adv-x="1417" d="M1385 0h-145l-144 360h-774l-144 -360h-145l598 1462h155zM1054 473l-346 855l-344 -855h690zM710 -391q-34 0 -58.5 24.5t-24.5 59.5q0 33 24.5 58t58.5 25q33 0 57 -25t24 -58q0 -35 -24 -59.5t-57 -24.5z" />
<glyph unicode="&#x1ea1;" horiz-adv-x="1141" d="M964 0h-113v125q-140 -152 -360 -152q-69 0 -134.5 24t-118.5 67t-85 111.5t-32 150.5q0 84 31.5 152t84.5 110.5t118.5 65.5t135.5 23q224 0 360 -151v214q0 114 -81.5 179t-204.5 65q-99 0 -179 -37t-152 -119l-63 79q84 91 181.5 134.5t226.5 43.5q82 0 151 -20.5 t122 -61t82.5 -106.5t29.5 -152v-745zM531 63q97 0 180.5 37.5t139.5 108.5v232q-56 71 -139.5 108.5t-180.5 37.5q-130 0 -210 -74t-80 -189q0 -113 80 -187t210 -74zM575 -391q-35 0 -59.5 24.5t-24.5 59.5q0 33 24.5 58t59.5 25q21 0 39.5 -11.5t29.5 -30.5t11 -41 q0 -35 -23.5 -59.5t-56.5 -24.5z" />
<glyph unicode="&#x1ea2;" horiz-adv-x="1417" d="M1385 0h-145l-144 360h-774l-144 -360h-145l598 1462h155zM1054 473l-346 855l-344 -855h690zM613 1661l-57 18q10 33 30 58.5t52 42.5t72 17q65 0 107 -37.5t42 -111.5q0 -61 -44 -121h-75q55 54 55 119q0 44 -23 68t-62 24q-71 0 -97 -77z" />
<glyph unicode="&#x1ea3;" horiz-adv-x="1141" d="M964 0h-113v125q-140 -152 -360 -152q-69 0 -134.5 24t-118.5 67t-85 111.5t-32 150.5q0 84 31.5 152t84.5 110.5t118.5 65.5t135.5 23q224 0 360 -151v214q0 114 -81.5 179t-204.5 65q-99 0 -179 -37t-152 -119l-63 79q84 91 181.5 134.5t226.5 43.5q82 0 151 -20.5 t122 -61t82.5 -106.5t29.5 -152v-745zM531 63q97 0 180.5 37.5t139.5 108.5v232q-56 71 -139.5 108.5t-180.5 37.5q-130 0 -210 -74t-80 -189q0 -113 80 -187t210 -74zM475 1288l-57 18q16 52 55.5 85t98.5 33q65 0 107 -37t42 -112q0 -60 -44 -120h-75q55 54 55 118 q0 45 -23 68.5t-62 23.5q-71 0 -97 -77z" />
<glyph unicode="&#x1ea4;" horiz-adv-x="1417" d="M987 1495h-88l-189 186l-187 -186h-84l212 236h118zM1385 0h-145l-144 360h-774l-144 -360h-145l598 1462h155zM1054 473l-346 855l-344 -855h690zM1389 1852l-377 -237h-96l337 237h136z" />
<glyph unicode="&#x1ea5;" horiz-adv-x="1141" d="M964 0h-113v125q-140 -152 -360 -152q-69 0 -134.5 24t-118.5 67t-85 111.5t-32 150.5q0 84 31.5 152t84.5 110.5t118.5 65.5t135.5 23q224 0 360 -151v214q0 114 -81.5 179t-204.5 65q-99 0 -179 -37t-152 -119l-63 79q84 91 181.5 134.5t226.5 43.5q82 0 151 -20.5 t122 -61t82.5 -106.5t29.5 -152v-745zM531 63q97 0 180.5 37.5t139.5 108.5v232q-56 71 -139.5 108.5t-180.5 37.5q-130 0 -210 -74t-80 -189q0 -113 80 -187t210 -74zM855 1219h-88l-188 247l-186 -247h-86l212 315h119zM1242 1687l-376 -315h-97l337 315h136z" />
<glyph unicode="&#x1ea6;" horiz-adv-x="1417" d="M987 1495h-88l-189 186l-187 -186h-84l212 236h118zM1385 0h-145l-144 360h-774l-144 -360h-145l598 1462h155zM1054 473l-346 855l-344 -855h690zM504 1615h-96l-377 237h136z" />
<glyph unicode="&#x1ea7;" horiz-adv-x="1141" d="M964 0h-113v125q-140 -152 -360 -152q-69 0 -134.5 24t-118.5 67t-85 111.5t-32 150.5q0 84 31.5 152t84.5 110.5t118.5 65.5t135.5 23q224 0 360 -151v214q0 114 -81.5 179t-204.5 65q-99 0 -179 -37t-152 -119l-63 79q84 91 181.5 134.5t226.5 43.5q82 0 151 -20.5 t122 -61t82.5 -106.5t29.5 -152v-745zM531 63q97 0 180.5 37.5t139.5 108.5v232q-56 71 -139.5 108.5t-180.5 37.5q-130 0 -210 -74t-80 -189q0 -113 80 -187t210 -74zM855 1219h-88l-188 247l-186 -247h-86l212 315h119zM385 1372h-96l-377 315h136z" />
<glyph unicode="&#x1ea8;" horiz-adv-x="1417" d="M987 1495h-88l-189 186l-187 -186h-84l212 236h118zM1385 0h-145l-144 360h-774l-144 -360h-145l598 1462h155zM1054 473l-346 855l-344 -855h690zM899 1731l-58 13q15 39 55 63.5t99 24.5q31 0 57 -6.5t47 -19.5t33 -35t12 -50q0 -26 -10.5 -45.5t-33.5 -44.5h-75 q56 43 56 90q0 33 -23.5 50t-62.5 17q-70 0 -96 -57z" />
<glyph unicode="&#x1ea9;" horiz-adv-x="1141" d="M964 0h-113v125q-140 -152 -360 -152q-69 0 -134.5 24t-118.5 67t-85 111.5t-32 150.5q0 84 31.5 152t84.5 110.5t118.5 65.5t135.5 23q224 0 360 -151v214q0 114 -81.5 179t-204.5 65q-99 0 -179 -37t-152 -119l-63 79q84 91 181.5 134.5t226.5 43.5q82 0 151 -20.5 t122 -61t82.5 -106.5t29.5 -152v-745zM531 63q97 0 180.5 37.5t139.5 108.5v232q-56 71 -139.5 108.5t-180.5 37.5q-130 0 -210 -74t-80 -189q0 -113 80 -187t210 -74zM855 1219h-88l-188 247l-186 -247h-86l212 315h119zM669 1595l-58 17q16 52 55.5 85.5t98.5 33.5 q64 0 106.5 -37t42.5 -111q0 -61 -44 -121h-75q56 55 56 118q0 45 -23.5 68.5t-62.5 23.5q-70 0 -96 -77z" />
<glyph unicode="&#x1eaa;" horiz-adv-x="1417" d="M987 1486h-88l-189 122l-187 -122h-84l212 158h118zM1385 0h-145l-144 360h-774l-144 -360h-145l598 1462h155zM1054 473l-346 855l-344 -855h690zM841 1658q-46 0 -80.5 12t-55 28.5t-39.5 33t-44 28t-57 11.5q-52 0 -85 -26.5t-33 -79.5h-77q0 63 54.5 105.5 t150.5 42.5q45 0 79 -12t54.5 -28.5t39 -33t44 -28t57.5 -11.5q52 0 83.5 26.5t31.5 79.5h79q0 -65 -53 -106.5t-149 -41.5z" />
<glyph unicode="&#x1eab;" horiz-adv-x="1141" d="M964 0h-113v125q-140 -152 -360 -152q-69 0 -134.5 24t-118.5 67t-85 111.5t-32 150.5q0 84 31.5 152t84.5 110.5t118.5 65.5t135.5 23q224 0 360 -151v214q0 114 -81.5 179t-204.5 65q-99 0 -179 -37t-152 -119l-63 79q84 91 181.5 134.5t226.5 43.5q82 0 151 -20.5 t122 -61t82.5 -106.5t29.5 -152v-745zM531 63q97 0 180.5 37.5t139.5 108.5v232q-56 71 -139.5 108.5t-180.5 37.5q-130 0 -210 -74t-80 -189q0 -113 80 -187t210 -74zM855 1146h-88l-188 248l-186 -248h-86l212 316h119zM703 1495q-39 0 -69.5 16.5t-49 41.5t-37.5 54.5 t-33.5 54.5t-37 42t-49.5 17q-34 0 -60 -22t-42 -71t-16 -120h-77q0 83 23.5 148.5t70.5 105t111 39.5q38 0 68.5 -16.5t48.5 -41.5t36.5 -53.5t33 -53.5t37 -41.5t49.5 -16.5q52 0 84 52.5t32 157.5h79q0 -128 -53 -210.5t-149 -82.5z" />
<glyph unicode="&#x1eac;" horiz-adv-x="1417" d="M1385 0h-145l-144 360h-774l-144 -360h-145l598 1462h155zM1054 473l-346 855l-344 -855h690zM984 1585h-87l-189 247l-187 -247h-84l211 315h119zM710 -391q-34 0 -58.5 24.5t-24.5 59.5q0 33 24.5 58t58.5 25q33 0 57 -25t24 -58q0 -35 -24 -59.5t-57 -24.5z" />
<glyph unicode="&#x1ead;" horiz-adv-x="1141" d="M964 0h-113v125q-140 -152 -360 -152q-69 0 -134.5 24t-118.5 67t-85 111.5t-32 150.5q0 84 31.5 152t84.5 110.5t118.5 65.5t135.5 23q224 0 360 -151v214q0 114 -81.5 179t-204.5 65q-99 0 -179 -37t-152 -119l-63 79q84 91 181.5 134.5t226.5 43.5q82 0 151 -20.5 t122 -61t82.5 -106.5t29.5 -152v-745zM531 63q97 0 180.5 37.5t139.5 108.5v232q-56 71 -139.5 108.5t-180.5 37.5q-130 0 -210 -74t-80 -189q0 -113 80 -187t210 -74zM843 1219h-87l-189 247l-186 -247h-86l213 315h119zM575 -391q-35 0 -59.5 24.5t-24.5 59.5 q0 33 24.5 58t59.5 25q21 0 39.5 -11.5t29.5 -30.5t11 -41q0 -35 -23.5 -59.5t-56.5 -24.5z" />
<glyph unicode="&#x1eae;" horiz-adv-x="1417" d="M1385 0h-145l-144 360h-774l-144 -360h-145l598 1462h155zM1054 473l-346 855l-344 -855h690zM1060 1843l-376 -226h-97l337 226h136zM1091 1685q-67 -83 -167 -131.5t-216 -48.5q-114 0 -215.5 48.5t-170.5 131.5l63 51q56 -72 139.5 -111.5t183.5 -39.5q99 0 182 39.5 t140 111.5z" />
<glyph unicode="&#x1eaf;" horiz-adv-x="1141" d="M964 0h-113v125q-140 -152 -360 -152q-69 0 -134.5 24t-118.5 67t-85 111.5t-32 150.5q0 84 31.5 152t84.5 110.5t118.5 65.5t135.5 23q224 0 360 -151v214q0 114 -81.5 179t-204.5 65q-99 0 -179 -37t-152 -119l-63 79q84 91 181.5 134.5t226.5 43.5q82 0 151 -20.5 t122 -61t82.5 -106.5t29.5 -152v-745zM531 63q97 0 180.5 37.5t139.5 108.5v232q-56 71 -139.5 108.5t-180.5 37.5q-130 0 -210 -74t-80 -189q0 -113 80 -187t210 -74zM933 1668l-377 -316h-96l337 316h136zM960 1341q-67 -91 -167 -142t-216 -51q-115 0 -216.5 51.5 t-170.5 141.5l65 55q56 -77 139 -120.5t183 -43.5q98 0 181 43.5t141 120.5z" />
<glyph unicode="&#x1eb0;" horiz-adv-x="1417" d="M1385 0h-145l-144 360h-774l-144 -360h-145l598 1462h155zM1054 473l-346 855l-344 -855h690zM835 1617h-97l-376 226h136zM1091 1679q-67 -84 -167 -132t-216 -48q-114 0 -215.5 48.5t-170.5 131.5l63 50q56 -71 139.5 -111t183.5 -40q99 0 182 39.5t140 111.5z" />
<glyph unicode="&#x1eb1;" horiz-adv-x="1141" d="M964 0h-113v125q-140 -152 -360 -152q-69 0 -134.5 24t-118.5 67t-85 111.5t-32 150.5q0 84 31.5 152t84.5 110.5t118.5 65.5t135.5 23q224 0 360 -151v214q0 114 -81.5 179t-204.5 65q-99 0 -179 -37t-152 -119l-63 79q84 91 181.5 134.5t226.5 43.5q82 0 151 -20.5 t122 -61t82.5 -106.5t29.5 -152v-745zM531 63q97 0 180.5 37.5t139.5 108.5v232q-56 71 -139.5 108.5t-180.5 37.5q-130 0 -210 -74t-80 -189q0 -113 80 -187t210 -74zM690 1352h-96l-377 316h136zM960 1350q-67 -90 -167 -141.5t-216 -51.5q-115 0 -216.5 51.5 t-170.5 141.5l65 55q56 -77 139 -121t183 -44q98 0 181 44t141 121z" />
<glyph unicode="&#x1eb2;" horiz-adv-x="1417" d="M1385 0h-145l-144 360h-774l-144 -360h-145l598 1462h155zM1054 473l-346 855l-344 -855h690zM613 1723l-57 10q10 24 30 43t52 31t72 12q42 0 74.5 -10.5t53.5 -35.5t21 -62q0 -24 -10.5 -42.5t-33.5 -42.5h-75q55 40 55 85q0 32 -23 49t-62 17q-70 0 -97 -54z M1091 1683q-67 -83 -167 -131.5t-216 -48.5q-114 0 -215.5 48.5t-170.5 131.5l63 50q56 -71 139.5 -110.5t183.5 -39.5q99 0 182 39.5t140 110.5z" />
<glyph unicode="&#x1eb3;" horiz-adv-x="1141" d="M964 0h-113v125q-140 -152 -360 -152q-69 0 -134.5 24t-118.5 67t-85 111.5t-32 150.5q0 84 31.5 152t84.5 110.5t118.5 65.5t135.5 23q224 0 360 -151v214q0 114 -81.5 179t-204.5 65q-99 0 -179 -37t-152 -119l-63 79q84 91 181.5 134.5t226.5 43.5q82 0 151 -20.5 t122 -61t82.5 -106.5t29.5 -152v-745zM531 63q97 0 180.5 37.5t139.5 108.5v232q-56 71 -139.5 108.5t-180.5 37.5q-130 0 -210 -74t-80 -189q0 -113 80 -187t210 -74zM480 1479l-57 18q15 51 55 84.5t99 33.5q64 0 106 -37.5t42 -111.5q0 -61 -43 -121h-75q54 55 54 119 q0 44 -22.5 68t-61.5 24q-70 0 -97 -77zM960 1350q-67 -90 -167 -141.5t-216 -51.5q-115 0 -216.5 51.5t-170.5 141.5l65 55q56 -77 139 -121t183 -44q98 0 181 44t141 121z" />
<glyph unicode="&#x1eb4;" horiz-adv-x="1417" d="M1385 0h-145l-144 360h-774l-144 -360h-145l598 1462h155zM1054 473l-346 855l-344 -855h690zM1094 1612q-67 -57 -167 -89t-217 -32q-114 0 -215.5 32.5t-170.5 88.5l63 36q56 -49 140 -77t183 -28q98 0 181.5 28t141.5 77zM841 1658q-46 0 -80.5 12t-55 28.5t-39.5 33 t-44 28t-57 11.5q-52 0 -85 -26.5t-33 -79.5h-77q0 63 54.5 105.5t150.5 42.5q45 0 79 -12t54.5 -28.5t39 -33t44 -28t57.5 -11.5q52 0 83.5 26.5t31.5 79.5h79q0 -65 -53 -106.5t-149 -41.5z" />
<glyph unicode="&#x1eb5;" horiz-adv-x="1141" d="M964 0h-113v125q-140 -152 -360 -152q-69 0 -134.5 24t-118.5 67t-85 111.5t-32 150.5q0 84 31.5 152t84.5 110.5t118.5 65.5t135.5 23q224 0 360 -151v214q0 114 -81.5 179t-204.5 65q-99 0 -179 -37t-152 -119l-63 79q84 91 181.5 134.5t226.5 43.5q82 0 151 -20.5 t122 -61t82.5 -106.5t29.5 -152v-745zM531 63q97 0 180.5 37.5t139.5 108.5v232q-56 71 -139.5 108.5t-180.5 37.5q-130 0 -210 -74t-80 -189q0 -113 80 -187t210 -74zM960 1350q-67 -90 -167 -141.5t-216 -51.5q-115 0 -216.5 51.5t-170.5 141.5l65 55q56 -77 139 -121 t183 -44q98 0 181 44t141 121zM703 1440q-39 0 -69.5 17t-49 41.5t-37.5 54t-33.5 54.5t-37 41.5t-49.5 16.5q-52 0 -85 -53t-33 -159h-77q0 128 54.5 210.5t150.5 82.5q38 0 68.5 -16.5t48.5 -41.5t36.5 -54t33 -53.5t37 -41t49.5 -16.5q52 0 84 52.5t32 157.5h79 q0 -128 -53 -210.5t-149 -82.5z" />
<glyph unicode="&#x1eb6;" horiz-adv-x="1417" d="M1385 0h-145l-144 360h-774l-144 -360h-145l598 1462h155zM1054 473l-346 855l-344 -855h690zM710 -391q-34 0 -58.5 24.5t-24.5 59.5q0 33 24.5 58t58.5 25q33 0 57 -25t24 -58q0 -35 -24 -59.5t-57 -24.5zM1091 1744q-66 -90 -166 -141t-217 -51q-115 0 -216.5 51 t-169.5 141l63 55q56 -77 139.5 -120.5t183.5 -43.5q99 0 182 43.5t140 120.5z" />
<glyph unicode="&#x1eb7;" horiz-adv-x="1141" d="M964 0h-113v125q-140 -152 -360 -152q-69 0 -134.5 24t-118.5 67t-85 111.5t-32 150.5q0 84 31.5 152t84.5 110.5t118.5 65.5t135.5 23q224 0 360 -151v214q0 114 -81.5 179t-204.5 65q-99 0 -179 -37t-152 -119l-63 79q84 91 181.5 134.5t226.5 43.5q82 0 151 -20.5 t122 -61t82.5 -106.5t29.5 -152v-745zM531 63q97 0 180.5 37.5t139.5 108.5v232q-56 71 -139.5 108.5t-180.5 37.5q-130 0 -210 -74t-80 -189q0 -113 80 -187t210 -74zM575 -391q-35 0 -59.5 24.5t-24.5 59.5q0 33 24.5 58t59.5 25q21 0 39.5 -11.5t29.5 -30.5t11 -41 q0 -35 -23.5 -59.5t-56.5 -24.5zM953 1378q-66 -90 -166.5 -141t-217.5 -51q-115 0 -216 51t-169 141l63 55q37 -51 85.5 -87.5t109 -56.5t127.5 -20q99 0 182.5 43.5t140.5 120.5z" />
<glyph unicode="&#x1eb8;" horiz-adv-x="1235" d="M1109 0h-927v1462h927v-114h-802v-541h787v-115h-787v-579h802v-113zM657 -391q-34 0 -58 24.5t-24 59.5q0 22 10.5 41t30 30.5t41.5 11.5q21 0 40 -11.5t30 -30.5t11 -41q0 -34 -24 -59t-57 -25z" />
<glyph unicode="&#x1eb9;" horiz-adv-x="1242" d="M646 -27q-153 0 -273.5 71t-188 198.5t-67.5 288.5q0 113 38.5 215.5t106 177t162.5 118t203 43.5q118 0 213.5 -45t157.5 -122t95.5 -178.5t33.5 -216.5v-30h-886q3 -69 23 -132t56 -115.5t84.5 -91t113 -60t137.5 -21.5q101 0 190.5 37.5t156.5 108.5l58 -75 q-164 -171 -414 -171zM1010 583q-1 56 -15 111.5t-45 108.5t-75 93.5t-108.5 65.5t-141.5 25q-61 0 -114.5 -17.5t-94 -47t-73.5 -68.5t-54.5 -84.5t-33.5 -92.5t-14 -94h769zM631 -391q-34 0 -58.5 24.5t-24.5 59.5q0 33 24.5 58t58.5 25q33 0 57.5 -25t24.5 -58 q0 -17 -7 -32.5t-18 -26.5t-26 -18t-31 -7z" />
<glyph unicode="&#x1eba;" horiz-adv-x="1235" d="M1109 0h-927v1462h927v-114h-802v-541h787v-115h-787v-579h802v-113zM531 1661l-58 18q7 24 20.5 45t32.5 37.5t45 26t56 9.5q64 0 106.5 -37.5t42.5 -111.5q0 -61 -44 -121h-75q56 56 56 119q0 44 -23.5 68t-62.5 24q-70 0 -96 -77z" />
<glyph unicode="&#x1ebb;" horiz-adv-x="1242" d="M646 -27q-153 0 -273.5 71t-188 198.5t-67.5 288.5q0 113 38.5 215.5t106 177t162.5 118t203 43.5q118 0 213.5 -45t157.5 -122t95.5 -178.5t33.5 -216.5v-30h-886q3 -69 23 -132t56 -115.5t84.5 -91t113 -60t137.5 -21.5q101 0 190.5 37.5t156.5 108.5l58 -75 q-164 -171 -414 -171zM1010 583q-1 56 -15 111.5t-45 108.5t-75 93.5t-108.5 65.5t-141.5 25q-61 0 -114.5 -17.5t-94 -47t-73.5 -68.5t-54.5 -84.5t-33.5 -92.5t-14 -94h769zM531 1288l-58 18q16 52 55.5 85t98.5 33q64 0 106.5 -37t42.5 -112q0 -60 -44 -120h-75 q56 55 56 118q0 45 -23.5 68.5t-62.5 23.5q-70 0 -96 -77z" />
<glyph unicode="&#x1ebc;" horiz-adv-x="1235" d="M1109 0h-927v1462h927v-114h-802v-541h787v-115h-787v-579h802v-113zM782 1580q-38 0 -69 17t-49.5 42t-37 54.5t-33.5 54.5t-37.5 41.5t-49.5 16.5q-52 0 -85.5 -53.5t-33.5 -159.5h-76q0 84 23 149.5t70 104.5t111 39q38 0 68.5 -16.5t48.5 -41t36.5 -53.5t33.5 -54 t37.5 -41.5t49.5 -16.5q33 0 59 21.5t41.5 70t15.5 119.5h79q0 -129 -53 -211.5t-149 -82.5z" />
<glyph unicode="&#x1ebd;" horiz-adv-x="1242" d="M646 -27q-153 0 -273.5 71t-188 198.5t-67.5 288.5q0 113 38.5 215.5t106 177t162.5 118t203 43.5q118 0 213.5 -45t157.5 -122t95.5 -178.5t33.5 -216.5v-30h-886q3 -69 23 -132t56 -115.5t84.5 -91t113 -60t137.5 -21.5q101 0 190.5 37.5t156.5 108.5l58 -75 q-164 -171 -414 -171zM1010 583q-1 56 -15 111.5t-45 108.5t-75 93.5t-108.5 65.5t-141.5 25q-61 0 -114.5 -17.5t-94 -47t-73.5 -68.5t-54.5 -84.5t-33.5 -92.5t-14 -94h769zM759 1214q-39 0 -70 17t-49.5 42t-37 54.5t-33 54.5t-37 41.5t-49.5 16.5q-53 0 -86 -53.5 t-33 -159.5h-77q0 128 54 210.5t150 82.5q38 0 68.5 -16.5t49 -41t37 -53.5t33 -54t37 -41.5t49.5 -16.5q52 0 84 52.5t32 158.5h79q0 -129 -53 -211.5t-148 -82.5z" />
<glyph unicode="&#x1ebe;" horiz-adv-x="1235" d="M929 1495h-88l-188 186l-186 -186h-86l213 236h119zM1332 1852l-376 -237h-97l337 237h136zM1109 0h-927v1462h927v-114h-802v-541h787v-115h-787v-579h802v-113z" />
<glyph unicode="&#x1ebf;" horiz-adv-x="1242" d="M901 1219h-88l-188 247l-186 -247h-86l212 315h119zM1288 1687l-376 -315h-97l337 315h136zM646 -27q-153 0 -273.5 71t-188 198.5t-67.5 288.5q0 113 38.5 215.5t106 177t162.5 118t203 43.5q118 0 213.5 -45t157.5 -122t95.5 -178.5t33.5 -216.5v-30h-886 q3 -69 23 -132t56 -115.5t84.5 -91t113 -60t137.5 -21.5q101 0 190.5 37.5t156.5 108.5l58 -75q-164 -171 -414 -171zM1010 583q-1 56 -15 111.5t-45 108.5t-75 93.5t-108.5 65.5t-141.5 25q-61 0 -114.5 -17.5t-94 -47t-73.5 -68.5t-54.5 -84.5t-33.5 -92.5t-14 -94h769z " />
<glyph unicode="&#x1ec0;" horiz-adv-x="1235" d="M924 1495h-87l-189 186l-186 -186h-85l213 236h118zM1109 0h-927v1462h927v-114h-802v-541h787v-115h-787v-579h802v-113zM443 1615h-96l-378 237h136z" />
<glyph unicode="&#x1ec1;" horiz-adv-x="1242" d="M899 1219h-88l-188 247l-186 -247h-86l212 315h119zM646 -27q-153 0 -273.5 71t-188 198.5t-67.5 288.5q0 113 38.5 215.5t106 177t162.5 118t203 43.5q118 0 213.5 -45t157.5 -122t95.5 -178.5t33.5 -216.5v-30h-886q3 -69 23 -132t56 -115.5t84.5 -91t113 -60 t137.5 -21.5q101 0 190.5 37.5t156.5 108.5l58 -75q-164 -171 -414 -171zM1010 583q-1 56 -15 111.5t-45 108.5t-75 93.5t-108.5 65.5t-141.5 25q-61 0 -114.5 -17.5t-94 -47t-73.5 -68.5t-54.5 -84.5t-33.5 -92.5t-14 -94h769zM429 1372h-96l-377 315h136z" />
<glyph unicode="&#x1ec2;" horiz-adv-x="1235" d="M931 1495h-88l-188 186l-186 -186h-86l213 236h119zM1109 0h-927v1462h927v-114h-802v-541h787v-115h-787v-579h802v-113zM843 1731l-57 13q16 39 55.5 63.5t99.5 24.5q24 0 45.5 -4t40.5 -12.5t32.5 -21.5t21.5 -31.5t8 -41.5q0 -26 -10 -45.5t-34 -44.5h-75 q55 42 55 90q0 33 -22.5 50t-61.5 17q-72 0 -98 -57z" />
<glyph unicode="&#x1ec3;" horiz-adv-x="1242" d="M897 1219h-88l-188 247l-187 -247h-85l212 315h118zM646 -27q-153 0 -273.5 71t-188 198.5t-67.5 288.5q0 113 38.5 215.5t106 177t162.5 118t203 43.5q118 0 213.5 -45t157.5 -122t95.5 -178.5t33.5 -216.5v-30h-886q3 -69 23 -132t56 -115.5t84.5 -91t113 -60 t137.5 -21.5q101 0 190.5 37.5t156.5 108.5l58 -75q-164 -171 -414 -171zM1010 583q-1 56 -15 111.5t-45 108.5t-75 93.5t-108.5 65.5t-141.5 25q-61 0 -114.5 -17.5t-94 -47t-73.5 -68.5t-54.5 -84.5t-33.5 -92.5t-14 -94h769zM710 1595l-57 17q15 52 55 85.5t99 33.5 q64 0 106.5 -37t42.5 -111q0 -61 -44 -121h-75q55 55 55 118q0 30 -11 51t-30 31t-44 10q-70 0 -97 -77z" />
<glyph unicode="&#x1ec4;" horiz-adv-x="1235" d="M929 1486h-88l-188 122l-186 -122h-86l213 158h119zM1109 0h-927v1462h927v-114h-802v-541h787v-115h-787v-579h802v-113zM784 1658q-45 0 -79.5 12t-55.5 28.5t-40 33t-44 28t-57 11.5q-52 0 -84.5 -26.5t-32.5 -79.5h-77q0 64 53.5 106t149.5 42q45 0 79 -12 t54.5 -28.5t39.5 -33t44 -28t57 -11.5q52 0 84 26.5t32 79.5h80q0 -65 -53.5 -106.5t-149.5 -41.5z" />
<glyph unicode="&#x1ec5;" horiz-adv-x="1242" d="M895 1146h-88l-189 248l-187 -248h-84l212 316h118zM646 -27q-153 0 -273.5 71t-188 198.5t-67.5 288.5q0 113 38.5 215.5t106 177t162.5 118t203 43.5q118 0 213.5 -45t157.5 -122t95.5 -178.5t33.5 -216.5v-30h-886q3 -69 23 -132t56 -115.5t84.5 -91t113 -60 t137.5 -21.5q101 0 190.5 37.5t156.5 108.5l58 -75q-164 -171 -414 -171zM1010 583q-1 56 -15 111.5t-45 108.5t-75 93.5t-108.5 65.5t-141.5 25q-61 0 -114.5 -17.5t-94 -47t-73.5 -68.5t-54.5 -84.5t-33.5 -92.5t-14 -94h769zM743 1495q-39 0 -70 16.5t-49.5 41.5 t-37 54.5t-33 54.5t-37 42t-49.5 17q-34 0 -60 -22t-42 -71t-16 -120h-77q0 128 53.5 210.5t149.5 82.5q38 0 68.5 -16.5t49 -41.5t37 -53.5t33 -53.5t37 -41.5t49.5 -16.5q52 0 84.5 52.5t32.5 157.5h79q0 -128 -53.5 -210.5t-148.5 -82.5z" />
<glyph unicode="&#x1ec6;" horiz-adv-x="1235" d="M916 1585h-88l-188 247l-186 -247h-86l213 315h118zM1109 0h-927v1462h927v-114h-802v-541h787v-115h-787v-579h802v-113zM657 -391q-34 0 -58 24.5t-24 59.5q0 22 10.5 41t30 30.5t41.5 11.5q21 0 40 -11.5t30 -30.5t11 -41q0 -34 -24 -59t-57 -25z" />
<glyph unicode="&#x1ec7;" horiz-adv-x="1242" d="M903 1219h-88l-188 247l-186 -247h-86l212 315h119zM646 -27q-153 0 -273.5 71t-188 198.5t-67.5 288.5q0 113 38.5 215.5t106 177t162.5 118t203 43.5q118 0 213.5 -45t157.5 -122t95.5 -178.5t33.5 -216.5v-30h-886q3 -69 23 -132t56 -115.5t84.5 -91t113 -60 t137.5 -21.5q101 0 190.5 37.5t156.5 108.5l58 -75q-164 -171 -414 -171zM1010 583q-1 56 -15 111.5t-45 108.5t-75 93.5t-108.5 65.5t-141.5 25q-61 0 -114.5 -17.5t-94 -47t-73.5 -68.5t-54.5 -84.5t-33.5 -92.5t-14 -94h769zM631 -391q-34 0 -58.5 24.5t-24.5 59.5 q0 33 24.5 58t58.5 25q33 0 57.5 -25t24.5 -58q0 -17 -7 -32.5t-18 -26.5t-26 -18t-31 -7z" />
<glyph unicode="&#x1ec8;" horiz-adv-x="487" d="M307 0h-125v1462h125v-1462zM151 1661l-57 18q16 51 55 84.5t98 33.5q65 0 107.5 -37.5t42.5 -111.5q0 -61 -44 -121h-75q55 54 55 119q0 44 -23.5 68t-62.5 24q-70 0 -96 -77z" />
<glyph unicode="&#x1ec9;" horiz-adv-x="468" d="M291 0h-113v1058h113v-1058zM140 1288l-57 18q11 34 30 59.5t51 42t72 16.5q42 0 74.5 -14.5t53.5 -49t21 -85.5q0 -60 -44 -120h-73q54 54 54 118q0 45 -23.5 68.5t-62.5 23.5q-70 0 -96 -77z" />
<glyph unicode="&#x1eca;" horiz-adv-x="487" d="M307 0h-125v1462h125v-1462zM247 -391q-22 0 -41 11.5t-30 30.5t-11 42q0 33 24 58t58 25q33 0 57 -25t24 -58q0 -23 -11 -42t-29.5 -30.5t-40.5 -11.5z" />
<glyph unicode="&#x1ecb;" horiz-adv-x="468" d="M234 1225q-35 0 -61 26t-26 62q0 23 12 43t32.5 31t42.5 11q37 0 62.5 -24.5t25.5 -60.5t-26 -62t-62 -26zM291 0h-113v1058h113v-1058zM236 -391q-34 0 -58.5 24.5t-24.5 59.5q0 33 24.5 58t58.5 25q33 0 57.5 -25t24.5 -58q0 -23 -11 -42t-30 -30.5t-41 -11.5z" />
<glyph unicode="&#x1ecc;" horiz-adv-x="1673" d="M837 -27q-158 0 -291.5 58.5t-225 160t-142.5 240.5t-51 298t51 298t142.5 240.5t225 159.5t291.5 58q157 0 290.5 -58t225 -159.5t143 -240.5t51.5 -298t-51.5 -298.5t-143 -240.5t-225 -159.5t-290.5 -58.5zM837 88q129 0 238 48.5t183.5 134t116 204t41.5 255.5 q0 138 -41.5 257t-116 203.5t-183.5 133t-238 48.5q-131 0 -240 -48t-183 -133.5t-114.5 -203.5t-40.5 -257q0 -110 25.5 -208t75.5 -177t119.5 -137t161 -89t196.5 -31zM841 -391q-17 0 -32.5 7t-26 18t-17 26.5t-6.5 32.5q0 33 24 58t58 25q33 0 57 -25t24 -58 q0 -23 -11 -42t-29.5 -30.5t-40.5 -11.5z" />
<glyph unicode="&#x1ecd;" d="M625 -27q-114 0 -210 44t-161 119t-101 177t-36 217.5t36 217t101 176.5t161 118t210 43q92 0 173 -28t142 -78.5t105.5 -119t67 -152.5t22.5 -176.5t-22.5 -176.5t-67 -153t-105.5 -120t-142 -79.5t-173 -28.5zM625 77q90 0 165 37.5t122.5 101t73.5 144.5t26 171 q0 88 -26 169t-73.5 144t-122.5 100.5t-165 37.5q-60 0 -113.5 -17t-95.5 -47.5t-76 -73t-56 -92.5t-33.5 -106.5t-11.5 -114.5q0 -71 16 -138t49 -124t78.5 -100t108 -67.5t134.5 -24.5zM627 -391q-34 0 -58.5 24.5t-24.5 59.5q0 33 24.5 58t58.5 25q33 0 57 -25t24 -58 q0 -23 -11 -42t-29.5 -30.5t-40.5 -11.5z" />
<glyph unicode="&#x1ece;" horiz-adv-x="1673" d="M837 -27q-158 0 -291.5 58.5t-225 160t-142.5 240.5t-51 298t51 298t142.5 240.5t225 159.5t291.5 58q157 0 290.5 -58t225 -159.5t143 -240.5t51.5 -298t-51.5 -298.5t-143 -240.5t-225 -159.5t-290.5 -58.5zM837 88q129 0 238 48.5t183.5 134t116 204t41.5 255.5 q0 138 -41.5 257t-116 203.5t-183.5 133t-238 48.5q-131 0 -240 -48t-183 -133.5t-114.5 -203.5t-40.5 -257q0 -110 25.5 -208t75.5 -177t119.5 -137t161 -89t196.5 -31zM743 1661l-57 18q16 51 55 84.5t98 33.5q24 0 46 -5.5t41 -17t33 -29t22 -42.5t8 -55q0 -61 -44 -121 h-75q54 54 54 119q0 44 -23 68t-62 24q-70 0 -96 -77z" />
<glyph unicode="&#x1ecf;" d="M625 -27q-114 0 -210 44t-161 119t-101 177t-36 217.5t36 217t101 176.5t161 118t210 43q92 0 173 -28t142 -78.5t105.5 -119t67 -152.5t22.5 -176.5t-22.5 -176.5t-67 -153t-105.5 -120t-142 -79.5t-173 -28.5zM625 77q90 0 165 37.5t122.5 101t73.5 144.5t26 171 q0 88 -26 169t-73.5 144t-122.5 100.5t-165 37.5q-60 0 -113.5 -17t-95.5 -47.5t-76 -73t-56 -92.5t-33.5 -106.5t-11.5 -114.5q0 -71 16 -138t49 -124t78.5 -100t108 -67.5t134.5 -24.5zM533 1288l-58 18q16 52 55.5 85t98.5 33q65 0 107 -37t42 -112q0 -60 -44 -120h-75 q56 55 56 118q0 30 -11 51t-30 31t-45 10q-70 0 -96 -77z" />
<glyph unicode="&#x1ed0;" horiz-adv-x="1673" d="M1111 1495h-88l-188 186l-187 -186h-85l213 236h119zM1514 1852l-377 -237h-96l337 237h136zM837 -27q-158 0 -291.5 58.5t-225 160t-142.5 240.5t-51 298t51 298t142.5 240.5t225 159.5t291.5 58q157 0 290.5 -58t225 -159.5t143 -240.5t51.5 -298t-51.5 -298.5 t-143 -240.5t-225 -159.5t-290.5 -58.5zM837 88q129 0 238 48.5t183.5 134t116 204t41.5 255.5q0 138 -41.5 257t-116 203.5t-183.5 133t-238 48.5q-131 0 -240 -48t-183 -133.5t-114.5 -203.5t-40.5 -257q0 -110 25.5 -208t75.5 -177t119.5 -137t161 -89t196.5 -31z" />
<glyph unicode="&#x1ed1;" d="M903 1219h-88l-188 247l-186 -247h-86l212 315h119zM1290 1687l-376 -315h-97l338 315h135zM625 -27q-114 0 -210 44t-161 119t-101 177t-36 217.5t36 217t101 176.5t161 118t210 43q92 0 173 -28t142 -78.5t105.5 -119t67 -152.5t22.5 -176.5t-22.5 -176.5t-67 -153 t-105.5 -120t-142 -79.5t-173 -28.5zM625 77q90 0 165 37.5t122.5 101t73.5 144.5t26 171q0 88 -26 169t-73.5 144t-122.5 100.5t-165 37.5q-60 0 -113.5 -17t-95.5 -47.5t-76 -73t-56 -92.5t-33.5 -106.5t-11.5 -114.5q0 -71 16 -138t49 -124t78.5 -100t108 -67.5 t134.5 -24.5z" />
<glyph unicode="&#x1ed2;" horiz-adv-x="1673" d="M1111 1495h-88l-188 186l-187 -186h-85l213 236h119zM837 -27q-158 0 -291.5 58.5t-225 160t-142.5 240.5t-51 298t51 298t142.5 240.5t225 159.5t291.5 58q157 0 290.5 -58t225 -159.5t143 -240.5t51.5 -298t-51.5 -298.5t-143 -240.5t-225 -159.5t-290.5 -58.5zM837 88 q129 0 238 48.5t183.5 134t116 204t41.5 255.5q0 138 -41.5 257t-116 203.5t-183.5 133t-238 48.5q-131 0 -240 -48t-183 -133.5t-114.5 -203.5t-40.5 -257q0 -110 25.5 -208t75.5 -177t119.5 -137t161 -89t196.5 -31zM627 1615h-96l-378 237h136z" />
<glyph unicode="&#x1ed3;" d="M901 1219h-88l-188 247l-186 -247h-86l212 315h119zM625 -27q-114 0 -210 44t-161 119t-101 177t-36 217.5t36 217t101 176.5t161 118t210 43q92 0 173 -28t142 -78.5t105.5 -119t67 -152.5t22.5 -176.5t-22.5 -176.5t-67 -153t-105.5 -120t-142 -79.5t-173 -28.5z M625 77q90 0 165 37.5t122.5 101t73.5 144.5t26 171q0 88 -26 169t-73.5 144t-122.5 100.5t-165 37.5q-60 0 -113.5 -17t-95.5 -47.5t-76 -73t-56 -92.5t-33.5 -106.5t-11.5 -114.5q0 -71 16 -138t49 -124t78.5 -100t108 -67.5t134.5 -24.5zM431 1372h-96l-377 315h136z" />
<glyph unicode="&#x1ed4;" horiz-adv-x="1673" d="M1109 1495h-88l-189 186l-186 -186h-85l213 236h118zM837 -27q-158 0 -291.5 58.5t-225 160t-142.5 240.5t-51 298t51 298t142.5 240.5t225 159.5t291.5 58q157 0 290.5 -58t225 -159.5t143 -240.5t51.5 -298t-51.5 -298.5t-143 -240.5t-225 -159.5t-290.5 -58.5zM837 88 q129 0 238 48.5t183.5 134t116 204t41.5 255.5q0 138 -41.5 257t-116 203.5t-183.5 133t-238 48.5q-131 0 -240 -48t-183 -133.5t-114.5 -203.5t-40.5 -257q0 -110 25.5 -208t75.5 -177t119.5 -137t161 -89t196.5 -31zM1023 1731l-57 13q16 39 55.5 63.5t98.5 24.5 q25 0 46.5 -4t40.5 -12.5t32.5 -21.5t21.5 -31.5t8 -41.5q0 -26 -10.5 -45.5t-33.5 -44.5h-75q55 42 55 90q0 33 -23 50t-62 17q-71 0 -97 -57z" />
<glyph unicode="&#x1ed5;" d="M901 1219h-88l-188 247l-186 -247h-86l212 315h119zM625 -27q-114 0 -210 44t-161 119t-101 177t-36 217.5t36 217t101 176.5t161 118t210 43q92 0 173 -28t142 -78.5t105.5 -119t67 -152.5t22.5 -176.5t-22.5 -176.5t-67 -153t-105.5 -120t-142 -79.5t-173 -28.5z M625 77q90 0 165 37.5t122.5 101t73.5 144.5t26 171q0 88 -26 169t-73.5 144t-122.5 100.5t-165 37.5q-60 0 -113.5 -17t-95.5 -47.5t-76 -73t-56 -92.5t-33.5 -106.5t-11.5 -114.5q0 -71 16 -138t49 -124t78.5 -100t108 -67.5t134.5 -24.5zM715 1595l-58 17 q16 52 55.5 85.5t98.5 33.5q64 0 106.5 -37t42.5 -111q0 -61 -44 -121h-75q56 55 56 118q0 45 -23.5 68.5t-62.5 23.5q-70 0 -96 -77z" />
<glyph unicode="&#x1ed6;" horiz-adv-x="1673" d="M1111 1486h-88l-188 122l-187 -122h-85l213 158h119zM837 -27q-158 0 -291.5 58.5t-225 160t-142.5 240.5t-51 298t51 298t142.5 240.5t225 159.5t291.5 58q157 0 290.5 -58t225 -159.5t143 -240.5t51.5 -298t-51.5 -298.5t-143 -240.5t-225 -159.5t-290.5 -58.5zM837 88 q129 0 238 48.5t183.5 134t116 204t41.5 255.5q0 138 -41.5 257t-116 203.5t-183.5 133t-238 48.5q-131 0 -240 -48t-183 -133.5t-114.5 -203.5t-40.5 -257q0 -110 25.5 -208t75.5 -177t119.5 -137t161 -89t196.5 -31zM968 1658q-45 0 -79.5 12t-55.5 28.5t-40 33t-44 28 t-57 11.5q-52 0 -84.5 -26.5t-32.5 -79.5h-77q0 64 54 106t149 42q45 0 79 -12t54.5 -28.5t39.5 -33t44 -28t57 -11.5q52 0 84 26.5t32 79.5h80q0 -65 -53.5 -106.5t-149.5 -41.5z" />
<glyph unicode="&#x1ed7;" d="M897 1146h-88l-188 248l-187 -248h-85l212 316h118zM625 -27q-114 0 -210 44t-161 119t-101 177t-36 217.5t36 217t101 176.5t161 118t210 43q92 0 173 -28t142 -78.5t105.5 -119t67 -152.5t22.5 -176.5t-22.5 -176.5t-67 -153t-105.5 -120t-142 -79.5t-173 -28.5z M625 77q90 0 165 37.5t122.5 101t73.5 144.5t26 171q0 88 -26 169t-73.5 144t-122.5 100.5t-165 37.5q-60 0 -113.5 -17t-95.5 -47.5t-76 -73t-56 -92.5t-33.5 -106.5t-11.5 -114.5q0 -71 16 -138t49 -124t78.5 -100t108 -67.5t134.5 -24.5zM745 1495q-39 0 -70 16.5 t-49.5 41.5t-37 54.5t-33 54.5t-37 42t-49.5 17q-53 0 -85.5 -53.5t-32.5 -159.5h-77q0 128 54 210.5t149 82.5q38 0 68.5 -16.5t49 -41.5t37 -53.5t33 -53.5t37 -41.5t49.5 -16.5q52 0 84.5 52.5t32.5 157.5h79q0 -128 -53.5 -210.5t-148.5 -82.5z" />
<glyph unicode="&#x1ed8;" horiz-adv-x="1673" d="M1115 1585h-87l-189 247l-186 -247h-86l213 315h119zM837 -27q-158 0 -291.5 58.5t-225 160t-142.5 240.5t-51 298t51 298t142.5 240.5t225 159.5t291.5 58q157 0 290.5 -58t225 -159.5t143 -240.5t51.5 -298t-51.5 -298.5t-143 -240.5t-225 -159.5t-290.5 -58.5zM837 88 q129 0 238 48.5t183.5 134t116 204t41.5 255.5q0 138 -41.5 257t-116 203.5t-183.5 133t-238 48.5q-131 0 -240 -48t-183 -133.5t-114.5 -203.5t-40.5 -257q0 -110 25.5 -208t75.5 -177t119.5 -137t161 -89t196.5 -31zM846 -391q-34 0 -58.5 24.5t-24.5 59.5q0 33 24.5 58 t58.5 25q22 0 40.5 -11.5t29.5 -30.5t11 -41q0 -35 -24 -59.5t-57 -24.5z" />
<glyph unicode="&#x1ed9;" d="M899 1219h-88l-188 247l-186 -247h-86l212 315h119zM625 -27q-114 0 -210 44t-161 119t-101 177t-36 217.5t36 217t101 176.5t161 118t210 43q92 0 173 -28t142 -78.5t105.5 -119t67 -152.5t22.5 -176.5t-22.5 -176.5t-67 -153t-105.5 -120t-142 -79.5t-173 -28.5z M625 77q90 0 165 37.5t122.5 101t73.5 144.5t26 171q0 88 -26 169t-73.5 144t-122.5 100.5t-165 37.5q-60 0 -113.5 -17t-95.5 -47.5t-76 -73t-56 -92.5t-33.5 -106.5t-11.5 -114.5q0 -71 16 -138t49 -124t78.5 -100t108 -67.5t134.5 -24.5zM627 -391q-34 0 -58.5 24.5 t-24.5 59.5q0 33 24.5 58t58.5 25q33 0 57 -25t24 -58q0 -23 -11 -42t-29.5 -30.5t-40.5 -11.5z" />
<glyph unicode="&#x1eda;" horiz-adv-x="1673" d="M1192 1900l-377 -315h-96l337 315h136zM837 -27q-158 0 -291.5 58.5t-225 160t-142.5 240.5t-51 298t51 298t142.5 240.5t225 159.5t291.5 58q165 0 302.5 -65t234.5 -181q42 37 69.5 87t30.5 93l-8.5 -1t-12.5 -1q-33 0 -55 23.5t-22 57.5q0 33 23.5 57t57.5 24 q42 0 70.5 -33t28.5 -92q0 -40 -11 -81t-30 -75.5t-44 -64t-53 -51.5q129 -194 129 -453q0 -159 -51.5 -298.5t-143 -240.5t-225 -159.5t-290.5 -58.5zM837 88q129 0 238 48.5t183.5 134t116 204t41.5 255.5q0 138 -41.5 257t-116 203.5t-183.5 133t-238 48.5 q-131 0 -240 -48t-183 -133.5t-114.5 -203.5t-40.5 -257q0 -110 25.5 -208t75.5 -177t119.5 -137t161 -89t196.5 -31z" />
</font>
</defs>
</svg>
